<svg xmlns="http://www.w3.org/2000/svg" width="60" height="58.107" viewBox="0 0 60 58.107"><g id="DBSync-Logo" transform="translate(-20 -24.1)"><path id="Path_1822" data-name="Path 1822" d="M30.885,179.869l-1.362,1.385a4.886,4.886,0,0,0-3.3-1.638,2.519,2.519,0,0,0-1.754.669,2.07,2.07,0,0,0-.738,1.569,2.3,2.3,0,0,0,.6,1.5,8.706,8.706,0,0,0,2.515,1.731,9.906,9.906,0,0,1,3.185,2.331,4.25,4.25,0,0,1,.831,2.562,4.633,4.633,0,0,1-1.408,3.415,4.856,4.856,0,0,1-3.531,1.385,6.1,6.1,0,0,1-2.7-.623,5.887,5.887,0,0,1-2.123-1.685l1.315-1.5a4.627,4.627,0,0,0,3.415,1.823,3.14,3.14,0,0,0,2.146-.808,2.446,2.446,0,0,0,.877-1.892,2.376,2.376,0,0,0-.577-1.592,9.174,9.174,0,0,0-2.654-1.731,8.436,8.436,0,0,1-3-2.238,4.2,4.2,0,0,1-.808-2.515,4.057,4.057,0,0,1,1.269-3.069,4.481,4.481,0,0,1,3.208-1.223,6.561,6.561,0,0,1,4.592,2.146Zm.254-1.777h2.169L38.938,190.6l5.469-12.508h2.238l-9.738,22.269H34.669l3.185-7.292-6.715-14.977Zm16.546,0h2.1v2.931a8.757,8.757,0,0,1,2.792-2.492,6.916,6.916,0,0,1,3.346-.831,5.773,5.773,0,0,1,3.254.923,5.6,5.6,0,0,1,2.1,2.515,12.929,12.929,0,0,1,.669,4.892v8.4h-2.1v-7.777a20.781,20.781,0,0,0-.231-3.762,3.818,3.818,0,0,0-4.108-3.231,5.1,5.1,0,0,0-3.415,1.269,5.657,5.657,0,0,0-1.985,3.115,21.049,21.049,0,0,0-.3,4.431v5.977h-2.1V178.092Zm32.908,3.392-1.662,1.038a7.006,7.006,0,0,0-5.908-2.862,6.935,6.935,0,0,0-4.985,1.915,6.213,6.213,0,0,0-1.985,4.638,6.42,6.42,0,0,0,.923,3.346,6.35,6.35,0,0,0,2.492,2.446,7.306,7.306,0,0,0,3.554.877,7.215,7.215,0,0,0,5.908-2.862l1.662,1.085a7.826,7.826,0,0,1-3.138,2.723,10.076,10.076,0,0,1-4.5.969,9.017,9.017,0,0,1-6.438-2.446,7.96,7.96,0,0,1-2.562-5.977,8.588,8.588,0,0,1,4.477-7.546,9.635,9.635,0,0,1,4.685-1.131,10.253,10.253,0,0,1,3.138.485,8.6,8.6,0,0,1,2.562,1.292A7.92,7.92,0,0,1,80.592,181.485Z" transform="translate(-0.846 -118.154)" fill="#6e6e6e" fill-rule="evenodd"></path><path id="Path_1823" data-name="Path 1823" d="M33.938,30.631a13.938,13.938,0,1,0,9.323,24.3L59.992,39.677c1.846-1.685,3.3-2.815,6.069-2.815a7.735,7.735,0,1,1-7.731,7.731,5.622,5.622,0,0,1,.023-.623L52.838,49a13.946,13.946,0,1,0,5.446-15.969V24.1h-6.3V38.546L40.423,49.069c-1.985,1.823-3.692,3.162-6.508,3.231a7.735,7.735,0,1,1,7.731-7.731,5.02,5.02,0,0,1-.023.6c2.123-1.938,4.223-3.9,6.323-5.815V24.1h-6.3v8.885A13.761,13.761,0,0,0,33.938,30.631Z" fill="#009e4d" fill-rule="evenodd"></path></g></svg>