<svg version="1.1" id="Layer_1" xmlns="http://www.w3.org/2000/svg" xmlns:xlink="http://www.w3.org/1999/xlink" x="0px" y="0px"
	 width="100%" viewBox="0 0 483 383" enable-background="new 0 0 483 383" xml:space="preserve">
<path fill="#FEFEFE" opacity="1.000000" stroke="none" 
	d="
M296.000000,384.000000 
	C197.333344,384.000000 99.166687,384.000000 1.000026,384.000000 
	C1.000018,256.333374 1.000018,128.666718 1.000009,1.000061 
	C161.999954,1.000040 322.999908,1.000040 483.999878,1.000020 
	C483.999939,128.666611 483.999939,256.333221 483.999969,383.999908 
	C421.500000,384.000000 359.000000,384.000000 296.000000,384.000000 
M348.393280,173.051880 
	C348.227539,173.367722 348.061798,173.683563 347.617767,174.869049 
	C347.687836,178.139267 347.757904,181.409470 347.192413,185.131592 
	C337.467438,177.323746 330.504700,184.549240 330.152008,192.383621 
	C330.027069,195.159439 330.290680,198.091797 331.081909,200.742233 
	C333.014679,207.216461 340.100037,209.183517 345.481903,205.048157 
	C346.090271,204.580704 347.036926,204.553482 347.631622,205.105728 
	C349.252899,205.789291 350.874176,206.472839 352.933105,207.340927 
	C352.933105,195.439774 352.933105,184.719940 353.001221,173.430954 
	C352.669647,173.342194 352.338043,173.253418 351.262848,173.000641 
	C350.507446,173.055313 349.752045,173.109985 348.393280,173.051880 
M332.176605,306.071533 
	C330.737152,303.249542 328.872833,301.537811 325.624298,303.512939 
	C325.624298,311.400726 325.624298,319.248016 325.624298,327.176880 
	C327.559509,327.176880 329.150970,327.176880 331.135834,327.176880 
	C331.135834,323.493500 330.728119,319.983429 331.252747,316.618713 
	C331.757660,313.380554 333.226776,310.292786 335.143494,307.037292 
	C340.973846,306.277863 337.691223,310.756470 338.266968,312.847412 
	C341.299622,313.323792 344.326263,313.477570 343.924316,309.539978 
	C343.690704,307.251190 342.567780,304.084167 340.842590,303.135681 
	C338.000946,301.573364 334.696289,302.421082 332.176605,306.071533 
M149.163147,294.368103 
	C149.316208,289.044800 149.547272,283.722412 149.609512,278.398041 
	C149.985138,246.258789 150.660782,214.117859 150.545517,181.979980 
	C150.475967,162.595657 158.519257,148.396027 174.893402,138.640244 
	C205.622849,120.331512 236.401016,102.104515 267.174866,83.870422 
	C273.072052,80.376236 279.042572,77.005882 285.861572,73.069016 
	C278.155334,69.222847 270.985046,66.625748 264.946625,62.408115 
	C255.050598,55.496044 246.873657,56.581818 236.721161,62.875671 
	C204.913132,82.594505 172.109634,100.709129 140.330246,120.471916 
	C125.590271,129.638306 116.380821,143.884186 115.962807,161.858078 
	C115.049126,201.144348 114.826546,240.446457 114.215034,279.740448 
	C114.171486,282.538422 115.217499,283.822693 117.614777,285.007050 
	C127.155693,289.720673 136.573700,294.682678 146.065292,299.497406 
	C146.858047,299.899597 147.860123,299.889160 149.163162,300.150177 
	C149.163162,298.285187 149.163162,296.801422 149.163147,294.368103 
M203.077820,226.500305 
	C203.118454,220.004547 203.146378,213.508682 203.202148,207.013046 
	C203.350601,189.718933 210.324631,175.915863 225.174210,166.923615 
	C256.762329,147.795273 288.581543,129.048248 320.324982,110.176796 
	C326.147797,106.715134 332.060242,103.404160 338.559448,99.661972 
	C326.860687,93.724449 315.951141,88.117004 304.939117,82.718582 
	C303.948303,82.232864 302.086365,82.740517 300.980164,83.387367 
	C265.082581,104.377853 228.963669,125.009621 193.493515,146.701767 
	C178.662186,155.772018 169.262527,169.970169 168.796082,187.883224 
	C167.760193,227.665344 167.559250,267.469391 167.103027,307.265472 
	C167.090363,308.370178 167.742599,310.064728 168.593704,310.508820 
	C179.450195,316.173279 190.399811,321.659180 203.052536,328.064667 
	C203.052536,293.643890 203.052536,260.571960 203.077820,226.500305 
M106.167862,81.684738 
	C99.697243,85.776840 92.841751,89.375488 86.834099,94.061172 
	C73.270508,104.640121 64.313240,118.125603 64.043571,135.966965 
	C63.514824,170.949844 63.782459,205.956604 62.512962,240.909637 
	C62.098537,252.319931 64.704391,259.126007 75.817039,262.914642 
	C83.199821,265.431671 89.980141,269.715759 97.795753,273.588226 
	C97.795753,270.943085 97.782936,269.308228 97.797638,267.673645 
	C98.137886,229.852661 98.668640,192.032059 98.743279,154.210587 
	C98.779625,135.791397 106.030708,121.609665 121.750473,112.149841 
	C152.124664,93.871292 182.654190,75.850647 213.139938,57.757835 
	C219.902740,53.744213 226.751083,49.874702 234.107986,45.622097 
	C223.051971,40.071606 212.747726,35.021076 202.579132,29.710787 
	C199.904724,28.314150 197.888885,28.345387 195.283966,29.867271 
	C165.824951,47.078201 136.299545,64.175499 106.167862,81.684738 
M269.661041,296.953369 
	C267.660095,304.503815 265.659149,312.054260 263.344666,320.787781 
	C261.197205,311.003357 259.324036,302.468689 257.482178,294.076660 
	C255.032425,294.076660 253.084457,294.076660 250.886383,294.076660 
	C253.282654,303.195709 255.681885,311.995850 257.892334,320.843201 
	C259.634277,327.815338 259.530945,327.841156 266.939087,326.964203 
	C269.241943,318.362549 271.574371,309.650452 274.175995,299.932770 
	C276.718018,309.750916 278.955902,318.394348 281.225830,327.161621 
	C283.829224,327.161621 286.117737,327.161621 288.578735,327.161621 
	C291.477692,316.200684 294.353851,305.325928 297.236481,294.426819 
	C292.509766,292.746826 290.396515,294.106323 289.600372,298.945465 
	C288.460419,305.874542 286.588165,312.683167 284.784210,320.618317 
	C282.270142,310.883759 280.080994,302.407196 277.561798,292.652618 
	C274.627197,293.989777 272.260773,295.068085 269.661041,296.953369 
M262.115143,266.183472 
	C263.938690,266.098083 265.816620,266.262817 267.575500,265.880157 
	C272.719269,264.761078 275.913971,261.223083 276.040161,256.746460 
	C276.188110,251.494537 272.985199,248.975906 268.434113,247.636200 
	C265.726288,246.839081 262.788391,246.501266 260.357819,245.201630 
	C258.823944,244.381470 258.035553,242.167175 256.912750,240.578201 
	C258.418976,239.517746 260.150421,237.352356 261.389099,237.604813 
	C265.045319,238.349915 268.506592,240.051712 272.044128,241.379150 
	C272.089325,241.898315 272.134521,242.417480 272.179718,242.936630 
	C273.258820,241.747849 274.337952,240.559067 275.337738,239.457626 
	C271.544739,233.083878 264.958954,230.652496 257.930115,232.771652 
	C253.711563,234.043518 251.104904,236.723373 250.835754,241.305832 
	C250.570297,245.825073 253.141296,248.491913 256.979431,249.954498 
	C259.598694,250.952606 262.471191,251.264160 265.179474,252.056915 
	C267.903748,252.854355 271.534241,253.867386 269.913300,257.429443 
	C269.140472,259.127655 265.117920,260.626404 263.031891,260.155945 
	C259.671753,259.398132 256.696259,256.935089 253.292938,255.045059 
	C252.631424,256.014557 251.740494,257.320282 250.152969,259.646881 
	C254.100143,261.918365 257.727142,264.005615 262.115143,266.183472 
M428.568695,318.716034 
	C429.543213,310.628113 426.007385,305.167938 418.960602,303.878662 
	C412.855377,302.761627 406.697113,306.620239 405.109314,312.557465 
	C403.505066,318.556152 406.821442,324.818390 412.737183,326.960968 
	C419.414185,329.379303 425.097900,326.640106 428.568695,318.716034 
M353.311615,325.662781 
	C353.392120,322.287567 352.478424,318.510101 356.841217,316.863678 
	C361.656921,319.519592 360.889465,329.714691 370.275787,326.796234 
	C367.007416,321.821960 363.954224,317.175171 360.328949,311.657715 
	C363.597321,308.737061 366.630920,306.026245 369.746979,303.241730 
	C361.044556,300.932648 359.015961,310.000763 353.062683,312.881500 
	C353.062683,306.359711 353.062683,300.264587 353.062683,294.061462 
	C351.198181,294.061462 349.591858,294.061462 347.927399,294.061462 
	C347.927399,305.205688 347.927399,316.122437 347.927399,327.713654 
	C349.953796,327.232117 351.602325,326.840363 353.311615,325.662781 
M382.837921,246.131424 
	C381.415253,250.476395 379.992554,254.821350 378.169617,260.388733 
	C376.338379,254.803085 374.488892,250.403976 373.507721,245.819031 
	C372.529419,241.247543 370.263794,240.180450 365.914337,241.676376 
	C368.002014,247.634262 369.929840,253.607254 372.221558,259.437164 
	C373.101349,261.675232 374.810944,263.587067 376.446625,266.118317 
	C374.367401,270.059021 373.304535,270.238068 367.480957,266.671661 
	C366.699799,267.899414 365.916046,269.131226 365.154755,270.327728 
	C370.490753,275.540009 377.506989,275.863983 379.970551,270.319733 
	C384.084076,261.062286 387.064911,251.301514 390.540344,241.703522 
	C386.114746,240.468277 383.440125,240.988358 382.837921,246.131424 
M261.388306,193.469681 
	C264.500153,193.469681 267.612030,193.469681 270.819763,193.469681 
	C270.819763,191.522125 270.819763,190.109756 270.819763,188.202698 
	C265.970123,188.202698 261.386414,188.202698 256.702667,188.202698 
	C256.702667,184.639099 256.702667,181.576233 256.702667,178.037659 
	C262.558533,178.037659 268.134827,178.037659 273.840759,178.037659 
	C273.840759,176.161072 273.840759,174.766251 273.840759,173.318268 
	C266.062256,173.318268 258.534637,173.318268 251.100342,173.318268 
	C251.100342,184.586105 251.100342,195.497437 251.100342,206.485260 
	C252.927231,206.485260 254.475983,206.485260 256.409882,206.485260 
	C256.409882,203.217667 256.598602,200.234650 256.358765,197.286499 
	C256.099762,194.102829 257.463318,193.066177 261.388306,193.469681 
M326.720947,243.156418 
	C321.009827,249.457336 320.688049,258.318512 325.991028,263.257782 
	C330.756866,267.696747 338.798523,267.289307 343.963409,262.314514 
	C344.283295,262.006409 344.379089,261.465698 344.671631,260.833191 
	C343.798370,259.890747 342.932373,258.956146 342.066345,258.021545 
	C342.048279,258.519562 342.030182,259.017548 342.012085,259.515564 
	C338.560364,260.024689 335.049072,261.122681 331.683258,260.782227 
	C330.116547,260.623779 328.832153,257.674591 326.594482,255.006287 
	C333.793365,255.006287 339.237518,255.006287 344.850739,255.006287 
	C345.654236,250.093918 345.140778,245.782135 340.891449,242.891937 
	C336.503662,239.907562 331.891785,239.961655 326.720947,243.156418 
M280.223389,257.737091 
	C279.044281,260.903717 279.317383,263.938629 282.528198,265.473969 
	C287.102203,267.661133 290.828217,265.847626 292.910156,262.842773 
	C296.025635,264.196259 298.826447,265.413055 302.272217,266.910034 
	C302.422241,264.600616 302.847015,263.417328 302.470123,263.044586 
	C298.179199,258.800537 300.406952,253.334381 299.568024,248.460922 
	C298.758759,243.759720 295.928864,241.151291 291.150940,240.836502 
	C286.195343,240.510040 282.107056,242.165268 278.659973,246.807007 
	C279.826385,248.015045 280.917847,249.145462 282.004547,250.270935 
	C288.014130,244.346405 291.920319,244.334579 293.720398,249.358582 
	C289.325378,251.974609 284.980957,254.560501 280.223389,257.737091 
M298.630890,322.562225 
	C299.373840,323.454285 300.009308,324.471558 300.878021,325.217041 
	C305.004547,328.758179 311.298401,328.971130 315.692078,325.804382 
	C320.311615,322.474854 322.052216,315.215271 319.582825,309.577728 
	C317.137360,303.994904 312.024078,301.527344 305.593231,302.826721 
	C300.618927,303.831787 296.974396,308.355011 296.958618,314.135345 
	C296.951508,316.733032 297.735107,319.332855 298.630890,322.562225 
M306.811920,184.106354 
	C305.858185,185.247269 304.752167,186.294037 303.977905,187.545959 
	C301.123657,192.161179 301.748535,199.297989 305.256622,203.443115 
	C308.256866,206.988190 314.298370,208.252182 319.043396,206.327621 
	C323.622162,204.470505 326.292969,199.676346 326.073578,193.708298 
	C325.708527,183.778336 317.294830,179.236069 306.811920,184.106354 
M277.877197,203.596741 
	C282.261536,207.287399 288.303925,208.194565 292.576202,205.803513 
	C296.997498,203.329071 299.155426,198.009323 298.179657,191.989822 
	C297.095093,185.299194 292.902618,181.758286 286.218506,181.887527 
	C279.785706,182.011932 275.143433,186.030640 274.979034,192.699661 
	C274.894318,196.136612 276.495422,199.615128 277.877197,203.596741 
M379.379395,312.029114 
	C378.768433,310.876556 378.157471,309.723999 377.546509,308.571442 
	C378.713898,308.081390 380.048126,306.964294 381.016602,307.221954 
	C383.647003,307.921631 386.122437,309.203766 389.083649,310.430847 
	C389.588318,309.834869 390.513123,308.742737 391.457642,307.627350 
	C388.056458,302.788147 383.457214,302.121643 378.434906,302.803192 
	C374.716766,303.307800 372.315582,305.359070 371.959808,309.242615 
	C371.617371,312.981018 373.609558,315.179962 377.040070,316.222931 
	C379.262115,316.898468 381.618195,317.254974 383.703430,318.213104 
	C384.964081,318.792389 385.821686,320.248779 386.860413,321.311005 
	C385.490601,321.975800 383.907715,323.441010 382.793823,323.144470 
	C380.201965,322.454468 377.831116,320.925690 375.383789,319.710419 
	C374.989349,319.514587 374.662262,319.183044 374.136902,318.788788 
	C373.062836,319.934906 372.080719,320.982941 371.133270,321.993988 
	C375.415344,327.587952 382.595367,329.803497 387.975281,326.761841 
	C389.807098,325.726166 391.667358,323.113403 391.779022,321.123901 
	C391.888916,319.165161 390.273438,316.377045 388.559845,315.225830 
	C386.186188,313.631195 383.012909,313.226776 379.379395,312.029114 
M313.670227,253.514771 
	C313.670227,251.066757 313.670227,248.618729 313.670227,246.065308 
	C316.318329,245.847595 318.412506,245.675415 320.565948,245.498383 
	C322.004120,238.415298 315.747589,242.619644 313.944794,240.546249 
	C314.373840,235.544800 314.846191,235.357513 321.093048,237.728912 
	C324.176636,234.900681 322.795929,233.235291 319.571289,232.191849 
	C313.688354,230.288269 309.478088,232.695297 307.930420,238.737732 
	C307.738495,239.486969 307.649506,240.462158 307.140594,240.899109 
	C303.004517,244.450500 302.977509,244.419037 308.158997,247.048660 
	C308.158997,253.148407 308.158997,259.427673 308.158997,266.010590 
	C310.105499,265.921143 311.683777,265.848602 313.670135,265.757294 
	C313.670135,261.774170 313.670135,258.133789 313.670227,253.514771 
M351.274414,246.944275 
	C351.440552,251.742966 351.161377,256.620819 351.993530,261.301117 
	C352.323120,263.154816 354.947876,265.608490 356.840027,265.925690 
	C359.304718,266.338867 362.260925,265.250214 364.612122,264.042053 
	C365.321228,263.677704 364.721832,260.766815 364.721832,257.962128 
	C361.363220,260.719849 358.323059,263.380035 357.312469,258.216583 
	C356.545410,254.297623 357.160339,250.108139 357.160339,246.615692 
	C359.956085,244.671265 366.035797,248.228912 364.153992,241.296341 
	C361.658661,241.159668 359.545135,241.043915 357.319061,240.921997 
	C357.147461,238.934601 357.000275,237.230133 356.716705,233.946548 
	C353.977936,236.991776 352.145966,239.044708 350.294830,241.080231 
	C349.388306,242.077026 348.446167,243.041428 347.520142,244.020493 
	C348.638428,244.734055 349.756744,245.447601 351.274414,246.944275 
z"/>
<path fill="#F6AC1D" opacity="1.000000" stroke="none" 
	d="
M149.163147,294.842896 
	C149.163162,296.801422 149.163162,298.285187 149.163162,300.150177 
	C147.860123,299.889160 146.858047,299.899597 146.065292,299.497406 
	C136.573700,294.682678 127.155693,289.720673 117.614777,285.007050 
	C115.217499,283.822693 114.171486,282.538422 114.215034,279.740448 
	C114.826546,240.446457 115.049126,201.144348 115.962807,161.858078 
	C116.380821,143.884186 125.590271,129.638306 140.330246,120.471916 
	C172.109634,100.709129 204.913132,82.594505 236.721161,62.875671 
	C246.873657,56.581818 255.050598,55.496044 264.946625,62.408115 
	C270.985046,66.625748 278.155334,69.222847 285.861572,73.069016 
	C279.042572,77.005882 273.072052,80.376236 267.174866,83.870422 
	C236.401016,102.104515 205.622849,120.331512 174.893402,138.640244 
	C158.519257,148.396027 150.475967,162.595657 150.545517,181.979980 
	C150.660782,214.117859 149.985138,246.258789 149.609512,278.398041 
	C149.547272,283.722412 149.316208,289.044800 149.163147,294.842896 
z"/>
<path fill="#6D923F" opacity="1.000000" stroke="none" 
	d="
M203.065186,227.000153 
	C203.052536,260.571960 203.052536,293.643890 203.052536,328.064667 
	C190.399811,321.659180 179.450195,316.173279 168.593704,310.508820 
	C167.742599,310.064728 167.090363,308.370178 167.103027,307.265472 
	C167.559250,267.469391 167.760193,227.665344 168.796082,187.883224 
	C169.262527,169.970169 178.662186,155.772018 193.493515,146.701767 
	C228.963669,125.009621 265.082581,104.377853 300.980164,83.387367 
	C302.086365,82.740517 303.948303,82.232864 304.939117,82.718582 
	C315.951141,88.117004 326.860687,93.724449 338.559448,99.661972 
	C332.060242,103.404160 326.147797,106.715134 320.324982,110.176796 
	C288.581543,129.048248 256.762329,147.795273 225.174210,166.923615 
	C210.324631,175.915863 203.350601,189.718933 203.202148,207.013046 
	C203.146378,213.508682 203.118454,220.004547 203.065186,227.000153 
z"/>
<path fill="#2B82B4" opacity="1.000000" stroke="none" 
	d="
M106.479904,81.493988 
	C136.299545,64.175499 165.824951,47.078201 195.283966,29.867271 
	C197.888885,28.345387 199.904724,28.314150 202.579132,29.710787 
	C212.747726,35.021076 223.051971,40.071606 234.107986,45.622097 
	C226.751083,49.874702 219.902740,53.744213 213.139938,57.757835 
	C182.654190,75.850647 152.124664,93.871292 121.750473,112.149841 
	C106.030708,121.609665 98.779625,135.791397 98.743279,154.210587 
	C98.668640,192.032059 98.137886,229.852661 97.797638,267.673645 
	C97.782936,269.308228 97.795753,270.943085 97.795753,273.588226 
	C89.980141,269.715759 83.199821,265.431671 75.817039,262.914642 
	C64.704391,259.126007 62.098537,252.319931 62.512962,240.909637 
	C63.782459,205.956604 63.514824,170.949844 64.043571,135.966965 
	C64.313240,118.125603 73.270508,104.640121 86.834099,94.061172 
	C92.841751,89.375488 99.697243,85.776840 106.479904,81.493988 
z"/>
<path fill="#2C292A" opacity="1.000000" stroke="none" 
	d="
M269.777710,296.549866 
	C272.260773,295.068085 274.627197,293.989777 277.561798,292.652618 
	C280.080994,302.407196 282.270142,310.883759 284.784210,320.618317 
	C286.588165,312.683167 288.460419,305.874542 289.600372,298.945465 
	C290.396515,294.106323 292.509766,292.746826 297.236481,294.426819 
	C294.353851,305.325928 291.477692,316.200684 288.578735,327.161621 
	C286.117737,327.161621 283.829224,327.161621 281.225830,327.161621 
	C278.955902,318.394348 276.718018,309.750916 274.175995,299.932770 
	C271.574371,309.650452 269.241943,318.362549 266.939087,326.964203 
	C259.530945,327.841156 259.634277,327.815338 257.892334,320.843201 
	C255.681885,311.995850 253.282654,303.195709 250.886383,294.076660 
	C253.084457,294.076660 255.032425,294.076660 257.482178,294.076660 
	C259.324036,302.468689 261.197205,311.003357 263.344666,320.787781 
	C265.659149,312.054260 267.660095,304.503815 269.777710,296.549866 
z"/>
<path fill="#2E2B2C" opacity="1.000000" stroke="none" 
	d="
M261.734619,266.138153 
	C257.727142,264.005615 254.100143,261.918365 250.152969,259.646881 
	C251.740494,257.320282 252.631424,256.014557 253.292938,255.045059 
	C256.696259,256.935089 259.671753,259.398132 263.031891,260.155945 
	C265.117920,260.626404 269.140472,259.127655 269.913300,257.429443 
	C271.534241,253.867386 267.903748,252.854355 265.179474,252.056915 
	C262.471191,251.264160 259.598694,250.952606 256.979431,249.954498 
	C253.141296,248.491913 250.570297,245.825073 250.835754,241.305832 
	C251.104904,236.723373 253.711563,234.043518 257.930115,232.771652 
	C264.958954,230.652496 271.544739,233.083878 275.337738,239.457626 
	C274.337952,240.559067 273.258820,241.747849 272.179718,242.936630 
	C272.134521,242.417480 272.089325,241.898315 272.044128,241.379150 
	C268.506592,240.051712 265.045319,238.349915 261.389099,237.604813 
	C260.150421,237.352356 258.418976,239.517746 256.912750,240.578217 
	C258.035553,242.167175 258.823944,244.381470 260.357819,245.201630 
	C262.788391,246.501266 265.726288,246.839081 268.434113,247.636200 
	C272.985199,248.975906 276.188110,251.494537 276.040161,256.746460 
	C275.913971,261.223083 272.719269,264.761078 267.575500,265.880157 
	C265.816620,266.262817 263.938690,266.098083 261.734619,266.138153 
z"/>
<path fill="#F2AC22" opacity="1.000000" stroke="none" 
	d="
M428.432312,319.089386 
	C425.097900,326.640106 419.414185,329.379303 412.737183,326.960968 
	C406.821442,324.818390 403.505066,318.556152 405.109314,312.557465 
	C406.697113,306.620239 412.855377,302.761627 418.960602,303.878662 
	C426.007385,305.167938 429.543213,310.628113 428.432312,319.089386 
z"/>
<path fill="#282526" opacity="1.000000" stroke="none" 
	d="
M353.281250,326.055695 
	C351.602325,326.840363 349.953796,327.232117 347.927399,327.713654 
	C347.927399,316.122437 347.927399,305.205688 347.927399,294.061462 
	C349.591858,294.061462 351.198181,294.061462 353.062683,294.061462 
	C353.062683,300.264587 353.062683,306.359711 353.062683,312.881500 
	C359.015961,310.000763 361.044556,300.932648 369.746979,303.241730 
	C366.630920,306.026245 363.597321,308.737061 360.328949,311.657715 
	C363.954224,317.175171 367.007416,321.821960 370.275787,326.796234 
	C360.889465,329.714691 361.656921,319.519592 356.841217,316.863678 
	C352.478424,318.510101 353.392120,322.287567 353.281250,326.055695 
z"/>
<path fill="#302D2E" opacity="1.000000" stroke="none" 
	d="
M382.924255,245.742920 
	C383.440125,240.988358 386.114746,240.468277 390.540344,241.703522 
	C387.064911,251.301514 384.084076,261.062286 379.970551,270.319733 
	C377.506989,275.863983 370.490753,275.540009 365.154755,270.327728 
	C365.916046,269.131226 366.699799,267.899414 367.480957,266.671661 
	C373.304535,270.238068 374.367401,270.059021 376.446625,266.118317 
	C374.810944,263.587067 373.101349,261.675232 372.221558,259.437164 
	C369.929840,253.607254 368.002014,247.634262 365.914337,241.676376 
	C370.263794,240.180450 372.529419,241.247543 373.507721,245.819031 
	C374.488892,250.403976 376.338379,254.803085 378.169617,260.388733 
	C379.992554,254.821350 381.415253,250.476395 382.924255,245.742920 
z"/>
<path fill="#292627" opacity="1.000000" stroke="none" 
	d="
M260.891052,193.469940 
	C257.463318,193.066177 256.099762,194.102829 256.358765,197.286499 
	C256.598602,200.234650 256.409882,203.217667 256.409882,206.485260 
	C254.475983,206.485260 252.927231,206.485260 251.100342,206.485260 
	C251.100342,195.497437 251.100342,184.586105 251.100342,173.318268 
	C258.534637,173.318268 266.062256,173.318268 273.840759,173.318268 
	C273.840759,174.766251 273.840759,176.161072 273.840759,178.037659 
	C268.134827,178.037659 262.558533,178.037659 256.702667,178.037659 
	C256.702667,181.576233 256.702667,184.639099 256.702667,188.202698 
	C261.386414,188.202698 265.970123,188.202698 270.819763,188.202698 
	C270.819763,190.109756 270.819763,191.522125 270.819763,193.469681 
	C267.612030,193.469681 264.500153,193.469681 260.891052,193.469940 
z"/>
<path fill="#2F2B2C" opacity="1.000000" stroke="none" 
	d="
M327.034485,242.955536 
	C331.891785,239.961655 336.503662,239.907562 340.891449,242.891937 
	C345.140778,245.782135 345.654236,250.093918 344.850739,255.006287 
	C339.237518,255.006287 333.793365,255.006287 326.594482,255.006287 
	C328.832153,257.674591 330.116547,260.623779 331.683258,260.782227 
	C335.049072,261.122681 338.560364,260.024689 342.012085,259.515564 
	C342.030182,259.017548 342.048279,258.519562 342.066345,258.021545 
	C342.932373,258.956146 343.798370,259.890747 344.671631,260.833191 
	C344.379089,261.465698 344.283295,262.006409 343.963409,262.314514 
	C338.798523,267.289307 330.756866,267.696747 325.991028,263.257782 
	C320.688049,258.318512 321.009827,249.457336 327.034485,242.955536 
M335.352173,251.128204 
	C336.874878,251.033295 338.397552,250.938400 340.152344,250.829025 
	C339.153534,246.518051 336.691528,245.057816 333.125549,245.441711 
	C330.002899,245.777878 328.225983,247.524582 328.241455,251.128250 
	C330.501678,251.128250 332.476593,251.128250 335.352173,251.128204 
z"/>
<path fill="#312E2F" opacity="1.000000" stroke="none" 
	d="
M280.429962,257.441772 
	C284.980957,254.560501 289.325378,251.974609 293.720398,249.358582 
	C291.920319,244.334579 288.014130,244.346405 282.004547,250.270935 
	C280.917847,249.145462 279.826385,248.015045 278.659973,246.807007 
	C282.107056,242.165268 286.195343,240.510040 291.150940,240.836502 
	C295.928864,241.151291 298.758759,243.759720 299.568024,248.460922 
	C300.406952,253.334381 298.179199,258.800537 302.470123,263.044586 
	C302.847015,263.417328 302.422241,264.600616 302.272217,266.910034 
	C298.826447,265.413055 296.025635,264.196259 292.910156,262.842773 
	C290.828217,265.847626 287.102203,267.661133 282.528198,265.473969 
	C279.317383,263.938629 279.044281,260.903717 280.429962,257.441772 
M286.962982,261.756165 
	C293.336731,261.509369 294.821075,259.850403 293.594971,254.165649 
	C291.466766,255.102341 289.275635,255.876205 287.282745,257.001160 
	C285.530670,257.990204 283.676727,259.300079 286.962982,261.756165 
z"/>
<path fill="#2D2B2C" opacity="1.000000" stroke="none" 
	d="
M298.395386,322.246979 
	C297.735107,319.332855 296.951508,316.733032 296.958618,314.135345 
	C296.974396,308.355011 300.618927,303.831787 305.593231,302.826721 
	C312.024078,301.527344 317.137360,303.994904 319.582825,309.577728 
	C322.052216,315.215271 320.311615,322.474854 315.692078,325.804382 
	C311.298401,328.971130 305.004547,328.758179 300.878021,325.217041 
	C300.009308,324.471558 299.373840,323.454285 298.395386,322.246979 
M314.903839,313.821075 
	C314.640167,312.872284 314.491394,311.871887 314.092712,310.983704 
	C312.444733,307.312500 309.626343,306.233307 306.016388,307.866119 
	C302.627899,309.398743 301.318726,316.421326 303.598114,320.237427 
	C305.559143,323.520569 308.469269,323.925385 311.708862,322.502563 
	C312.526764,322.143311 313.338379,321.187225 313.628113,320.328430 
	C314.248413,318.489929 314.526031,316.535828 314.903839,313.821075 
z"/>
<path fill="#2F2C2D" opacity="1.000000" stroke="none" 
	d="
M307.122925,183.875854 
	C317.294830,179.236069 325.708527,183.778336 326.073578,193.708298 
	C326.292969,199.676346 323.622162,204.470505 319.043396,206.327621 
	C314.298370,208.252182 308.256866,206.988190 305.256622,203.443115 
	C301.748535,199.297989 301.123657,192.161179 303.977905,187.545959 
	C304.752167,186.294037 305.858185,185.247269 307.122925,183.875854 
M319.737152,190.246460 
	C316.194122,185.460831 311.137238,184.974030 309.248932,189.618393 
	C308.165710,192.282639 308.130951,195.886368 308.992523,198.638809 
	C309.523285,200.334320 312.705750,202.299301 314.563721,202.172989 
	C316.450775,202.044693 318.862335,199.824371 319.772827,197.914230 
	C320.671295,196.029358 319.978149,193.385803 319.737152,190.246460 
z"/>
<path fill="#2B292A" opacity="1.000000" stroke="none" 
	d="
M277.605957,203.335800 
	C276.495422,199.615128 274.894318,196.136612 274.979034,192.699661 
	C275.143433,186.030640 279.785706,182.011932 286.218506,181.887527 
	C292.902618,181.758286 297.095093,185.299194 298.179657,191.989822 
	C299.155426,198.009323 296.997498,203.329071 292.576202,205.803513 
	C288.303925,208.194565 282.261536,207.287399 277.605957,203.335800 
M285.664948,202.399368 
	C287.783447,201.204239 291.397675,200.309570 291.710602,198.751755 
	C292.371643,195.461060 292.082245,191.480545 290.730743,188.425308 
	C289.390167,185.394760 284.397949,185.806992 282.170868,188.466782 
	C278.975006,192.283569 280.383575,199.501907 285.664948,202.399368 
z"/>
<path fill="#2F2C2D" opacity="1.000000" stroke="none" 
	d="
M379.780701,312.170929 
	C383.012909,313.226776 386.186188,313.631195 388.559845,315.225830 
	C390.273438,316.377045 391.888916,319.165161 391.779022,321.123901 
	C391.667358,323.113403 389.807098,325.726166 387.975281,326.761841 
	C382.595367,329.803497 375.415344,327.587952 371.133270,321.993988 
	C372.080719,320.982941 373.062836,319.934906 374.136902,318.788788 
	C374.662262,319.183044 374.989349,319.514587 375.383789,319.710419 
	C377.831116,320.925690 380.201965,322.454468 382.793823,323.144470 
	C383.907715,323.441010 385.490601,321.975800 386.860413,321.311035 
	C385.821686,320.248779 384.964081,318.792389 383.703430,318.213104 
	C381.618195,317.254974 379.262115,316.898468 377.040070,316.222931 
	C373.609558,315.179962 371.617371,312.981018 371.959808,309.242615 
	C372.315582,305.359070 374.716766,303.307800 378.434906,302.803192 
	C383.457214,302.121643 388.056458,302.788147 391.457642,307.627350 
	C390.513123,308.742737 389.588318,309.834869 389.083649,310.430847 
	C386.122437,309.203766 383.647003,307.921631 381.016602,307.221954 
	C380.048126,306.964294 378.713898,308.081390 377.546509,308.571442 
	C378.157471,309.723999 378.768433,310.876556 379.780701,312.170929 
z"/>
<path fill="#373334" opacity="1.000000" stroke="none" 
	d="
M313.670166,254.004105 
	C313.670135,258.133789 313.670135,261.774170 313.670135,265.757294 
	C311.683777,265.848602 310.105499,265.921143 308.158997,266.010590 
	C308.158997,259.427673 308.158997,253.148407 308.158997,247.048660 
	C302.977509,244.419037 303.004517,244.450500 307.140594,240.899109 
	C307.649506,240.462158 307.738495,239.486969 307.930420,238.737732 
	C309.478088,232.695297 313.688354,230.288269 319.571289,232.191849 
	C322.795929,233.235291 324.176636,234.900681 321.093048,237.728912 
	C314.846191,235.357513 314.373840,235.544800 313.945435,240.545319 
	C315.747589,242.619644 322.004120,238.415298 320.565948,245.498383 
	C318.412506,245.675415 316.318329,245.847595 313.670227,246.065308 
	C313.670227,248.618729 313.670227,251.066757 313.670166,254.004105 
z"/>
<path fill="#353132" opacity="1.000000" stroke="none" 
	d="
M351.074707,246.552704 
	C349.756744,245.447601 348.638428,244.734055 347.520142,244.020493 
	C348.446167,243.041428 349.388306,242.077026 350.294830,241.080231 
	C352.145966,239.044708 353.977936,236.991776 356.716705,233.946548 
	C357.000275,237.230133 357.147461,238.934601 357.319061,240.921997 
	C359.545135,241.043915 361.658661,241.159668 364.153992,241.296341 
	C366.035797,248.228912 359.956085,244.671265 357.160339,246.615692 
	C357.160339,250.108139 356.545410,254.297623 357.312469,258.216583 
	C358.323059,263.380035 361.363220,260.719849 364.721832,257.962128 
	C364.721832,260.766815 365.321228,263.677704 364.612122,264.042053 
	C362.260925,265.250214 359.304718,266.338867 356.840027,265.925690 
	C354.947876,265.608490 352.323120,263.154816 351.993530,261.301117 
	C351.161377,256.620819 351.440552,251.742966 351.074707,246.552704 
z"/>
<path fill="#312E2F" opacity="1.000000" stroke="none" 
	d="
M347.826691,204.322113 
	C347.036926,204.553482 346.090271,204.580704 345.481903,205.048157 
	C340.100037,209.183517 333.014679,207.216461 331.081909,200.742233 
	C330.290680,198.091797 330.027069,195.159439 330.152008,192.383621 
	C330.504700,184.549240 337.467438,177.323746 347.587372,185.306702 
	C347.529541,186.358582 347.076752,187.235336 346.318176,187.978271 
	C343.286957,185.638901 340.577942,185.704041 338.019440,188.058716 
	C335.613708,190.272797 335.075409,197.372086 337.214539,200.127640 
	C340.026245,203.749649 343.360046,203.225296 347.094727,201.131470 
	C347.562134,202.328812 347.694427,203.325455 347.826691,204.322113 
z"/>
<path fill="#373435" opacity="1.000000" stroke="none" 
	d="
M334.272247,307.138916 
	C333.226776,310.292786 331.757660,313.380554 331.252747,316.618713 
	C330.728119,319.983429 331.135834,323.493500 331.135834,327.176880 
	C329.150970,327.176880 327.559509,327.176880 325.624298,327.176880 
	C325.624298,319.248016 325.624298,311.400726 325.624298,303.512939 
	C328.872833,301.537811 330.737152,303.249542 332.722656,306.257965 
	C333.603210,306.675903 333.937744,306.907410 334.272247,307.138916 
z"/>
<path fill="#242122" opacity="1.000000" stroke="none" 
	d="
M347.729156,204.713928 
	C347.694427,203.325455 347.562134,202.328812 347.168762,200.733505 
	C346.813080,196.127274 346.718506,192.119675 346.623932,188.112091 
	C347.076752,187.235336 347.529541,186.358582 347.905151,185.080750 
	C347.757904,181.409470 347.687836,178.139267 347.986298,174.363831 
	C348.648590,173.701126 348.862518,173.469803 348.996643,173.164642 
	C349.752045,173.109985 350.507446,173.055313 351.739014,173.271271 
	C352.406158,173.770355 352.645477,173.923080 352.933105,174.000107 
	C352.933105,184.719940 352.933105,195.439774 352.933105,207.340927 
	C350.874176,206.472839 349.252899,205.789291 347.729156,204.713928 
z"/>
<path fill="#2E2B2C" opacity="1.000000" stroke="none" 
	d="
M334.707886,307.088104 
	C333.937744,306.907410 333.603210,306.675903 333.114868,306.178040 
	C334.696289,302.421082 338.000946,301.573364 340.842590,303.135681 
	C342.567780,304.084167 343.690704,307.251190 343.924316,309.539978 
	C344.326263,313.477570 341.299622,313.323792 338.266968,312.847412 
	C337.691223,310.756470 340.973846,306.277863 334.707886,307.088104 
z"/>
<path fill="#312E2F" opacity="1.000000" stroke="none" 
	d="
M352.967163,173.715530 
	C352.645477,173.923080 352.406158,173.770355 352.110840,173.353271 
	C352.338043,173.253418 352.669647,173.342194 352.967163,173.715530 
z"/>
<path fill="#312E2F" opacity="1.000000" stroke="none" 
	d="
M348.694946,173.108261 
	C348.862518,173.469803 348.648590,173.701126 348.125427,173.929016 
	C348.061798,173.683563 348.227539,173.367722 348.694946,173.108261 
z"/>
<path fill="#F2F2F2" opacity="1.000000" stroke="none" 
	d="
M334.901825,251.128235 
	C332.476593,251.128250 330.501678,251.128250 328.241455,251.128250 
	C328.225983,247.524582 330.002899,245.777878 333.125549,245.441711 
	C336.691528,245.057816 339.153534,246.518051 340.152344,250.829025 
	C338.397552,250.938400 336.874878,251.033295 334.901825,251.128235 
z"/>
<path fill="#EAEAEA" opacity="1.000000" stroke="none" 
	d="
M286.609192,261.601379 
	C283.676727,259.300079 285.530670,257.990204 287.282745,257.001160 
	C289.275635,255.876205 291.466766,255.102341 293.594971,254.165649 
	C294.821075,259.850403 293.336731,261.509369 286.609192,261.601379 
z"/>
<path fill="#F7F7F7" opacity="1.000000" stroke="none" 
	d="
M314.923920,314.225098 
	C314.526031,316.535828 314.248413,318.489929 313.628113,320.328430 
	C313.338379,321.187225 312.526764,322.143311 311.708862,322.502563 
	C308.469269,323.925385 305.559143,323.520569 303.598114,320.237427 
	C301.318726,316.421326 302.627899,309.398743 306.016388,307.866119 
	C309.626343,306.233307 312.444733,307.312500 314.092712,310.983704 
	C314.491394,311.871887 314.640167,312.872284 314.923920,314.225098 
z"/>
<path fill="#F8F8F8" opacity="1.000000" stroke="none" 
	d="
M319.860229,190.660782 
	C319.978149,193.385803 320.671295,196.029358 319.772827,197.914230 
	C318.862335,199.824371 316.450775,202.044693 314.563721,202.172989 
	C312.705750,202.299301 309.523285,200.334320 308.992523,198.638809 
	C308.130951,195.886368 308.165710,192.282639 309.248932,189.618393 
	C311.137238,184.974030 316.194122,185.460831 319.860229,190.660782 
z"/>
<path fill="#F5F5F5" opacity="1.000000" stroke="none" 
	d="
M285.254456,202.282318 
	C280.383575,199.501907 278.975006,192.283569 282.170868,188.466782 
	C284.397949,185.806992 289.390167,185.394760 290.730743,188.425308 
	C292.082245,191.480545 292.371643,195.461060 291.710602,198.751755 
	C291.397675,200.309570 287.783447,201.204239 285.254456,202.282318 
z"/>
<path fill="#F1F1F1" opacity="1.000000" stroke="none" 
	d="
M346.318176,187.978271 
	C346.718506,192.119675 346.813080,196.127274 346.833618,200.532806 
	C343.360046,203.225296 340.026245,203.749649 337.214539,200.127640 
	C335.075409,197.372086 335.613708,190.272797 338.019440,188.058716 
	C340.577942,185.704041 343.286957,185.638901 346.318176,187.978271 
z"/>
</svg>