<svg version="1.1" id="Layer_1" xmlns="http://www.w3.org/2000/svg" xmlns:xlink="http://www.w3.org/1999/xlink" x="0px" y="0px"
	 width="100%" viewBox="0 0 322 169" enable-background="new 0 0 322 169" xml:space="preserve">
<path fill="#4B4EBD" opacity="1.000000" stroke="none" 
	d="
M323.000000,32.000000 
	C323.000000,49.687561 323.000000,67.375122 322.670441,85.632477 
	C315.192139,90.301041 309.362549,95.594589 304.369110,102.355659 
	C300.458282,107.650856 295.221924,113.958275 289.432678,115.484283 
	C274.776184,119.347641 277.271301,119.806587 277.000122,132.298630 
	C276.992920,132.631699 277.001495,132.965103 276.996277,133.298233 
	C276.904602,139.160019 275.480835,140.842422 269.578918,141.914963 
	C265.319153,142.689087 261.025177,143.288071 256.785034,144.154007 
	C250.248093,145.489014 249.198120,146.973602 248.973434,153.583618 
	C248.787292,159.060455 248.334610,164.528214 248.000000,170.000000 
	C235.645767,170.000000 223.291550,170.000000 210.489517,169.574768 
	C210.361252,163.525879 210.842285,157.905640 210.961945,152.277725 
	C211.135834,144.098846 211.504944,143.574814 219.581116,142.957474 
	C234.018066,141.853897 236.857193,139.532578 237.699600,125.530403 
	C238.029739,120.042831 239.328339,116.719940 245.334503,116.003235 
	C246.110886,116.001938 246.554520,116.000793 247.258087,116.098618 
	C249.679199,113.800072 251.840378,111.402565 254.216125,108.757202 
	C254.957520,107.339081 255.484329,106.168816 256.295349,104.849655 
	C258.051971,103.120293 259.524353,101.539825 261.165405,100.258331 
	C261.910767,101.804932 262.487427,103.052559 263.346924,104.912109 
	C266.849060,99.624527 265.914398,94.734703 264.961334,89.543221 
	C265.285828,88.498436 265.548828,87.747452 266.197449,87.076416 
	C270.718994,88.576820 273.425323,87.717880 274.977509,83.103302 
	C275.887634,80.397530 277.734680,77.667328 279.890106,75.782890 
	C286.677490,69.848869 290.785706,61.656109 298.896973,56.505253 
	C305.721191,52.171703 310.167511,44.156975 315.867889,37.957024 
	C317.946259,35.696465 320.605682,33.970089 323.000000,32.000000 
z"/>
<path fill="#6E3ACB" opacity="1.000000" stroke="none" 
	d="
M1.000000,114.000000 
	C1.000000,88.312439 1.000000,62.624878 1.431199,36.468178 
	C6.632702,36.012749 11.140360,35.886555 13.036660,30.046398 
	C13.515809,28.570730 15.945460,27.728392 17.478807,26.595024 
	C18.377823,27.878332 19.098309,29.353611 20.220358,30.397093 
	C21.672701,31.747744 23.350103,33.563477 25.096575,33.769062 
	C32.896168,34.687187 35.812691,31.923151 35.981976,24.122015 
	C36.039467,21.472544 35.983307,18.820805 36.004509,16.170305 
	C36.058346,9.440605 36.699421,8.485864 43.234180,7.094880 
	C46.720425,6.352800 49.168873,5.016112 49.000000,1.000000 
	C67.354225,1.000000 85.708458,1.000000 104.444588,1.343980 
	C102.603363,3.940393 100.460434,6.280904 98.123604,8.408459 
	C96.938148,9.487761 95.162430,9.950792 94.064156,11.088720 
	C85.460594,20.002954 78.210869,30.143114 68.327972,37.935238 
	C62.934658,42.187576 58.555527,47.745117 53.829395,52.816887 
	C51.412746,55.410275 49.762737,58.103928 53.300007,61.364353 
	C54.147797,62.145782 54.181664,64.324600 53.898094,65.720184 
	C53.126705,69.516594 51.984943,73.237762 50.685486,76.847458 
	C49.603600,75.867958 48.690289,75.118782 48.072701,74.175903 
	C45.605717,70.409561 42.898132,70.482994 39.979149,73.561806 
	C38.842819,74.760345 37.927513,76.177116 36.742767,77.319450 
	C33.199741,80.735649 29.919170,84.590729 25.867140,87.258232 
	C22.768835,89.297897 20.189066,90.919914 19.741676,94.927986 
	C19.600691,96.191055 18.373245,97.474182 17.368864,98.472191 
	C14.702213,101.121895 11.868096,103.602127 9.134317,106.185463 
	C6.401606,108.767799 3.709761,111.393379 1.000000,114.000000 
z"/>
<path fill="#524AC1" opacity="1.000000" stroke="none" 
	d="
M246.998169,115.999649 
	C246.554520,116.000793 246.110886,116.001938 245.003296,115.827621 
	C237.395584,112.629959 232.155350,114.006805 228.337448,121.011116 
	C226.460724,124.454132 223.884674,127.803177 220.873032,130.280426 
	C214.646851,135.401810 210.296585,143.175217 200.348831,143.176712 
	C193.471603,143.177734 192.311172,145.770386 191.929550,152.884796 
	C191.622574,158.607910 190.667511,164.296234 190.000000,170.000000 
	C170.312439,170.000000 150.624878,170.000000 130.568665,169.667175 
	C132.493637,166.121246 134.180130,162.084671 137.200745,159.857681 
	C144.672974,154.348633 148.359985,144.921722 157.274063,141.001389 
	C158.309174,140.546143 158.787689,138.889191 159.600067,137.848526 
	C160.816803,136.289841 162.082123,134.767838 163.359482,133.257904 
	C168.231873,127.498291 173.117355,121.749756 178.321625,115.981506 
	C183.319656,115.444603 179.959396,112.721001 180.363251,110.814819 
	C183.912628,111.162521 187.199005,111.342407 190.315826,112.164856 
	C195.682022,113.580833 201.688980,111.737701 205.522217,107.118118 
	C207.762833,106.213371 209.925568,105.713120 211.441742,104.441780 
	C214.140427,102.178856 216.447815,99.449265 219.087280,97.211105 
	C220.991592,97.973305 222.727493,98.439255 224.463409,98.905212 
	C224.760773,97.393913 225.139252,95.892349 225.322311,94.367325 
	C225.418274,93.567825 225.171509,92.727180 225.338760,92.125992 
	C228.113602,94.245552 230.648788,96.118996 233.137802,98.051903 
	C234.763397,99.314270 236.321960,100.662910 237.913391,102.310371 
	C237.930359,103.097549 237.944458,103.547264 237.849915,104.232391 
	C237.835342,105.312706 237.929428,106.157616 238.029236,107.362732 
	C239.139771,108.905067 240.103317,110.871002 241.379730,111.101044 
	C243.804749,111.538101 246.408783,110.981781 248.878357,111.187080 
	C248.211563,113.023972 247.604874,114.511818 246.998169,115.999649 
z"/>
<path fill="#5F42C5" opacity="1.000000" stroke="none" 
	d="
M172.000000,1.000000 
	C193.020889,1.000000 214.041794,1.000000 235.499176,1.377545 
	C233.922852,3.075111 232.059647,5.158062 229.872101,5.587069 
	C218.586105,7.800388 209.865631,16.802509 209.036774,28.042273 
	C208.728195,32.226887 206.798859,34.031364 202.740250,33.990391 
	C198.582230,33.948418 194.420380,33.914814 190.265350,34.043427 
	C185.284515,34.197594 182.612030,36.685127 182.130219,41.649818 
	C181.841736,44.622543 182.074509,47.651310 181.710098,50.610184 
	C180.635162,59.337883 180.561996,59.302792 171.882217,60.093071 
	C170.236023,60.242954 168.617279,60.694206 166.584396,61.006973 
	C164.121750,61.338516 162.060562,61.669491 159.640930,62.045013 
	C157.520279,64.071388 155.758057,66.053207 153.716049,67.907646 
	C152.617676,66.908569 151.098953,66.034996 151.101318,65.165527 
	C151.111694,61.331993 148.955978,61.842628 146.907684,63.024593 
	C142.112747,65.791527 136.027344,65.954788 132.147018,70.806137 
	C131.311218,71.851097 128.138550,71.026924 126.073975,70.677055 
	C127.403748,65.526764 128.701874,60.763153 130.162994,55.769920 
	C130.550430,55.026272 130.774872,54.512253 131.143173,53.614697 
	C131.191559,49.154404 131.096100,45.077641 131.095917,40.650452 
	C133.228241,38.908825 135.097687,36.994328 137.349350,36.273079 
	C139.617676,35.546494 142.271927,36.096157 144.746338,35.928253 
	C152.657059,35.391449 154.966400,32.935978 154.998260,25.170721 
	C155.007095,23.018625 154.982361,20.866255 155.006424,18.714386 
	C155.086639,11.541236 156.418884,9.611385 163.537216,8.265245 
	C167.981720,7.424753 170.715347,5.213896 172.000000,1.000000 
z"/>
<path fill="#4652BB" opacity="1.000000" stroke="none" 
	d="
M248.468658,170.000000 
	C248.334610,164.528214 248.787292,159.060455 248.973434,153.583618 
	C249.198120,146.973602 250.248093,145.489014 256.785034,144.154007 
	C261.025177,143.288071 265.319153,142.689087 269.578918,141.914963 
	C275.480835,140.842422 276.904602,139.160019 276.996277,133.298233 
	C277.001495,132.965103 276.992920,132.631699 277.000122,132.298630 
	C277.271301,119.806587 274.776184,119.347641 289.432678,115.484283 
	C295.221924,113.958275 300.458282,107.650856 304.369110,102.355659 
	C309.362549,95.594589 315.192139,90.301041 322.670441,86.101135 
	C323.000000,104.020897 323.000000,122.041786 322.658386,140.617706 
	C321.286652,141.683640 320.006287,141.958313 319.265778,142.742645 
	C313.034515,149.343048 306.721771,155.884369 300.868256,162.810867 
	C299.427399,164.515854 299.579956,167.567459 299.000000,170.000000 
	C282.312439,170.000000 265.624878,170.000000 248.468658,170.000000 
z"/>
<path fill="#5846C3" opacity="1.000000" stroke="none" 
	d="
M241.000000,1.000003 
	C258.020905,1.000000 275.041779,1.000000 292.513916,1.378877 
	C291.744720,3.577618 290.841431,6.573636 289.246216,7.003818 
	C283.763611,8.482306 280.519409,11.970303 277.676239,16.525991 
	C276.421844,18.535904 273.856842,19.679504 272.155518,21.471487 
	C270.176392,23.556030 268.466125,25.900072 266.686859,28.168863 
	C265.095154,30.198465 263.938660,33.497364 261.942047,34.104259 
	C256.353516,35.802998 252.840591,39.238945 250.084702,44.076916 
	C249.224167,45.587605 247.681503,47.033699 246.105789,47.753128 
	C241.096146,50.040421 239.332047,54.326981 238.236633,59.199673 
	C237.808990,61.101978 237.248596,62.974442 236.700912,65.040611 
	C234.835526,64.651199 233.400101,64.351540 231.971497,64.043564 
	C231.978317,64.035233 231.961838,64.038879 231.927765,63.750099 
	C230.250641,62.875351 228.592422,61.782513 226.968307,61.831036 
	C224.913391,61.892426 222.886230,62.882652 220.847092,63.472267 
	C222.588257,64.008873 224.329437,64.545471 225.892075,65.364708 
	C223.829147,67.772232 221.944733,69.897125 219.650970,72.023560 
	C213.744995,72.867668 213.426727,73.537827 214.569183,81.133934 
	C210.910629,82.002541 208.585129,81.532982 209.191803,77.124512 
	C209.496597,76.860161 209.650299,76.795311 210.028900,76.831200 
	C213.784714,70.898323 206.769424,71.965591 205.021790,69.174683 
	C205.188248,68.726616 205.508682,68.162071 205.598709,67.562920 
	C205.822327,66.074707 206.449341,64.334732 205.905991,63.163773 
	C205.592545,62.488277 203.323349,62.620049 201.929016,62.580841 
	C200.964722,62.553730 199.991165,62.855297 198.642792,62.968483 
	C196.472198,62.854874 194.086029,62.012836 192.998535,62.852592 
	C189.497940,65.555771 186.635086,64.268303 183.380020,62.545223 
	C184.047897,58.943409 184.610550,55.512947 185.334656,52.116909 
	C186.041504,48.801636 187.932770,46.884945 191.598831,46.991043 
	C195.418365,47.101578 199.348389,47.512886 203.030029,46.783203 
	C205.382492,46.316963 208.952164,44.289814 209.259827,42.496471 
	C210.888092,33.005165 217.859085,27.351421 223.695831,20.939672 
	C227.628967,16.619074 232.451019,13.113060 236.445496,8.840672 
	C238.457413,6.688756 239.512329,3.642077 241.000000,1.000003 
z"/>
<path fill="#673ECA" opacity="1.000000" stroke="none" 
	d="
M1.000000,114.468658 
	C3.709761,111.393379 6.401606,108.767799 9.134317,106.185463 
	C11.868096,103.602127 14.702213,101.121895 17.368864,98.472191 
	C18.373245,97.474182 19.600691,96.191055 19.741676,94.927986 
	C20.189066,90.919914 22.768835,89.297897 25.867140,87.258232 
	C29.919170,84.590729 33.199741,80.735649 36.742767,77.319450 
	C37.927513,76.177116 38.842819,74.760345 39.979149,73.561806 
	C42.898132,70.482994 45.605717,70.409561 48.072701,74.175903 
	C48.690289,75.118782 49.603600,75.867958 50.715420,76.875671 
	C51.049839,77.045181 51.109764,77.101562 50.978348,77.390991 
	C50.583729,78.709015 50.320518,79.737602 49.993748,81.081871 
	C49.882603,81.606873 49.835026,81.816208 49.663071,82.290939 
	C49.340485,83.298653 49.142273,84.040985 48.656731,85.002777 
	C48.017952,86.920258 47.375614,88.616768 47.366837,90.316551 
	C47.333782,96.717537 47.364731,103.125999 47.653393,109.518951 
	C47.843212,113.722816 48.516148,117.904869 48.993317,122.463554 
	C50.458340,126.647865 52.025234,130.452072 49.163452,134.347824 
	C48.911358,134.691010 49.004311,135.323242 49.016235,135.819321 
	C49.143669,141.119247 46.437771,142.727325 41.324863,143.289764 
	C37.497429,143.710831 33.626717,145.906204 30.278946,148.085327 
	C22.408075,153.208618 21.422152,161.554352 21.000000,170.000000 
	C14.371948,170.000000 7.743897,170.000000 1.000000,170.000000 
	C1.000000,151.645920 1.000000,133.291611 1.000000,114.468658 
z"/>
<path fill="#673ECA" opacity="1.000000" stroke="none" 
	d="
M51.019905,77.016968 
	C51.984943,73.237762 53.126705,69.516594 53.898094,65.720184 
	C54.181664,64.324600 54.147797,62.145782 53.300007,61.364353 
	C49.762737,58.103928 51.412746,55.410275 53.829395,52.816887 
	C58.555527,47.745117 62.934658,42.187576 68.327972,37.935238 
	C78.210869,30.143114 85.460594,20.002954 94.064156,11.088720 
	C95.162430,9.950792 96.938148,9.487761 98.123604,8.408459 
	C100.460434,6.280904 102.603363,3.940393 104.913246,1.343980 
	C122.020897,1.000000 139.041794,1.000000 156.445557,1.358999 
	C156.096039,5.767100 153.419830,6.928959 149.612610,7.042450 
	C144.976608,7.180648 140.346497,7.689934 135.727554,8.170507 
	C132.329605,8.524044 130.884872,10.545536 130.980713,13.969115 
	C131.101761,18.293653 131.100174,22.628626 130.951263,26.952202 
	C130.674850,34.978622 128.178192,37.959465 120.432091,40.270721 
	C118.897781,40.728519 117.375389,41.608200 116.151695,42.650478 
	C113.009865,45.326488 110.038940,48.203152 106.666840,51.103149 
	C104.895630,53.476089 103.457268,55.745491 102.153458,58.289635 
	C102.570480,59.108532 102.852959,59.652687 102.995178,60.479389 
	C102.207985,61.589680 101.561035,62.417423 100.694397,63.204468 
	C100.474709,63.163769 100.028137,63.147781 99.865128,62.946609 
	C99.460838,62.498596 99.219559,62.251759 98.580368,61.959053 
	C94.669495,62.233543 91.161896,62.693218 87.641800,62.829174 
	C84.936798,62.933651 82.215698,62.637787 79.502396,62.506653 
	C76.318741,62.352783 73.135788,62.184513 69.583527,61.934441 
	C66.890320,62.000900 64.566124,62.155415 62.241928,62.309921 
	C62.450859,63.761539 62.659790,65.213158 62.874550,66.705261 
	C61.954990,68.054909 60.964722,69.508331 59.604652,70.991821 
	C56.526489,73.048454 53.818127,75.075005 51.109764,77.101562 
	C51.109764,77.101562 51.049839,77.045181 51.019905,77.016968 
z"/>
<path fill="#5946C3" opacity="1.000000" stroke="none" 
	d="
M177.997955,115.997086 
	C173.117355,121.749756 168.231873,127.498291 163.359482,133.257904 
	C162.082123,134.767838 160.816803,136.289841 159.600067,137.848526 
	C158.787689,138.889191 158.309174,140.546143 157.274063,141.001389 
	C148.359985,144.921722 144.672974,154.348633 137.200745,159.857681 
	C134.180130,162.084671 132.493637,166.121246 130.100006,169.667175 
	C112.645775,170.000000 95.291542,170.000000 77.512512,169.641907 
	C79.111290,166.330521 80.871696,163.146027 83.217636,160.475983 
	C87.129463,156.023727 91.421410,151.905899 95.540894,147.635284 
	C96.454826,146.687820 97.271194,145.643677 98.210396,144.723557 
	C105.840034,137.248917 113.645920,129.943192 121.000832,122.208244 
	C122.515518,120.615280 122.368584,117.442345 122.990578,114.664200 
	C122.997665,113.886047 123.001686,113.441353 123.339081,112.960213 
	C125.449532,112.624084 127.226601,112.324387 129.022949,112.399918 
	C129.354446,116.241943 131.812759,118.342941 134.158951,115.855934 
	C137.248856,112.580536 140.111282,112.760078 143.809616,113.342636 
	C146.863113,113.823631 150.037781,113.474182 153.141068,113.717926 
	C156.079269,113.948700 156.934021,112.366112 157.210144,109.869125 
	C157.384018,109.863190 157.731369,109.883743 158.041489,109.831581 
	C158.906357,109.517433 159.461105,109.255447 160.302856,109.173859 
	C163.057175,109.235382 165.524490,109.116524 167.954910,109.361603 
	C167.552246,111.450439 167.186462,113.175346 166.455841,116.620781 
	C169.978256,115.545486 172.473663,114.783707 175.268234,114.103668 
	C176.377579,114.789307 177.187759,115.393196 177.997955,115.997086 
z"/>
<path fill="#524AC1" opacity="1.000000" stroke="none" 
	d="
M323.000000,31.531345 
	C320.605682,33.970089 317.946259,35.696465 315.867889,37.957024 
	C310.167511,44.156975 305.721191,52.171703 298.896973,56.505253 
	C290.785706,61.656109 286.677490,69.848869 279.890106,75.782890 
	C277.734680,77.667328 275.887634,80.397530 274.977509,83.103302 
	C273.425323,87.717880 270.718994,88.576820 266.020416,86.878342 
	C264.960022,86.077148 264.462311,85.553986 263.960632,84.605911 
	C264.238434,80.567795 264.520203,76.954582 264.843750,72.921860 
	C265.825500,67.024124 261.261261,65.523911 257.700989,62.979359 
	C248.610809,58.155869 248.648499,57.286114 255.079880,50.240730 
	C258.326141,46.684536 260.340729,42.029007 263.400970,38.268276 
	C265.148926,36.120213 267.798523,34.646366 270.192871,33.102688 
	C272.087891,31.880932 274.563141,31.393950 276.162567,29.913046 
	C279.557465,26.769772 282.668030,23.291584 285.659943,19.751863 
	C287.332336,17.773281 289.052856,15.564601 289.831146,13.161481 
	C291.155975,9.070846 293.542389,6.965319 297.670410,5.772688 
	C299.734283,5.176410 301.241180,2.652209 303.000000,1.000001 
	C309.608948,1.000000 316.217865,1.000000 323.000000,1.000000 
	C323.000000,11.020366 323.000000,21.041525 323.000000,31.531345 
z"/>
<path fill="#6042C5" opacity="1.000000" stroke="none" 
	d="
M21.468658,170.000000 
	C21.422152,161.554352 22.408075,153.208618 30.278946,148.085327 
	C33.626717,145.906204 37.497429,143.710831 41.324863,143.289764 
	C46.437771,142.727325 49.143669,141.119247 49.016235,135.819321 
	C49.004311,135.323242 48.911358,134.691010 49.163452,134.347824 
	C52.025234,130.452072 50.458340,126.647865 49.395611,122.423111 
	C52.514759,121.332474 55.252186,120.649139 58.313633,119.829529 
	C60.086441,118.444580 61.535233,117.195915 63.453251,115.952866 
	C69.574448,115.958488 75.226410,115.958488 80.878372,115.958488 
	C80.981064,115.458145 81.083755,114.957802 81.186440,114.457458 
	C80.100426,113.612267 79.014404,112.767082 78.175880,111.697334 
	C81.965958,108.296364 85.508530,105.119949 89.365112,101.945000 
	C90.097778,101.951981 90.516418,101.957497 91.275848,102.034576 
	C92.961403,101.613663 95.476593,101.048721 95.451355,100.641075 
	C95.332687,98.724426 94.516556,96.850960 94.073288,94.667892 
	C95.809052,93.199554 97.420876,92.025414 98.989319,91.253128 
	C98.661995,93.483780 98.378059,95.312584 98.093369,97.482605 
	C98.088432,98.510193 98.084251,99.196548 98.101898,100.211975 
	C98.943771,101.628563 99.763824,102.716072 100.721481,104.178116 
	C100.971573,105.604095 101.084061,106.655556 101.199936,108.081345 
	C101.628250,112.545578 104.564453,113.548775 108.257996,114.198616 
	C110.692047,114.952309 112.845024,115.473961 114.888870,116.318100 
	C111.847893,119.005585 109.210175,121.979507 105.906731,123.575150 
	C102.125725,125.401451 100.918472,127.778229 100.935646,131.728226 
	C100.971230,139.913757 100.030220,140.807037 91.728218,140.964828 
	C87.671631,141.041916 84.702972,142.093323 83.340584,146.404144 
	C82.830894,148.016891 81.398643,150.117523 79.968178,150.524887 
	C73.786400,152.285294 73.762848,156.828232 73.880753,161.852539 
	C73.972481,165.761337 71.997444,167.909500 67.770973,168.083481 
	C65.824310,168.163605 63.922272,169.327515 62.000000,170.000000 
	C48.645771,170.000000 35.291542,170.000000 21.468658,170.000000 
M84.840477,112.603622 
	C88.532913,113.696297 92.195900,114.933868 95.955109,115.698059 
	C96.424416,115.793480 98.337524,112.876625 97.982948,112.223747 
	C96.482796,109.461472 86.734871,109.701866 84.840477,112.603622 
z"/>
<path fill="#7436CD" opacity="1.000000" stroke="none" 
	d="
M48.531342,1.000000 
	C49.168873,5.016112 46.720425,6.352800 43.234180,7.094880 
	C36.699421,8.485864 36.058346,9.440605 36.004509,16.170305 
	C35.983307,18.820805 36.039467,21.472544 35.981976,24.122015 
	C35.812691,31.923151 32.896168,34.687187 25.096575,33.769062 
	C23.350103,33.563477 21.672701,31.747744 20.220358,30.397093 
	C19.098309,29.353611 18.377823,27.878332 17.478807,26.595024 
	C15.945460,27.728392 13.515809,28.570730 13.036660,30.046398 
	C11.140360,35.886555 6.632702,36.012749 1.431199,35.999519 
	C1.000000,24.395178 1.000000,12.790357 1.000000,1.000000 
	C16.687073,1.000000 32.374878,1.000000 48.531342,1.000000 
z"/>
<path fill="#5C45C6" opacity="1.000000" stroke="none" 
	d="
M240.583344,1.000003 
	C239.512329,3.642077 238.457413,6.688756 236.445496,8.840672 
	C232.451019,13.113060 227.628967,16.619074 223.695831,20.939672 
	C217.859085,27.351421 210.888092,33.005165 209.259827,42.496471 
	C208.952164,44.289814 205.382492,46.316963 203.030029,46.783203 
	C199.348389,47.512886 195.418365,47.101578 191.598831,46.991043 
	C187.932770,46.884945 186.041504,48.801636 185.334656,52.116909 
	C184.610550,55.512947 184.047897,58.943409 183.380020,62.545223 
	C186.635086,64.268303 189.497940,65.555771 192.998535,62.852592 
	C194.086029,62.012836 196.472198,62.854874 198.489685,63.285458 
	C194.751892,65.151787 190.788269,66.659630 186.609100,68.241653 
	C186.051422,68.601753 185.709274,68.887680 185.037415,69.029739 
	C177.863724,63.886238 177.870941,63.893803 171.774445,69.708427 
	C170.811920,70.626450 169.605469,71.322952 168.779755,72.339523 
	C168.096436,73.180779 167.168228,74.588356 167.449677,75.323402 
	C169.229538,79.971916 171.316208,84.502953 173.276001,89.322510 
	C173.257568,89.739464 173.264709,89.906670 173.015778,90.310593 
	C171.145096,92.380554 169.530472,94.213814 167.843643,95.666405 
	C167.606140,93.487564 167.140717,91.656113 167.335663,89.897896 
	C167.795486,85.750870 165.842789,83.710449 161.928833,82.603287 
	C161.626129,80.617584 161.189545,78.997353 161.250458,77.396042 
	C161.473480,71.533134 160.756714,70.607422 154.893036,69.713730 
	C154.536163,68.980835 154.266006,68.507935 153.995850,68.035034 
	C155.758057,66.053207 157.520279,64.071388 159.692123,62.401134 
	C161.197571,63.696041 162.293381,64.679367 163.389191,65.662704 
	C164.588089,64.110611 165.786972,62.558510 166.985870,61.006409 
	C168.617279,60.694206 170.236023,60.242954 171.882217,60.093071 
	C180.561996,59.302792 180.635162,59.337883 181.710098,50.610184 
	C182.074509,47.651310 181.841736,44.622543 182.130219,41.649818 
	C182.612030,36.685127 185.284515,34.197594 190.265350,34.043427 
	C194.420380,33.914814 198.582230,33.948418 202.740250,33.990391 
	C206.798859,34.031364 208.728195,32.226887 209.036774,28.042273 
	C209.865631,16.802509 218.586105,7.800388 229.872101,5.587069 
	C232.059647,5.158062 233.922852,3.075111 235.967834,1.377545 
	C237.388885,1.000000 238.777786,1.000000 240.583344,1.000003 
z"/>
<path fill="#6440C6" opacity="1.000000" stroke="none" 
	d="
M106.999695,50.999611 
	C110.038940,48.203152 113.009865,45.326488 116.151695,42.650478 
	C117.375389,41.608200 118.897781,40.728519 120.432091,40.270721 
	C128.178192,37.959465 130.674850,34.978622 130.951263,26.952202 
	C131.100174,22.628626 131.101761,18.293653 130.980713,13.969115 
	C130.884872,10.545536 132.329605,8.524044 135.727554,8.170507 
	C140.346497,7.689934 144.976608,7.180648 149.612610,7.042450 
	C153.419830,6.928959 156.096039,5.767100 156.914215,1.358999 
	C161.689255,1.000000 166.378510,1.000000 171.533875,1.000000 
	C170.715347,5.213896 167.981720,7.424753 163.537216,8.265245 
	C156.418884,9.611385 155.086639,11.541236 155.006424,18.714386 
	C154.982361,20.866255 155.007095,23.018625 154.998260,25.170721 
	C154.966400,32.935978 152.657059,35.391449 144.746338,35.928253 
	C142.271927,36.096157 139.617676,35.546494 137.349350,36.273079 
	C135.097687,36.994328 133.228241,38.908825 130.775665,40.807102 
	C124.696045,44.780891 119.031944,48.247593 113.367844,51.714294 
	C113.441574,52.125072 113.515312,52.535851 113.589043,52.946629 
	C116.243164,52.760872 118.917458,52.282978 121.546219,52.464500 
	C124.717438,52.683487 127.850021,53.461941 130.999329,53.998230 
	C130.774872,54.512253 130.550430,55.026272 129.825882,55.639252 
	C123.782578,54.970253 122.113403,56.025047 120.690414,60.850483 
	C117.969398,57.492931 115.638786,54.425240 110.900574,54.353268 
	C109.583603,54.333260 108.299095,52.176224 106.999695,50.999611 
z"/>
<path fill="#4E4CC1" opacity="1.000000" stroke="none" 
	d="
M190.468414,170.000000 
	C190.667511,164.296234 191.622574,158.607910 191.929550,152.884796 
	C192.311172,145.770386 193.471603,143.177734 200.348831,143.176712 
	C210.296585,143.175217 214.646851,135.401810 220.873032,130.280426 
	C223.884674,127.803177 226.460724,124.454132 228.337448,121.011116 
	C232.155350,114.006805 237.395584,112.629959 244.670547,115.827774 
	C239.328339,116.719940 238.029739,120.042831 237.699600,125.530403 
	C236.857193,139.532578 234.018066,141.853897 219.581116,142.957474 
	C211.504944,143.574814 211.135834,144.098846 210.961945,152.277725 
	C210.842285,157.905640 210.361252,163.525879 210.020859,169.574768 
	C203.645599,170.000000 197.291214,170.000000 190.468414,170.000000 
z"/>
<path fill="#5548C5" opacity="1.000000" stroke="none" 
	d="
M302.545898,1.000001 
	C301.241180,2.652209 299.734283,5.176410 297.670410,5.772688 
	C293.542389,6.965319 291.155975,9.070846 289.831146,13.161481 
	C289.052856,15.564601 287.332336,17.773281 285.659943,19.751863 
	C282.668030,23.291584 279.557465,26.769772 276.162567,29.913046 
	C274.563141,31.393950 272.087891,31.880932 270.192871,33.102688 
	C267.798523,34.646366 265.148926,36.120213 263.400970,38.268276 
	C260.340729,42.029007 258.326141,46.684536 255.079880,50.240730 
	C248.648499,57.286114 248.610809,58.155869 257.533539,63.272434 
	C253.411758,67.205040 252.602127,71.943642 253.122116,77.352554 
	C253.036621,77.551079 252.879547,77.955574 252.568100,78.078003 
	C251.459229,79.479820 250.661804,80.759209 249.499390,81.947220 
	C245.750870,82.269745 242.367310,82.683640 238.793060,82.802170 
	C237.390884,79.838966 235.987961,77.238686 235.016556,74.486130 
	C233.812408,71.073990 232.965759,67.535690 231.964691,64.051888 
	C233.400101,64.351540 234.835526,64.651199 236.700912,65.040611 
	C237.248596,62.974442 237.808990,61.101978 238.236633,59.199673 
	C239.332047,54.326981 241.096146,50.040421 246.105789,47.753128 
	C247.681503,47.033699 249.224167,45.587605 250.084702,44.076916 
	C252.840591,39.238945 256.353516,35.802998 261.942047,34.104259 
	C263.938660,33.497364 265.095154,30.198465 266.686859,28.168863 
	C268.466125,25.900072 270.176392,23.556030 272.155518,21.471487 
	C273.856842,19.679504 276.421844,18.535904 277.676239,16.525991 
	C280.519409,11.970303 283.763611,8.482306 289.246216,7.003818 
	C290.841431,6.573636 291.744720,3.577618 292.982574,1.378877 
	C296.030609,1.000000 299.061188,1.000000 302.545898,1.000001 
M247.767502,61.367569 
	C245.458572,58.056873 243.577545,58.639000 241.913940,62.790417 
	C241.337387,65.702454 240.514114,68.596901 240.304581,71.535110 
	C240.219681,72.725517 241.473007,74.011368 242.117371,75.253784 
	C243.236145,74.492386 245.022949,73.947670 245.352905,72.930405 
	C246.505768,69.376106 247.155441,65.658585 247.767502,61.367569 
z"/>
<path fill="#5F43C3" opacity="1.000000" stroke="none" 
	d="
M62.466118,170.000000 
	C63.922272,169.327515 65.824310,168.163605 67.770973,168.083481 
	C71.997444,167.909500 73.972481,165.761337 73.880753,161.852539 
	C73.762848,156.828232 73.786400,152.285294 79.968178,150.524887 
	C81.398643,150.117523 82.830894,148.016891 83.340584,146.404144 
	C84.702972,142.093323 87.671631,141.041916 91.728218,140.964828 
	C100.030220,140.807037 100.971230,139.913757 100.935646,131.728226 
	C100.918472,127.778229 102.125725,125.401451 105.906731,123.575150 
	C109.210175,121.979507 111.847893,119.005585 115.044777,116.143433 
	C115.523300,115.417976 115.748276,115.201645 116.324715,115.130127 
	C118.772285,115.174545 120.879906,115.086090 122.987518,114.997643 
	C122.368584,117.442345 122.515518,120.615280 121.000832,122.208244 
	C113.645920,129.943192 105.840034,137.248917 98.210396,144.723557 
	C97.271194,145.643677 96.454826,146.687820 95.540894,147.635284 
	C91.421410,151.905899 87.129463,156.023727 83.217636,160.475983 
	C80.871696,163.146027 79.111290,166.330521 77.043854,169.641907 
	C72.310745,170.000000 67.621490,170.000000 62.466118,170.000000 
z"/>
<path fill="#4054BA" opacity="1.000000" stroke="none" 
	d="
M299.468689,170.000000 
	C299.579956,167.567459 299.427399,164.515854 300.868256,162.810867 
	C306.721771,155.884369 313.034515,149.343048 319.265778,142.742645 
	C320.006287,141.958313 321.286652,141.683640 322.658386,141.086365 
	C323.000000,150.586136 323.000000,160.172272 323.000000,170.000000 
	C315.314148,170.000000 307.625763,170.000000 299.468689,170.000000 
z"/>
<path fill="#6B66B9" opacity="1.000000" stroke="none" 
	d="
M263.964600,85.030823 
	C264.462311,85.553986 264.960022,86.077148 265.634766,86.798386 
	C265.548828,87.747452 265.285828,88.498436 264.660522,89.705856 
	C262.824615,93.065460 261.351013,95.968643 259.546631,98.913170 
	C258.142120,99.257729 257.068390,99.560944 255.701691,99.740463 
	C253.971573,100.406647 252.534424,101.196533 250.898254,102.125595 
	C250.455307,102.478752 250.244492,102.721497 250.075439,103.345253 
	C250.643631,105.416603 251.203186,107.135696 251.464676,108.910126 
	C250.423904,109.589661 249.681183,110.213844 248.938477,110.838036 
	C246.408783,110.981781 243.804749,111.538101 241.379730,111.101044 
	C240.103317,110.871002 239.139771,108.905067 238.166718,107.128624 
	C238.185196,105.688522 238.071884,104.842758 237.958588,103.996986 
	C237.944458,103.547264 237.930359,103.097549 238.204208,102.310677 
	C238.685501,101.977013 238.878830,101.980492 239.213028,102.328720 
	C239.580765,105.742699 239.834122,108.926331 244.024155,108.839493 
	C248.340530,108.750046 247.871109,105.332314 248.370377,102.413033 
	C248.727341,100.325752 249.279266,97.810432 250.680145,96.449692 
	C254.860947,92.388756 259.502808,88.802483 263.964600,85.030823 
z"/>
<path fill="#514CC5" opacity="1.000000" stroke="none" 
	d="
M259.877411,98.871826 
	C261.351013,95.968643 262.824615,93.065460 264.598999,89.999649 
	C265.914398,94.734703 266.849060,99.624527 263.346924,104.912109 
	C262.487427,103.052559 261.910767,101.804932 260.986938,100.071182 
	C260.385651,99.347321 260.131531,99.109566 259.877411,98.871826 
z"/>
<path fill="#5148D3" opacity="1.000000" stroke="none" 
	d="
M251.762741,108.854790 
	C251.203186,107.135696 250.643631,105.416603 250.254654,103.186890 
	C250.657272,102.454163 250.881287,102.224213 251.097260,101.986427 
	C252.534424,101.196533 253.971573,100.406647 255.703217,100.173141 
	C256.002167,102.152527 256.006653,103.575539 256.011139,104.998550 
	C255.484329,106.168816 254.957520,107.339081 253.843826,108.740448 
	C252.758881,108.932632 252.260818,108.893707 251.762741,108.854790 
z"/>
<path fill="#4E4CC1" opacity="1.000000" stroke="none" 
	d="
M251.464676,108.910126 
	C252.260818,108.893707 252.758881,108.932632 253.629272,108.988312 
	C251.840378,111.402565 249.679199,113.800072 247.258087,116.098618 
	C247.604874,114.511818 248.211563,113.023972 248.878357,111.187080 
	C249.681183,110.213844 250.423904,109.589661 251.464676,108.910126 
z"/>
<path fill="#524AC1" opacity="1.000000" stroke="none" 
	d="
M256.295349,104.849655 
	C256.006653,103.575539 256.002167,102.152527 255.996155,100.296844 
	C257.068390,99.560944 258.142120,99.257729 259.546631,98.913162 
	C260.131531,99.109566 260.385651,99.347321 260.818237,99.772217 
	C259.524353,101.539825 258.051971,103.120293 256.295349,104.849655 
z"/>
<path fill="#6158AF" opacity="1.000000" stroke="none" 
	d="
M239.072174,101.983978 
	C238.878830,101.980492 238.685501,101.977013 238.201355,101.973221 
	C236.321960,100.662910 234.763397,99.314270 233.137802,98.051903 
	C230.648788,96.118996 228.113602,94.245552 225.227509,91.806641 
	C223.261658,90.160629 221.666306,89.054855 220.063293,87.557144 
	C220.050034,86.116219 220.044449,85.067230 220.063416,83.619247 
	C220.078766,79.487503 220.069550,75.754761 220.060333,72.022011 
	C221.944733,69.897125 223.829147,67.772232 226.265900,65.342209 
	C228.532776,64.704338 230.247314,64.371613 231.961838,64.038879 
	C231.961838,64.038879 231.978317,64.035233 231.971497,64.043564 
	C232.965759,67.535690 233.812408,71.073990 235.016556,74.486130 
	C235.987961,77.238686 237.390884,79.838966 238.741592,83.133057 
	C238.493118,84.559998 238.105408,85.360703 237.390320,86.052612 
	C235.644485,82.590164 233.809509,79.341072 232.933365,75.851257 
	C232.169098,72.807091 232.103012,69.650223 227.965088,69.766022 
	C223.773529,69.883308 223.443298,73.163055 223.497330,76.208855 
	C223.646881,84.638199 226.870972,91.391663 234.823959,95.169235 
	C237.794357,96.580139 239.997696,98.248604 239.072174,101.983978 
z"/>
<path fill="#5F56AF" opacity="1.000000" stroke="none" 
	d="
M205.153030,107.175209 
	C201.688980,111.737701 195.682022,113.580833 190.315826,112.164856 
	C187.199005,111.342407 183.912628,111.162521 180.243713,110.563103 
	C178.204346,108.256050 176.623825,106.079399 174.929626,103.573723 
	C173.563766,100.260071 169.935593,97.559784 173.964432,94.227142 
	C176.389725,97.712311 178.059265,101.473274 180.821564,104.073257 
	C187.956741,110.789131 196.295639,110.156158 204.858643,106.827385 
	C204.957336,106.942848 205.153030,107.175209 205.153030,107.175209 
z"/>
<path fill="#5F56AF" opacity="1.000000" stroke="none" 
	d="
M218.918854,96.914856 
	C216.447815,99.449265 214.140427,102.178856 211.441742,104.441780 
	C209.925568,105.713120 207.762833,106.213371 205.522217,107.118118 
	C205.153030,107.175209 204.957336,106.942848 205.025833,106.540771 
	C206.473846,104.934807 208.169937,103.948174 209.173279,102.486122 
	C212.132187,98.174477 216.789902,94.320305 214.184448,87.882133 
	C214.894653,87.458275 215.388702,87.209297 215.933350,86.993851 
	C215.983963,87.027374 216.079834,87.096703 216.253235,87.316261 
	C217.202316,88.007675 217.977997,88.479523 218.775848,89.396080 
	C218.838303,92.198807 218.878571,94.556831 218.918854,96.914856 
z"/>
<path fill="#5848CA" opacity="1.000000" stroke="none" 
	d="
M175.043289,103.902756 
	C176.623825,106.079399 178.204346,108.256050 179.904419,110.684418 
	C179.959396,112.721001 183.319656,115.444603 178.321625,115.981506 
	C177.187759,115.393196 176.377579,114.789307 175.061340,114.003609 
	C172.615433,110.412010 171.336838,107.034752 175.043289,103.902756 
z"/>
<path fill="#5546CE" opacity="1.000000" stroke="none" 
	d="
M219.087250,97.211105 
	C218.878571,94.556831 218.838303,92.198807 218.835251,89.165176 
	C218.872482,88.489578 218.952805,88.018837 219.232513,88.004227 
	C219.698471,87.976097 219.884720,87.962585 220.070953,87.949081 
	C221.666306,89.054855 223.261658,90.160629 224.968262,91.585762 
	C225.171509,92.727180 225.418274,93.567825 225.322311,94.367325 
	C225.139252,95.892349 224.760773,97.393913 224.463409,98.905212 
	C222.727493,98.439255 220.991592,97.973305 219.087250,97.211105 
z"/>
<path fill="#6158AF" opacity="1.000000" stroke="none" 
	d="
M237.849915,104.232391 
	C238.071884,104.842758 238.185196,105.688522 238.161011,106.768402 
	C237.929428,106.157616 237.835342,105.312706 237.849915,104.232391 
z"/>
<path fill="#6750B8" opacity="1.000000" stroke="none" 
	d="
M153.716049,67.907646 
	C154.266006,68.507935 154.536163,68.980835 154.452026,69.853622 
	C153.802689,70.343719 153.507614,70.433929 152.827148,70.485229 
	C135.967056,65.229080 123.910454,78.312943 124.400238,92.188980 
	C124.825829,93.165131 125.180443,93.852707 125.571945,94.681816 
	C125.608841,94.823357 125.808434,95.037224 125.810837,95.338120 
	C126.005890,95.985443 126.198532,96.331871 126.454811,97.010132 
	C127.530128,98.824516 128.541809,100.307053 129.544479,101.909332 
	C129.535461,102.029083 129.714066,102.189667 129.803116,102.491409 
	C130.570282,103.245483 131.248413,103.697815 132.049316,104.382874 
	C132.336304,104.922684 132.500519,105.229759 132.235809,105.612236 
	C126.403679,107.204529 124.867790,101.436073 121.063553,99.561218 
	C121.109879,95.387825 120.926163,91.610062 121.247040,87.875648 
	C121.434105,85.698456 122.356773,83.565773 123.084274,81.459976 
	C123.610619,79.936447 124.360229,78.490067 125.097580,76.641190 
	C125.470695,74.536644 125.756508,72.800186 126.042328,71.063736 
	C128.138550,71.026924 131.311218,71.851097 132.147018,70.806137 
	C136.027344,65.954788 142.112747,65.791527 146.907684,63.024593 
	C148.955978,61.842628 151.111694,61.331993 151.101318,65.165527 
	C151.098953,66.034996 152.617676,66.908569 153.716049,67.907646 
z"/>
<path fill="#6241C4" opacity="1.000000" stroke="none" 
	d="
M131.143173,53.614697 
	C127.850021,53.461941 124.717438,52.683487 121.546219,52.464500 
	C118.917458,52.282978 116.243164,52.760872 113.589043,52.946629 
	C113.515312,52.535851 113.441574,52.125072 113.367844,51.714294 
	C119.031944,48.247593 124.696045,44.780891 130.680405,41.157532 
	C131.096100,45.077641 131.191559,49.154404 131.143173,53.614697 
z"/>
<path fill="#6240CC" opacity="1.000000" stroke="none" 
	d="
M126.073975,70.677055 
	C125.756508,72.800186 125.470695,74.536644 124.714470,76.604828 
	C120.597076,76.442970 121.172646,73.813904 121.223427,71.267746 
	C121.291634,67.848106 121.086548,64.423019 120.998779,61.000271 
	C122.113403,56.025047 123.782578,54.970253 129.662903,55.868877 
	C128.701874,60.763153 127.403748,65.526764 126.073975,70.677055 
z"/>
<path fill="#5B45BA" opacity="1.000000" stroke="none" 
	d="
M166.584396,61.006973 
	C165.786972,62.558510 164.588089,64.110611 163.389191,65.662704 
	C162.293381,64.679367 161.197571,63.696041 160.050568,62.356590 
	C162.060562,61.669491 164.121750,61.338516 166.584396,61.006973 
z"/>
<path fill="#EDECFA" opacity="1.000000" stroke="none" 
	d="
M213.968292,88.057007 
	C216.789902,94.320305 212.132187,98.174477 209.173279,102.486122 
	C208.169937,103.948174 206.473846,104.934807 204.927139,106.425308 
	C196.295639,110.156158 187.956741,110.789131 180.821564,104.073257 
	C178.059265,101.473274 176.389725,97.712311 173.992783,93.828354 
	C173.642624,92.119133 173.522049,91.061813 173.486694,89.774643 
	C173.571945,89.544800 173.462784,89.065948 173.575897,88.663559 
	C174.512283,81.890594 177.058746,76.573807 182.586227,72.856262 
	C183.792953,72.044685 184.454483,70.422485 185.367111,69.173615 
	C185.709274,68.887680 186.051422,68.601753 186.682053,68.626404 
	C187.958298,69.252998 189.043335,70.009590 189.918716,69.816368 
	C198.009201,68.030510 204.373703,70.985512 209.803986,76.730461 
	C209.650299,76.795311 209.496597,76.860161 208.937363,77.334885 
	C205.847031,81.334450 202.854263,81.654213 198.719238,79.747108 
	C196.390808,78.673218 193.210800,79.445702 190.377243,79.378586 
	C190.340057,79.370750 190.323364,79.444901 190.071136,79.504868 
	C189.540131,79.767937 189.261353,79.971024 188.653870,80.182770 
	C187.399292,81.070694 186.473434,81.949966 185.383606,82.950806 
	C185.027939,83.283455 184.926712,83.531456 184.601883,84.035866 
	C182.473831,88.762413 182.256699,93.542885 186.228928,96.541336 
	C188.940674,98.588310 193.019745,99.405792 196.541550,99.563210 
	C198.427979,99.647530 200.428757,97.173187 202.377930,95.853500 
	C200.615479,95.014534 198.852448,94.176804 197.091171,93.335403 
	C196.794434,93.193649 196.505280,93.036102 196.103317,92.655243 
	C195.720398,92.230850 195.446793,92.037079 195.142456,91.446747 
	C194.688461,87.149414 196.244476,85.150375 200.361542,85.320404 
	C203.477493,85.449089 206.640915,85.061920 209.707962,85.469963 
	C211.216110,85.670609 212.553589,87.154068 213.968292,88.057007 
M193.668869,72.747322 
	C191.545547,72.903458 189.375519,72.853409 187.322220,73.318596 
	C186.516479,73.501144 185.972107,74.837425 185.308716,75.648277 
	C185.987869,76.187759 186.775864,77.285004 187.328705,77.177132 
	C191.207870,76.420288 195.038528,75.414833 198.884705,74.488884 
	C198.868835,74.064819 198.852966,73.640747 198.837097,73.216675 
	C197.371017,73.023956 195.904953,72.831238 193.668869,72.747322 
z"/>
<path fill="#6558B3" opacity="1.000000" stroke="none" 
	d="
M214.184448,87.882133 
	C212.553589,87.154068 211.216110,85.670609 209.707962,85.469963 
	C206.640915,85.061920 203.477493,85.449089 200.361542,85.320404 
	C196.244476,85.150375 194.688461,87.149414 194.823883,91.410690 
	C190.931458,89.042885 192.749023,86.372154 194.959351,84.179665 
	C197.451996,81.707153 196.571960,80.671219 193.775970,79.976166 
	C192.674637,79.702385 191.536057,79.578545 190.414429,79.386421 
	C193.210800,79.445702 196.390808,78.673218 198.719238,79.747108 
	C202.854263,81.654213 205.847031,81.334450 208.786285,77.534378 
	C208.585129,81.532982 210.910629,82.002541 214.572174,81.362427 
	C214.937164,81.558418 214.953201,82.017403 215.031464,82.370224 
	C215.367401,84.135475 215.625076,85.547897 215.882751,86.960320 
	C215.388702,87.209297 214.894653,87.458275 214.184448,87.882133 
z"/>
<path fill="#6253BB" opacity="1.000000" stroke="none" 
	d="
M210.028900,76.831200 
	C204.373703,70.985512 198.009201,68.030510 189.918716,69.816368 
	C189.043335,70.009590 187.958298,69.252998 186.897583,68.552231 
	C190.788269,66.659630 194.751892,65.151787 198.868652,63.326973 
	C199.991165,62.855297 200.964722,62.553730 201.929016,62.580841 
	C203.323349,62.620049 205.592545,62.488277 205.905991,63.163773 
	C206.449341,64.334732 205.822327,66.074707 205.598709,67.562920 
	C205.508682,68.162071 205.188248,68.726616 205.021790,69.174683 
	C206.769424,71.965591 213.784714,70.898323 210.028900,76.831200 
z"/>
<path fill="#5846CE" opacity="1.000000" stroke="none" 
	d="
M214.953201,82.017403 
	C214.953201,82.017403 214.937164,81.558418 214.934174,81.329926 
	C213.426727,73.537827 213.744995,72.867668 219.650970,72.023560 
	C220.069550,75.754761 220.078766,79.487503 219.744919,83.488968 
	C217.918976,83.177597 216.436096,82.597496 214.953201,82.017403 
z"/>
<path fill="#5A48CD" opacity="1.000000" stroke="none" 
	d="
M231.927765,63.750099 
	C230.247314,64.371613 228.532776,64.704338 226.444427,65.059570 
	C224.329437,64.545471 222.588257,64.008873 220.847092,63.472267 
	C222.886230,62.882652 224.913391,61.892426 226.968307,61.831036 
	C228.592422,61.782513 230.250641,62.875351 231.927765,63.750099 
z"/>
<path fill="#5E3EB0" opacity="1.000000" stroke="none" 
	d="
M57.989613,119.965805 
	C55.252186,120.649139 52.514759,121.332474 49.375038,122.056252 
	C48.516148,117.904869 47.843212,113.722816 47.653393,109.518951 
	C47.364731,103.125999 47.333782,96.717537 47.366837,90.316551 
	C47.375614,88.616768 48.017952,86.920258 48.714363,85.351807 
	C49.396706,86.324615 49.734074,87.167870 50.137062,88.475250 
	C50.165356,97.618103 50.128029,106.296829 49.947842,115.226669 
	C49.924015,118.153259 50.505264,120.284164 54.305878,118.974602 
	C55.083393,118.976898 55.527451,119.019493 56.192104,119.234718 
	C56.938339,119.593498 57.463978,119.779655 57.989613,119.965805 
z"/>
<path fill="#7559BC" opacity="1.000000" stroke="none" 
	d="
M50.071442,88.011124 
	C49.734074,87.167870 49.396706,86.324615 49.001698,85.132339 
	C49.142273,84.040985 49.340485,83.298653 49.794319,82.169556 
	C50.052399,81.443924 50.054859,81.105057 50.057316,80.766197 
	C50.320518,79.737602 50.583729,78.709015 50.978348,77.390991 
	C53.818127,75.075005 56.526489,73.048454 59.637203,71.326874 
	C60.051815,71.855698 60.064075,72.079544 59.912895,72.584793 
	C53.923603,76.253143 51.994179,82.129997 50.071442,88.011124 
z"/>
<path fill="#5E3EB0" opacity="1.000000" stroke="none" 
	d="
M49.993752,81.081871 
	C50.054859,81.105057 50.052399,81.443924 49.918694,81.904160 
	C49.835026,81.816208 49.882603,81.606873 49.993752,81.081871 
z"/>
<path fill="#6241C4" opacity="1.000000" stroke="none" 
	d="
M120.690414,60.850483 
	C121.086548,64.423019 121.291634,67.848106 121.223427,71.267746 
	C121.172646,73.813904 120.597076,76.442970 124.627167,76.972916 
	C124.360229,78.490067 123.610619,79.936447 123.084274,81.459976 
	C122.356773,83.565773 121.434105,85.698456 121.247040,87.875648 
	C120.926163,91.610062 121.109879,95.387825 120.750717,99.379898 
	C119.609619,96.061668 118.435234,92.545380 118.095276,88.950188 
	C117.775848,85.572289 117.005898,83.196709 113.134262,82.625244 
	C112.738129,79.474213 112.374329,76.741676 112.011139,73.595215 
	C112.286690,71.402023 112.853500,69.609154 112.771233,67.846565 
	C112.632233,64.868317 113.054672,61.139492 111.465370,59.132149 
	C109.362038,56.475559 105.478355,55.914730 102.018913,58.014893 
	C103.457268,55.745491 104.895630,53.476089 106.666840,51.103149 
	C108.299095,52.176224 109.583603,54.333260 110.900574,54.353268 
	C115.638786,54.425240 117.969398,57.492931 120.690414,60.850483 
z"/>
<path fill="#6440CD" opacity="1.000000" stroke="none" 
	d="
M69.952530,62.022491 
	C73.135788,62.184513 76.318741,62.352783 79.502396,62.506653 
	C82.215698,62.637787 84.936798,62.933651 87.641800,62.829174 
	C91.161896,62.693218 94.669495,62.233543 98.478760,62.241737 
	C98.450661,63.846912 98.522392,65.499565 97.731186,66.333061 
	C94.789299,69.432182 94.048157,72.501938 95.718903,76.659538 
	C96.597191,78.845139 96.865929,82.149773 92.893997,82.621933 
	C90.688072,77.280388 89.127029,71.844742 82.707436,69.852737 
	C78.955101,68.713829 75.480347,67.812515 71.984009,66.571907 
	C71.303986,65.152222 70.645531,64.071831 69.978249,62.749207 
	C69.969414,62.506981 69.952530,62.022491 69.952530,62.022491 
z"/>
<path fill="#6341BA" opacity="1.000000" stroke="none" 
	d="
M93.003059,82.958397 
	C96.865929,82.149773 96.597191,78.845139 95.718903,76.659538 
	C94.048157,72.501938 94.789299,69.432182 97.731186,66.333061 
	C98.522392,65.499565 98.450661,63.846912 98.876663,62.287605 
	C99.219559,62.251759 99.460838,62.498596 99.888397,63.228127 
	C100.352226,64.381554 100.629784,65.052299 101.115166,65.951523 
	C101.614624,66.719627 101.906250,67.259254 102.049225,68.134949 
	C101.269066,70.318489 100.637558,72.165947 99.764053,74.190849 
	C99.330208,77.923592 99.138359,81.478889 98.568970,85.028862 
	C96.461975,84.335152 94.732521,83.646774 93.003059,82.958397 
z"/>
<path fill="#E5D6FB" opacity="1.000000" stroke="none" 
	d="
M102.197876,67.798874 
	C101.906250,67.259254 101.614624,66.719627 101.178619,65.649536 
	C100.994186,64.494431 100.954140,63.869801 100.914085,63.245171 
	C101.561035,62.417423 102.207985,61.589680 103.317780,60.459602 
	C109.871552,59.731491 111.756805,62.070438 109.356674,67.648422 
	C106.766502,67.827759 104.482193,67.813316 102.197876,67.798874 
z"/>
<path fill="#6A4ABE" opacity="1.000000" stroke="none" 
	d="
M69.583527,61.934441 
	C69.952530,62.022491 69.969414,62.506981 69.977005,63.143917 
	C69.974648,64.828522 69.964699,65.876190 69.759369,67.021370 
	C69.390602,67.760910 69.217224,68.402939 68.751350,69.273239 
	C65.664688,70.435463 62.870510,71.369423 60.076332,72.303383 
	C60.064075,72.079544 60.051815,71.855698 60.007004,71.296799 
	C60.964722,69.508331 61.954990,68.054909 62.874550,66.705261 
	C62.659790,65.213158 62.450859,63.761539 62.241928,62.309921 
	C64.566124,62.155415 66.890320,62.000900 69.583527,61.934441 
z"/>
<path fill="#6245B8" opacity="1.000000" stroke="none" 
	d="
M109.662537,67.454651 
	C111.756805,62.070438 109.871552,59.731491 103.458031,60.177055 
	C102.852959,59.652687 102.570480,59.108532 102.153458,58.289635 
	C105.478355,55.914730 109.362038,56.475559 111.465370,59.132149 
	C113.054672,61.139492 112.632233,64.868317 112.771233,67.846565 
	C112.853500,69.609154 112.286690,71.402023 111.617973,73.598587 
	C110.962212,74.010384 110.700233,74.004875 110.262375,74.008888 
	C109.855553,73.911537 109.713341,73.733734 109.700684,72.983292 
	C109.715195,70.805931 109.688866,69.130295 109.662537,67.454651 
z"/>
<path fill="#7A64BA" opacity="1.000000" stroke="none" 
	d="
M100.694397,63.204468 
	C100.954140,63.869801 100.994186,64.494431 100.970779,65.421051 
	C100.629784,65.052299 100.352226,64.381554 100.051407,63.429298 
	C100.028137,63.147781 100.474709,63.163769 100.694397,63.204468 
z"/>
<path fill="#5F42CD" opacity="1.000000" stroke="none" 
	d="
M113.166603,83.043739 
	C117.005898,83.196709 117.775848,85.572289 118.095276,88.950188 
	C118.435234,92.545380 119.609619,96.061668 120.732529,99.793724 
	C124.867790,101.436073 126.403679,107.204529 132.399155,105.609680 
	C132.991425,105.531731 133.226105,105.758400 133.200851,106.108582 
	C133.152084,106.924774 133.128586,107.390770 133.042755,108.218658 
	C131.654846,109.728592 130.329254,110.876640 129.003677,112.024689 
	C127.226601,112.324387 125.449532,112.624084 123.212517,112.670868 
	C122.496880,111.617348 122.241180,110.816734 121.888199,109.689842 
	C120.465263,108.441566 119.139610,107.519562 117.813950,106.597557 
	C117.207886,108.064926 116.601814,109.532295 115.995682,111.399467 
	C115.992004,112.865265 115.988380,113.931267 115.984756,114.997261 
	C115.748276,115.201645 115.523300,115.417976 115.153915,115.820938 
	C112.845024,115.473961 110.692047,114.952309 108.459435,113.939049 
	C110.196205,111.279861 112.012604,109.112282 113.814514,106.531990 
	C113.588890,98.427429 113.377747,90.735588 113.166603,83.043739 
z"/>
<path fill="#5848B8" opacity="1.000000" stroke="none" 
	d="
M173.401459,90.004494 
	C173.522049,91.061813 173.642624,92.119133 173.734848,93.575241 
	C169.935593,97.559784 173.563766,100.260071 174.929626,103.573730 
	C171.336838,107.034752 172.615433,110.412010 174.762177,113.921860 
	C172.473663,114.783707 169.978256,115.545486 166.455841,116.620781 
	C167.186462,113.175346 167.552246,111.450439 167.859467,109.029251 
	C166.460403,106.548653 165.119888,104.764343 163.779114,102.567131 
	C163.968399,100.792870 164.157944,99.431503 164.640106,98.014603 
	C165.927109,97.321724 166.921478,96.684402 167.915848,96.047073 
	C169.530472,94.213814 171.145096,92.380554 173.052353,90.301987 
	C173.344986,90.056686 173.401459,90.004494 173.401459,90.004494 
z"/>
<path fill="#5848B8" opacity="1.000000" stroke="none" 
	d="
M129.022949,112.399918 
	C130.329254,110.876640 131.654846,109.728592 133.396210,108.313156 
	C138.763489,108.939186 143.687439,110.090797 148.677460,110.623337 
	C151.406036,110.914543 154.246353,110.158722 157.036270,109.875061 
	C156.934021,112.366112 156.079269,113.948700 153.141068,113.717926 
	C150.037781,113.474182 146.863113,113.823631 143.809616,113.342636 
	C140.111282,112.760078 137.248856,112.580536 134.158951,115.855934 
	C131.812759,118.342941 129.354446,116.241943 129.022949,112.399918 
z"/>
<path fill="#7368B3" opacity="1.000000" stroke="none" 
	d="
M157.210144,109.869125 
	C154.246353,110.158722 151.406036,110.914543 148.677460,110.623337 
	C143.687439,110.090797 138.763489,108.939186 133.458527,107.951263 
	C133.128586,107.390770 133.152084,106.924774 133.558777,106.157669 
	C136.844208,106.890816 139.681107,108.522606 142.660828,108.848434 
	C151.977875,109.867210 158.667618,105.355370 163.801697,97.857758 
	C163.988480,97.915382 164.347473,98.070145 164.347473,98.070145 
	C164.157944,99.431503 163.968399,100.792870 163.663773,102.724091 
	C163.383423,103.497902 163.224243,103.706497 162.764175,104.027061 
	C161.961441,104.803436 161.465698,105.472488 160.820587,106.333618 
	C160.417419,106.940430 160.163589,107.355171 159.638672,107.919662 
	C158.822174,108.674187 158.276764,109.278961 157.731369,109.883743 
	C157.731369,109.883743 157.384018,109.863190 157.210144,109.869125 
z"/>
<path fill="#5947CD" opacity="1.000000" stroke="none" 
	d="
M163.071167,103.919739 
	C163.224243,103.706497 163.383423,103.497902 163.664032,103.136993 
	C165.119888,104.764343 166.460403,106.548653 167.896347,108.665321 
	C165.524490,109.116524 163.057175,109.235382 160.278625,108.867790 
	C159.948181,108.177536 159.928986,107.973724 159.909775,107.769920 
	C160.163589,107.355171 160.417419,106.940430 161.092957,106.175598 
	C162.033524,105.190254 162.552353,104.555000 163.071167,103.919739 
z"/>
<path fill="#5F45B6" opacity="1.000000" stroke="none" 
	d="
M116.324715,115.130127 
	C115.988380,113.931267 115.992004,112.865265 116.235031,111.200745 
	C118.311447,110.406845 120.148468,110.211479 121.985489,110.016113 
	C122.241180,110.816734 122.496880,111.617348 122.879143,112.707306 
	C123.001686,113.441353 122.997665,113.886047 122.990585,114.664200 
	C120.879906,115.086090 118.772285,115.174545 116.324715,115.130127 
z"/>
<path fill="#5848B8" opacity="1.000000" stroke="none" 
	d="
M159.638672,107.919662 
	C159.928986,107.973724 159.948181,108.177536 159.991608,108.687408 
	C159.461105,109.255447 158.906357,109.517433 158.041489,109.831581 
	C158.276764,109.278961 158.822174,108.674187 159.638672,107.919662 
z"/>
<path fill="#ECECFB" opacity="1.000000" stroke="none" 
	d="
M239.213028,102.328720 
	C239.997696,98.248604 237.794357,96.580139 234.823959,95.169235 
	C226.870972,91.391663 223.646881,84.638199 223.497330,76.208855 
	C223.443298,73.163055 223.773529,69.883308 227.965088,69.766022 
	C232.103012,69.650223 232.169098,72.807091 232.933365,75.851257 
	C233.809509,79.341072 235.644485,82.590164 237.607910,86.318024 
	C239.448792,87.107574 240.744690,87.522934 242.276337,88.060684 
	C242.686295,88.151314 242.860519,88.119553 243.361267,88.189003 
	C244.123993,88.189613 244.560196,88.089012 245.360184,88.020828 
	C247.507843,87.071404 249.291733,86.089546 251.407135,84.997681 
	C252.771149,82.256630 253.803619,79.625595 254.921432,76.595917 
	C256.175293,74.077118 256.835754,71.081032 258.630310,70.040016 
	C261.391968,68.438011 263.346252,71.023163 264.801971,73.341370 
	C264.520203,76.954582 264.238434,80.567795 263.960632,84.605911 
	C259.502808,88.802483 254.860947,92.388756 250.680145,96.449692 
	C249.279266,97.810432 248.727341,100.325752 248.370377,102.413033 
	C247.871109,105.332314 248.340530,108.750046 244.024155,108.839493 
	C239.834122,108.926331 239.580765,105.742699 239.213028,102.328720 
M246.636032,101.643867 
	C246.738708,100.835152 247.145554,99.904068 246.879837,99.243546 
	C246.349213,97.924614 245.449722,96.754059 244.702576,95.522240 
	C243.892685,97.254845 242.417084,98.997925 242.444153,100.717354 
	C242.476791,102.791046 243.873596,104.616241 246.636032,101.643867 
z"/>
<path fill="#5F56AC" opacity="1.000000" stroke="none" 
	d="
M264.843750,72.921860 
	C263.346252,71.023163 261.391968,68.438011 258.630310,70.040016 
	C256.835754,71.081032 256.175293,74.077118 254.648376,76.613289 
	C253.929184,77.070869 253.568405,77.112450 253.207611,77.154022 
	C252.602127,71.943642 253.411758,67.205040 257.883301,63.338371 
	C261.261261,65.523911 265.825500,67.024124 264.843750,72.921860 
z"/>
<path fill="#EDE6FD" opacity="1.000000" stroke="none" 
	d="
M109.659843,73.485001 
	C109.713341,73.733734 109.855553,73.911537 110.319771,74.473709 
	C110.687363,84.391632 110.821671,93.854256 110.786163,103.608704 
	C110.278450,105.217819 109.940559,106.535110 109.323814,108.051010 
	C106.193916,111.466438 103.691872,109.635361 101.196548,107.707008 
	C101.084061,106.655556 100.971573,105.604095 100.831673,103.822800 
	C100.772530,102.090698 100.740799,101.088440 100.825165,99.696297 
	C100.857590,98.506630 100.773926,97.706848 100.749756,96.492737 
	C100.778046,94.406677 100.746857,92.734962 100.838402,90.674026 
	C100.873611,89.218712 100.786079,88.152618 100.756653,86.723412 
	C100.870743,82.578308 100.926727,78.796318 101.284012,74.842728 
	C103.917061,71.826744 106.592087,71.319107 109.659843,73.485001 
z"/>
<path fill="#6952B6" opacity="1.000000" stroke="none" 
	d="
M92.893997,82.621933 
	C94.732521,83.646774 96.461975,84.335152 98.588699,85.370163 
	C99.300400,86.790283 99.614838,87.863762 99.955093,89.283218 
	C99.984192,90.091515 99.987465,90.553841 99.751793,90.971664 
	C99.512848,90.927170 99.032707,90.851280 99.032700,90.851273 
	C97.420876,92.025414 95.809052,93.199554 93.818619,94.900970 
	C92.605026,97.606499 91.770042,99.784760 90.935066,101.963013 
	C90.516418,101.957497 90.097778,101.951981 89.243332,101.565247 
	C88.728699,100.929733 88.649857,100.675430 88.682678,100.071732 
	C92.151337,93.247955 92.438263,86.563873 88.799751,80.305779 
	C86.881966,77.007271 83.619377,74.490639 81.308670,71.375359 
	C82.097237,70.783272 82.541122,70.436806 82.985008,70.090332 
	C89.127029,71.844742 90.688072,77.280388 92.893997,82.621933 
z"/>
<path fill="#6F5AAB" opacity="1.000000" stroke="none" 
	d="
M88.571014,100.421127 
	C88.649857,100.675430 88.728699,100.929733 88.929321,101.563782 
	C85.508530,105.119949 81.965958,108.296364 77.767975,111.759232 
	C72.314461,112.356201 67.516350,112.666702 62.400253,112.975746 
	C61.438446,112.942192 60.794624,112.910110 60.069397,112.474022 
	C59.987999,110.490379 59.987999,108.910751 59.987999,107.230484 
	C77.244766,109.704475 79.973801,109.027245 88.571014,100.421127 
z"/>
<path fill="#6143CC" opacity="1.000000" stroke="none" 
	d="
M84.617409,112.456467 
	C86.734871,109.701866 96.482796,109.461472 97.982948,112.223747 
	C98.337524,112.876625 96.424416,115.793480 95.955109,115.698059 
	C92.195900,114.933868 88.532913,113.696297 84.617409,112.456467 
z"/>
<path fill="#613FD3" opacity="1.000000" stroke="none" 
	d="
M62.718235,112.977211 
	C67.516350,112.666702 72.314461,112.356201 77.520477,111.983795 
	C79.014404,112.767082 80.100426,113.612267 81.186440,114.457458 
	C81.083755,114.957802 80.981064,115.458145 80.878372,115.958488 
	C75.226410,115.958488 69.574448,115.958488 63.432617,115.582077 
	C62.867916,114.462845 62.793076,113.720024 62.718235,112.977211 
z"/>
<path fill="#5B44B5" opacity="1.000000" stroke="none" 
	d="
M101.199936,108.081345 
	C103.691872,109.635361 106.193916,111.466438 109.618500,107.993286 
	C110.726685,107.473106 111.261330,107.209274 112.135925,106.947693 
	C112.926926,106.948204 113.377968,106.946457 113.829010,106.944702 
	C112.012604,109.112282 110.196205,111.279861 108.178368,113.707008 
	C104.564453,113.548775 101.628250,112.545578 101.199936,108.081345 
z"/>
<path fill="#5F40CD" opacity="1.000000" stroke="none" 
	d="
M91.275848,102.034576 
	C91.770042,99.784760 92.605026,97.606499 93.694687,95.195168 
	C94.516556,96.850960 95.332687,98.724426 95.451355,100.641075 
	C95.476593,101.048721 92.961403,101.613663 91.275848,102.034576 
z"/>
<path fill="#7559BC" opacity="1.000000" stroke="none" 
	d="
M62.400253,112.975746 
	C62.793076,113.720024 62.867916,114.462845 62.963387,115.576454 
	C61.535233,117.195915 60.086441,118.444580 58.313633,119.829529 
	C57.463978,119.779655 56.938339,119.593498 56.444832,119.003082 
	C57.701572,116.691879 58.926189,114.784950 60.150803,112.878021 
	C60.794624,112.910110 61.438446,112.942192 62.400253,112.975746 
z"/>
<path fill="#563BA5" opacity="1.000000" stroke="none" 
	d="
M98.989319,91.253128 
	C99.032707,90.851280 99.512848,90.927170 99.931183,91.011993 
	C100.349525,91.096817 100.715660,91.063240 100.715660,91.063240 
	C100.746857,92.734962 100.778046,94.406677 100.423721,96.519829 
	C99.390175,97.021301 98.742149,97.081345 98.094124,97.141388 
	C98.378059,95.312584 98.661995,93.483780 98.989319,91.253128 
z"/>
<path fill="#563BA5" opacity="1.000000" stroke="none" 
	d="
M100.709076,100.086189 
	C100.740799,101.088440 100.772530,102.090698 100.694069,103.448273 
	C99.763824,102.716072 98.943771,101.628563 98.430008,100.223679 
	C99.393898,99.966270 100.051483,100.026230 100.709076,100.086189 
z"/>
<path fill="#7A64BA" opacity="1.000000" stroke="none" 
	d="
M100.825165,99.696297 
	C100.051483,100.026230 99.393898,99.966270 98.408188,99.894608 
	C98.084251,99.196548 98.088432,98.510193 98.093369,97.482605 
	C98.742149,97.081345 99.390175,97.021301 100.364235,96.934166 
	C100.773926,97.706848 100.857590,98.506630 100.825165,99.696297 
z"/>
<path fill="#624EBC" opacity="1.000000" stroke="none" 
	d="
M185.037415,69.029739 
	C184.454483,70.422485 183.792953,72.044685 182.586227,72.856262 
	C177.058746,76.573807 174.512283,81.890594 173.535461,88.661766 
	C173.381912,89.062370 173.301605,89.072769 173.301605,89.072769 
	C171.316208,84.502953 169.229538,79.971916 167.449677,75.323402 
	C167.168228,74.588356 168.096436,73.180779 168.779755,72.339523 
	C169.605469,71.322952 170.811920,70.626450 171.774445,69.708427 
	C177.870941,63.893803 177.863724,63.886238 185.037415,69.029739 
z"/>
<path fill="#6453AF" opacity="1.000000" stroke="none" 
	d="
M153.212540,70.524132 
	C153.507614,70.433929 153.802689,70.343719 154.538757,70.113617 
	C160.756714,70.607422 161.473480,71.533134 161.250458,77.396042 
	C161.189545,78.997353 161.626129,80.617584 161.914978,82.616562 
	C161.995560,83.003983 161.968704,83.029846 161.584412,82.986923 
	C160.032898,82.068291 158.865677,81.192581 157.811279,79.998657 
	C160.572479,74.457405 156.244171,72.824387 153.212540,70.524132 
z"/>
<path fill="#6453AF" opacity="1.000000" stroke="none" 
	d="
M167.843643,95.666397 
	C166.921478,96.684402 165.927109,97.321724 164.640106,98.014603 
	C164.347473,98.070145 163.988480,97.915382 163.859589,97.456329 
	C164.845383,92.862091 167.096298,88.540878 161.877884,85.046997 
	C161.933365,84.106827 161.951035,83.568336 161.968704,83.029846 
	C161.968704,83.029846 161.995560,83.003983 162.009430,82.990707 
	C165.842789,83.710449 167.795486,85.750870 167.335663,89.897896 
	C167.140717,91.656113 167.606140,93.487564 167.843643,95.666397 
z"/>
<path fill="#5F56AF" opacity="1.000000" stroke="none" 
	d="
M173.276001,89.322510 
	C173.301605,89.072769 173.381912,89.062370 173.422348,89.064163 
	C173.462784,89.065948 173.571945,89.544800 173.486694,89.774643 
	C173.401459,90.004494 173.344986,90.056686 173.308411,90.065285 
	C173.264709,89.906670 173.257568,89.739464 173.276001,89.322510 
z"/>
<path fill="#534BBA" opacity="1.000000" stroke="none" 
	d="
M247.996323,62.003086 
	C247.155441,65.658585 246.505768,69.376106 245.352905,72.930405 
	C245.022949,73.947670 243.236145,74.492386 242.117371,75.253784 
	C241.473007,74.011368 240.219681,72.725517 240.304581,71.535110 
	C240.514114,68.596901 241.337387,65.702454 242.289688,62.328522 
	C244.442398,61.912117 246.219360,61.957600 247.996323,62.003086 
z"/>
<path fill="#5E58B9" opacity="1.000000" stroke="none" 
	d="
M242.040573,87.938293 
	C240.744690,87.522934 239.448792,87.107574 237.935303,86.426804 
	C238.105408,85.360703 238.493118,84.559998 238.932281,83.428421 
	C242.367310,82.683640 245.750870,82.269745 249.329346,82.222626 
	C248.014969,84.389076 246.505676,86.188744 244.996399,87.988403 
	C244.560196,88.089012 244.123993,88.189613 243.246048,88.124580 
	C242.554321,87.856926 242.299744,87.850044 242.040573,87.938293 
z"/>
<path fill="#5F56AC" opacity="1.000000" stroke="none" 
	d="
M245.360184,88.020828 
	C246.505676,86.188744 248.014969,84.389076 249.694305,82.314003 
	C250.661804,80.759209 251.459229,79.479820 252.524765,78.444221 
	C252.220459,80.827904 251.648041,82.967796 251.075623,85.107681 
	C249.291733,86.089546 247.507843,87.071404 245.360184,88.020828 
z"/>
<path fill="#6863A9" opacity="1.000000" stroke="none" 
	d="
M251.407150,84.997681 
	C251.648041,82.967796 252.220459,80.827904 252.836212,78.321793 
	C252.879547,77.955574 253.036621,77.551079 253.122116,77.352554 
	C253.568405,77.112450 253.929184,77.070869 254.563049,77.011917 
	C253.803619,79.625595 252.771149,82.256630 251.407150,84.997681 
z"/>
<path fill="#524AC1" opacity="1.000000" stroke="none" 
	d="
M247.881912,61.685326 
	C246.219360,61.957600 244.442398,61.912117 242.333771,61.933960 
	C243.577545,58.639000 245.458572,58.056873 247.881912,61.685326 
z"/>
<path fill="#524AC1" opacity="1.000000" stroke="none" 
	d="
M250.898254,102.125595 
	C250.881287,102.224213 250.657272,102.454163 250.246017,102.834633 
	C250.244492,102.721497 250.455307,102.478752 250.898254,102.125595 
z"/>
<path fill="#5846C3" opacity="1.000000" stroke="none" 
	d="
M215.031464,82.370224 
	C216.436096,82.597496 217.918976,83.177597 219.720367,83.887970 
	C220.044449,85.067230 220.050034,86.116219 220.063293,87.557144 
	C219.884720,87.962585 219.698471,87.976097 218.970306,87.844925 
	C217.645523,87.499062 216.862686,87.297882 216.079834,87.096710 
	C216.079834,87.096703 215.983963,87.027374 215.933350,86.993851 
	C215.625076,85.547897 215.367401,84.135475 215.031464,82.370224 
z"/>
<path fill="#6558B3" opacity="1.000000" stroke="none" 
	d="
M216.253235,87.316269 
	C216.862686,87.297882 217.645523,87.499062 218.690582,87.859543 
	C218.952805,88.018837 218.872482,88.489578 218.813080,88.720474 
	C217.977997,88.479523 217.202316,88.007675 216.253235,87.316269 
z"/>
<path fill="#F2EEFC" opacity="1.000000" stroke="none" 
	d="
M161.840073,85.448677 
	C167.096298,88.540878 164.845383,92.862091 163.672821,97.398705 
	C158.667618,105.355370 151.977875,109.867210 142.660828,108.848434 
	C139.681107,108.522606 136.844208,106.890816 133.584030,105.807480 
	C133.226105,105.758400 132.991425,105.531731 132.828079,105.534286 
	C132.500519,105.229759 132.336304,104.922684 132.068420,104.073929 
	C131.934586,103.123512 131.904434,102.714775 132.137711,102.121788 
	C134.107178,102.596779 135.792404,103.318359 137.525192,103.897522 
	C139.218048,104.463341 140.959488,104.883804 142.679581,105.368073 
	C142.902313,104.708298 143.125046,104.048515 143.347778,103.388733 
	C139.321548,101.162537 135.295303,98.936333 130.707367,96.399559 
	C130.223389,98.660370 129.888443,100.224983 129.553497,101.789589 
	C128.541809,100.307053 127.530128,98.824516 126.448975,96.708260 
	C126.189140,95.728767 125.998787,95.382996 125.808426,95.037224 
	C125.808434,95.037224 125.608841,94.823357 125.651581,94.283981 
	C125.701286,93.206284 125.708267,92.667969 125.922432,91.819702 
	C126.845840,87.444496 128.617874,85.365417 132.929520,87.780258 
	C133.438873,88.065529 134.197510,87.905731 134.894058,88.163261 
	C134.947525,88.374268 134.943298,88.809631 134.707214,88.928238 
	C134.351730,89.353195 134.232346,89.659561 134.055878,90.297081 
	C134.501114,95.363876 136.576553,98.795540 141.682953,99.450569 
	C145.730835,99.969818 149.481110,99.387909 152.654907,95.917023 
	C150.153732,94.380035 148.134323,93.139099 146.084885,91.663818 
	C146.054855,91.429466 145.874954,90.992477 145.917267,90.619316 
	C147.315475,88.529099 148.671387,86.812050 150.478821,85.172241 
	C154.566925,85.315880 158.203506,85.382278 161.840073,85.448677 
z"/>
<path fill="#F3ECFB" opacity="1.000000" stroke="none" 
	d="
M134.840591,87.952255 
	C134.197510,87.905731 133.438873,88.065529 132.929520,87.780258 
	C128.617874,85.365417 126.845840,87.444496 125.696747,91.762924 
	C124.958054,91.931396 124.646515,91.892830 124.329262,91.900391 
	C123.910454,78.312943 135.967056,65.229080 152.827148,70.485229 
	C156.244171,72.824387 160.572479,74.457405 157.485779,80.083099 
	C155.104919,80.570839 153.162415,80.655899 151.025909,80.532417 
	C150.285080,80.218269 149.738235,80.112656 149.077454,79.833351 
	C148.963531,79.659653 148.559479,79.579788 148.288727,79.303436 
	C144.186142,79.779152 140.354309,80.531227 136.342407,80.952118 
	C134.834671,79.676781 133.506989,78.732628 132.179321,77.788483 
	C131.512375,79.409378 130.845428,81.030281 129.849533,83.450684 
	C132.872513,82.473724 134.689133,81.886635 136.490936,81.644699 
	C136.025574,84.009064 135.575027,86.028275 135.053345,88.024170 
	C134.982208,88.000862 134.840591,87.952255 134.840591,87.952255 
z"/>
<path fill="#FCFDF3" opacity="1.000000" stroke="none" 
	d="
M129.544479,101.909332 
	C129.888443,100.224983 130.223389,98.660370 130.707367,96.399559 
	C135.295303,98.936333 139.321548,101.162537 143.347778,103.388733 
	C143.125046,104.048515 142.902313,104.708298 142.679581,105.368073 
	C140.959488,104.883804 139.218048,104.463341 137.525192,103.897522 
	C135.792404,103.318359 134.107178,102.596779 131.780685,102.071762 
	C130.678177,102.200539 130.196121,102.195099 129.714066,102.189667 
	C129.714066,102.189667 129.535461,102.029083 129.544479,101.909332 
z"/>
<path fill="#CCC3F2" opacity="1.000000" stroke="none" 
	d="
M129.803116,102.491409 
	C130.196121,102.195099 130.678177,102.200539 131.517258,102.256012 
	C131.904434,102.714775 131.934586,103.123512 131.945633,103.841194 
	C131.248413,103.697815 130.570282,103.245483 129.803116,102.491409 
z"/>
<path fill="#CCC3F2" opacity="1.000000" stroke="none" 
	d="
M124.400238,92.188980 
	C124.646515,91.892830 124.958054,91.931396 125.489563,92.072876 
	C125.708267,92.667969 125.701286,93.206284 125.614685,94.142441 
	C125.180443,93.852707 124.825829,93.165131 124.400238,92.188980 
z"/>
<path fill="#CCC3F2" opacity="1.000000" stroke="none" 
	d="
M125.810837,95.338120 
	C125.998787,95.382996 126.189140,95.728767 126.385330,96.376419 
	C126.198532,96.331871 126.005890,95.985443 125.810837,95.338120 
z"/>
<path fill="#5746C4" opacity="1.000000" stroke="none" 
	d="
M190.377243,79.378586 
	C191.536057,79.578545 192.674637,79.702385 193.775970,79.976166 
	C196.571960,80.671219 197.451996,81.707153 194.959351,84.179665 
	C192.749023,86.372154 190.931458,89.042885 194.854614,91.807251 
	C195.446793,92.037079 195.720398,92.230850 196.046463,93.033096 
	C195.543365,97.217743 193.355698,97.213219 190.563797,96.301155 
	C184.827148,94.427094 184.368332,90.048904 185.427307,85.042786 
	C189.317001,84.784515 192.346664,84.163582 190.323364,79.444901 
	C190.323364,79.444901 190.340057,79.370750 190.377243,79.378586 
z"/>
<path fill="#6D61B3" opacity="1.000000" stroke="none" 
	d="
M185.048508,85.070396 
	C184.368332,90.048904 184.827148,94.427094 190.563797,96.301155 
	C193.355698,97.213219 195.543365,97.217743 196.155762,93.263710 
	C196.505280,93.036102 196.794434,93.193649 197.091171,93.335403 
	C198.852448,94.176804 200.615479,95.014534 202.377930,95.853500 
	C200.428757,97.173187 198.427979,99.647530 196.541550,99.563210 
	C193.019745,99.405792 188.940674,98.588310 186.228928,96.541336 
	C182.256699,93.542885 182.473831,88.762413 184.638000,84.349022 
	C185.008286,84.651932 185.028397,84.861160 185.048508,85.070396 
z"/>
<path fill="#FCFFEF" opacity="1.000000" stroke="none" 
	d="
M194.053864,72.692924 
	C195.904953,72.831238 197.371017,73.023956 198.837097,73.216675 
	C198.852966,73.640747 198.868835,74.064819 198.884705,74.488884 
	C195.038528,75.414833 191.207870,76.420288 187.328705,77.177132 
	C186.775864,77.285004 185.987869,76.187759 185.308716,75.648277 
	C185.972107,74.837425 186.516479,73.501144 187.322220,73.318596 
	C189.375519,72.853409 191.545547,72.903458 194.053864,72.692924 
z"/>
<path fill="#6558B3" opacity="1.000000" stroke="none" 
	d="
M185.427307,85.042786 
	C185.028397,84.861160 185.008286,84.651932 184.952057,84.129539 
	C184.926712,83.531456 185.027939,83.283455 185.716125,82.897659 
	C187.135941,81.873329 188.059265,81.023720 188.982574,80.174110 
	C189.261353,79.971024 189.540131,79.767937 190.071136,79.504868 
	C192.346664,84.163582 189.317001,84.784515 185.427307,85.042786 
z"/>
<path fill="#6D61B3" opacity="1.000000" stroke="none" 
	d="
M188.653870,80.182770 
	C188.059265,81.023720 187.135941,81.873329 185.880096,82.776093 
	C186.473434,81.949966 187.399292,81.070694 188.653870,80.182770 
z"/>
<path fill="#F2E9FC" opacity="1.000000" stroke="none" 
	d="
M60.069401,112.474014 
	C58.926189,114.784950 57.701572,116.691879 56.224232,118.830444 
	C55.527451,119.019493 55.083393,118.976898 54.098312,118.741776 
	C52.401760,117.358025 51.246231,116.166786 50.090702,114.975555 
	C50.128029,106.296829 50.165356,97.618103 50.137062,88.475250 
	C51.994179,82.129997 53.923603,76.253143 59.912895,72.584793 
	C62.870510,71.369423 65.664688,70.435463 69.146683,69.377411 
	C73.544334,70.042534 77.254166,70.831757 80.963997,71.620979 
	C83.619377,74.490639 86.881966,77.007271 88.799751,80.305779 
	C92.438263,86.563873 92.151337,93.247955 88.682678,100.071732 
	C79.973801,109.027245 77.244766,109.704475 59.987999,107.230484 
	C59.987999,108.910751 59.987999,110.490379 60.069401,112.474014 
M72.326073,78.660011 
	C70.821602,78.872887 69.317123,79.085762 67.065674,79.404182 
	C60.860996,82.509857 58.562698,86.956512 60.280273,92.532272 
	C61.657837,97.004242 67.280472,100.780304 71.822632,100.283913 
	C77.496544,99.663849 81.877663,95.293030 82.173401,89.957474 
	C82.478806,84.447632 78.968269,80.177017 72.326073,78.660011 
M57.736996,105.740211 
	C57.562859,102.781502 57.452602,99.814034 57.051556,96.886414 
	C57.028168,96.715706 53.898228,96.361305 53.498203,96.956085 
	C51.691841,99.641922 53.750690,104.334953 57.736996,105.740211 
z"/>
<path fill="#7559BC" opacity="1.000000" stroke="none" 
	d="
M49.947842,115.226669 
	C51.246231,116.166786 52.401760,117.358025 53.764854,118.782074 
	C50.505264,120.284164 49.924015,118.153259 49.947842,115.226669 
z"/>
<path fill="#573EAA" opacity="1.000000" stroke="none" 
	d="
M113.814522,106.531998 
	C113.377968,106.946457 112.926926,106.948204 112.092674,106.482513 
	C111.458305,105.115677 111.207146,104.216278 110.955978,103.316887 
	C110.821671,93.854256 110.687363,84.391632 110.495659,74.464188 
	C110.700233,74.004875 110.962212,74.010384 111.617355,74.012527 
	C112.374329,76.741676 112.738129,79.474213 113.134262,82.625244 
	C113.377747,90.735588 113.588890,98.427429 113.814522,106.531998 
z"/>
<path fill="#644BAE" opacity="1.000000" stroke="none" 
	d="
M81.308670,71.375359 
	C77.254166,70.831757 73.544334,70.042534 69.439171,69.149139 
	C69.217224,68.402939 69.390602,67.760910 70.101837,67.031448 
	C71.094978,66.933083 71.550285,66.922142 72.005585,66.911209 
	C75.480347,67.812515 78.955101,68.713829 82.707436,69.852737 
	C82.541122,70.436806 82.097237,70.783272 81.308670,71.375359 
z"/>
<path fill="#673ECA" opacity="1.000000" stroke="none" 
	d="
M71.984009,66.571915 
	C71.550285,66.922142 71.094978,66.933083 70.297211,66.933937 
	C69.964699,65.876190 69.974648,64.828522 69.985840,63.386147 
	C70.645531,64.071831 71.303986,65.152222 71.984009,66.571915 
z"/>
<path fill="#7A64BA" opacity="1.000000" stroke="none" 
	d="
M109.700684,72.983292 
	C106.592087,71.319107 103.917061,71.826744 101.088440,74.710922 
	C100.373207,74.523384 100.178024,74.277611 100.006058,74.013412 
	C100.637558,72.165947 101.269066,70.318489 102.049225,68.134949 
	C104.482193,67.813316 106.766502,67.827759 109.356674,67.648422 
	C109.688866,69.130295 109.715195,70.805931 109.700684,72.983292 
z"/>
<path fill="#563BA5" opacity="1.000000" stroke="none" 
	d="
M99.764053,74.190849 
	C100.178024,74.277611 100.373207,74.523384 100.787155,74.882523 
	C100.926727,78.796318 100.870743,82.578308 100.585632,86.912094 
	C100.214096,87.955009 100.071693,88.446129 99.929276,88.937241 
	C99.614838,87.863762 99.300400,86.790283 98.966232,85.375504 
	C99.138359,81.478889 99.330208,77.923592 99.764053,74.190849 
z"/>
<path fill="#5F43C3" opacity="1.000000" stroke="none" 
	d="
M121.888199,109.689835 
	C120.148468,110.211479 118.311447,110.406845 116.235085,110.800934 
	C116.601814,109.532295 117.207886,108.064926 117.813950,106.597557 
	C119.139610,107.519562 120.465263,108.441566 121.888199,109.689835 
z"/>
<path fill="#5848B8" opacity="1.000000" stroke="none" 
	d="
M162.764175,104.027061 
	C162.552353,104.555000 162.033524,105.190254 161.242325,105.983528 
	C161.465698,105.472488 161.961441,104.803436 162.764175,104.027061 
z"/>
<path fill="#FBFEF3" opacity="1.000000" stroke="none" 
	d="
M246.484924,101.972527 
	C243.873596,104.616241 242.476791,102.791046 242.444153,100.717354 
	C242.417084,98.997925 243.892685,97.254845 244.702576,95.522232 
	C245.449722,96.754059 246.349213,97.924614 246.879837,99.243546 
	C247.145554,99.904068 246.738708,100.835152 246.484924,101.972527 
z"/>
<path fill="#5F56AC" opacity="1.000000" stroke="none" 
	d="
M242.276337,88.060684 
	C242.299744,87.850044 242.554321,87.856926 242.919525,88.023361 
	C242.860519,88.119553 242.686295,88.151314 242.276337,88.060684 
z"/>
<path fill="#7A64BA" opacity="1.000000" stroke="none" 
	d="
M110.786163,103.608704 
	C111.207146,104.216278 111.458305,105.115677 111.752716,106.480255 
	C111.261330,107.209274 110.726685,107.473106 109.897354,107.794678 
	C109.940559,106.535110 110.278450,105.217819 110.786163,103.608704 
z"/>
<path fill="#7A64BA" opacity="1.000000" stroke="none" 
	d="
M99.955101,89.283218 
	C100.071693,88.446129 100.214096,87.955009 100.527527,87.275208 
	C100.786079,88.152618 100.873611,89.218712 100.838402,90.674026 
	C100.715660,91.063240 100.349525,91.096817 100.170135,91.056488 
	C99.987465,90.553841 99.984192,90.091515 99.955101,89.283218 
z"/>
<path fill="#574799" opacity="1.000000" stroke="none" 
	d="
M151.219910,80.740952 
	C153.162415,80.655899 155.104919,80.570839 157.372940,80.401329 
	C158.865677,81.192581 160.032898,82.068291 161.584412,82.986923 
	C161.951035,83.568336 161.933365,84.106827 161.877884,85.046997 
	C158.203506,85.382278 154.566925,85.315880 150.546173,84.801804 
	C150.514618,83.149742 150.867264,81.945351 151.219910,80.740952 
z"/>
<path fill="#6253B0" opacity="1.000000" stroke="none" 
	d="
M134.943298,88.809631 
	C134.943298,88.809631 134.947525,88.374268 134.894058,88.163261 
	C134.840591,87.952255 134.982208,88.000862 135.267914,88.132690 
	C135.978012,88.476906 136.402420,88.689301 136.866394,89.293762 
	C137.543549,91.324394 137.773178,93.395531 138.928482,94.485153 
	C140.193298,95.678040 142.324402,96.440811 144.054626,96.400085 
	C144.703888,96.384811 145.287582,93.584183 145.955414,92.015732 
	C146.009659,91.978020 146.114914,91.898163 146.114914,91.898163 
	C148.134323,93.139099 150.153732,94.380035 152.654907,95.917023 
	C149.481110,99.387909 145.730835,99.969818 141.682953,99.450569 
	C136.576553,98.795540 134.501114,95.363876 134.205826,90.113144 
	C134.604080,89.344948 134.780914,89.082146 134.943298,88.809631 
z"/>
<path fill="#5643AB" opacity="1.000000" stroke="none" 
	d="
M151.025925,80.532410 
	C150.867264,81.945351 150.514618,83.149742 150.094635,84.724564 
	C148.671387,86.812050 147.315475,88.529099 145.689316,90.665619 
	C145.419067,91.085083 144.965591,91.188950 144.699310,91.021606 
	C144.143463,89.497673 143.169968,87.725426 143.693939,86.863243 
	C145.202469,84.380974 147.315704,82.266205 149.191376,80.007050 
	C149.738235,80.112656 150.285080,80.218269 151.025925,80.532410 
z"/>
<path fill="#5F49C9" opacity="1.000000" stroke="none" 
	d="
M134.707214,88.928238 
	C134.780914,89.082146 134.604080,89.344948 134.262878,89.781982 
	C134.232346,89.659561 134.351730,89.353195 134.707214,88.928238 
z"/>
<path fill="#6253B0" opacity="1.000000" stroke="none" 
	d="
M144.965591,91.188950 
	C144.965591,91.188950 145.419067,91.085083 145.647003,91.038780 
	C145.874954,90.992477 146.054855,91.429466 146.084885,91.663818 
	C146.114914,91.898163 146.009659,91.978020 145.790588,91.880577 
	C145.358429,91.596397 145.156464,91.398338 144.965591,91.188950 
z"/>
<path fill="#5F49C9" opacity="1.000000" stroke="none" 
	d="
M144.699310,91.021606 
	C145.156464,91.398338 145.358429,91.596397 145.736328,91.918289 
	C145.287582,93.584183 144.703888,96.384811 144.054626,96.400085 
	C142.324402,96.440811 140.193298,95.678040 138.928482,94.485153 
	C137.773178,93.395531 137.543549,91.324394 136.924683,88.929878 
	C138.198257,81.771790 143.633148,81.019470 148.559479,79.579788 
	C148.559479,79.579788 148.963531,79.659653 149.077454,79.833359 
	C147.315704,82.266205 145.202469,84.380974 143.693939,86.863243 
	C143.169968,87.725426 144.143463,89.497673 144.699310,91.021606 
z"/>
<path fill="#6453AB" opacity="1.000000" stroke="none" 
	d="
M148.288727,79.303436 
	C143.633148,81.019470 138.198257,81.771790 136.885117,88.537811 
	C136.402420,88.689301 135.978012,88.476906 135.339050,88.155998 
	C135.575027,86.028275 136.025574,84.009064 136.465515,81.625061 
	C136.454910,81.260277 136.522491,81.283295 136.522491,81.283295 
	C140.354309,80.531227 144.186142,79.779152 148.288727,79.303436 
z"/>
<path fill="#FDFBF0" opacity="1.000000" stroke="none" 
	d="
M136.480331,81.279907 
	C134.689133,81.886635 132.872513,82.473724 129.849533,83.450684 
	C130.845428,81.030281 131.512375,79.409378 132.179321,77.788483 
	C133.506989,78.732628 134.834671,79.676781 136.342407,80.952110 
	C136.522491,81.283295 136.454910,81.260277 136.480331,81.279907 
z"/>
<path fill="#6F58B0" opacity="1.000000" stroke="none" 
	d="
M73.081680,78.897263 
	C78.968269,80.177017 82.478806,84.447632 82.173401,89.957474 
	C81.877663,95.293030 77.496544,99.663849 71.822632,100.283913 
	C67.280472,100.780304 61.657837,97.004242 60.280273,92.532272 
	C58.562698,86.956512 60.860996,82.509857 67.347687,79.694229 
	C66.730385,81.330475 65.831070,82.676666 64.921013,84.239014 
	C64.910271,84.455177 64.903275,84.887970 64.624435,85.083038 
	C61.547985,90.501167 61.977730,92.098488 67.171509,95.340309 
	C68.915863,96.102104 70.473488,96.611259 72.382263,97.070961 
	C74.194244,96.046547 75.655067,95.071594 77.293114,93.732758 
	C78.548073,88.599930 78.906464,84.028740 73.911560,80.647743 
	C73.548790,79.900269 73.315239,79.398766 73.081680,78.897263 
z"/>
<path fill="#FBFEF4" opacity="1.000000" stroke="none" 
	d="
M57.464081,105.931442 
	C53.750690,104.334953 51.691841,99.641922 53.498203,96.956085 
	C53.898228,96.361305 57.028168,96.715706 57.051556,96.886414 
	C57.452602,99.814034 57.562859,102.781502 57.464081,105.931442 
z"/>
<path fill="#613FBA" opacity="1.000000" stroke="none" 
	d="
M64.931755,84.022850 
	C65.831070,82.676666 66.730385,81.330475 67.721176,79.641457 
	C69.317123,79.085762 70.821602,78.872887 72.703873,78.778641 
	C73.315239,79.398766 73.548790,79.900269 73.518562,80.678070 
	C70.480438,81.977196 67.706100,83.000023 64.931755,84.022850 
z"/>
<path fill="#653ECE" opacity="1.000000" stroke="none" 
	d="
M64.921013,84.239014 
	C67.706100,83.000023 70.480438,81.977196 73.647781,80.924042 
	C78.906464,84.028740 78.548073,88.599930 76.913910,93.731125 
	C74.915352,95.102386 73.473228,96.111397 72.031105,97.120407 
	C70.473488,96.611259 68.915863,96.102104 67.168716,94.929405 
	C66.287216,91.139893 65.595245,88.013931 64.903275,84.887970 
	C64.903275,84.887970 64.910271,84.455177 64.921013,84.239014 
z"/>
<path fill="#613FBA" opacity="1.000000" stroke="none" 
	d="
M64.624435,85.083038 
	C65.595245,88.013931 66.287216,91.139893 66.981979,94.676758 
	C61.977730,92.098488 61.547985,90.501167 64.624435,85.083038 
z"/>
<path fill="#613FBA" opacity="1.000000" stroke="none" 
	d="
M72.382263,97.070953 
	C73.473228,96.111397 74.915352,95.102386 76.736679,94.095001 
	C75.655067,95.071594 74.194244,96.046547 72.382263,97.070953 
z"/>
</svg>