<svg xmlns="http://www.w3.org/2000/svg" xmlns:xlink="http://www.w3.org/1999/xlink" width="292" height="224.746" viewBox="0 0 292 224.746"><defs><style>.a,.j{fill:#6c63ff;}.a,.e,.k{opacity:0.1;}.b{fill:#d6d6e3;}.c{fill:#aebee1;}.d{fill:#535461;}.f{fill:#e3edf9;}.g{fill:url(#a);}.h{fill:#f8b9bf;}.i{fill:#d9dfe8;}.l{fill:#68739d;}.m{fill:#6394e2;}.n{fill:#b96b6b;}.o{fill:none;stroke:#535461;stroke-miterlimit:10;stroke-width:2px;}.p{fill:url(#b);}.q{fill:#fa595f;}.r{fill:#f37291;}.s{fill:#96a2d0;}</style><linearGradient id="a" x1="0.531" y1="1.017" x2="0.531" y2="-0.007" gradientUnits="objectBoundingBox"><stop offset="0" stop-color="gray" stop-opacity="0.251"/><stop offset="0.54" stop-color="gray" stop-opacity="0.122"/><stop offset="1" stop-color="gray" stop-opacity="0.102"/></linearGradient><linearGradient id="b" x1="0.5" y1="1" x2="0.5" y2="0.001" xlink:href="#a"/></defs><path class="a" d="M313.295,145.966c-10.759,16.184-8.036,38.679-2.619,56.5,1.824,5.964,3.885,12.268,2.66,18.86-1.5,8.062-7.606,14.272-13.868,17.748-11.41,6.34-24.655,5.819-34.481-1.352-8.492-6.2-14.264-16.776-22.93-22.67-14.485-9.829-33.827-4.57-50.53,3.877-11.817,5.97-24.791,13.584-35.99,8.807-7.88-3.361-12.987-12.414-15.525-22.188-1.225-4.719-2.027-9.86-4.638-13.5a17.314,17.314,0,0,0-5.808-4.854c-19.728-11.137-45.756-2.905-64.843-15.428-12.88-8.443-20.543-25.416-23.4-43.435s-1.451-37.183.461-56.044c1.358-13.4,3.3-27.738,10.78-38.481a34.407,34.407,0,0,1,32.05-14.84c11.314,1.363,21.263,8.112,29.921,16.26,10.822,10.162,20.682,23.05,34.421,26.578,9.357,2.41,19.441.149,29.275-1.042,16.442-1.967,32.736-.873,48.92.427,15.5,1.246,31.091,2.707,45.644,8.018,10.3,3.757,18.329,11.241,27.983,16.218,6.293,3.244,13.3,3.812,19.2,8.078,7.265,5.25,13.685,14.772,11.16,26.537C328.733,131.239,319,137.367,313.295,145.966Z" transform="translate(-39.693 -18.74)"/><rect class="a" width="12.567" height="19.023" transform="translate(227.953 65.889)"/><rect class="a" width="10.123" height="15.323" transform="translate(229.294 67.632)"/><rect class="a" width="19.3" height="19.023" transform="translate(205.671 54.84)"/><rect class="a" width="15.548" height="15.323" transform="translate(207.697 56.55)"/><rect class="a" width="58.991" height="1.57" transform="translate(19.861 37.285)"/><rect class="a" width="58.991" height="1.57" transform="translate(19.861 44.965)"/><rect class="b" width="6.027" height="67.347" transform="translate(100.892 110.734)"/><path class="c" d="M929.349,339.65V277.528A6.531,6.531,0,0,1,935.88,271h0a6.531,6.531,0,0,1,6.518,6.528v75.184a6.531,6.531,0,0,1-6.531,6.531H895.421a6.531,6.531,0,0,1-6.531-6.531h0a6.531,6.531,0,0,1,6.531-6.531h27.4A6.531,6.531,0,0,0,929.349,339.65Z" transform="translate(-680.304 -211.154)"/><path class="d" d="M929.349,339.65V277.528A6.531,6.531,0,0,1,935.88,271h0a6.531,6.531,0,0,1,6.518,6.528v75.184a6.531,6.531,0,0,1-6.531,6.531H895.421a6.531,6.531,0,0,1-6.531-6.531h0a6.531,6.531,0,0,1,6.531-6.531h27.4A6.531,6.531,0,0,0,929.349,339.65Z" transform="translate(-680.304 -211.154)"/><path class="b" d="M888.92,352.361a6.531,6.531,0,0,1,6.521-6.18h27.4a6.531,6.531,0,0,0,6.531-6.531V277.528A6.531,6.531,0,0,1,935.587,271v81.361Z" transform="translate(-680.325 -210.492)"/><path class="c" d="M202.8,346.464V284.341a6.531,6.531,0,0,0-6.515-6.531h0a6.531,6.531,0,0,0-6.531,6.531v75.184a6.531,6.531,0,0,0,6.531,6.546h40.444a6.531,6.531,0,0,0,6.531-6.531h0a6.531,6.531,0,0,0-6.531-6.531h-27.4a6.531,6.531,0,0,1-6.534-6.546Z" transform="translate(-143.634 -216.35)"/><path class="d" d="M202.8,346.464V284.341a6.531,6.531,0,0,0-6.515-6.531h0a6.531,6.531,0,0,0-6.531,6.531v75.184a6.531,6.531,0,0,0,6.531,6.546h40.444a6.531,6.531,0,0,0,6.531-6.531h0a6.531,6.531,0,0,0-6.531-6.531h-27.4a6.531,6.531,0,0,1-6.534-6.546Z" transform="translate(-143.634 -216.35)"/><path class="b" d="M258.658,359.2a6.531,6.531,0,0,0-6.521-6.18h-27.4a6.531,6.531,0,0,1-6.534-6.531V284.362A6.53,6.53,0,0,0,212,277.84V359.2Z" transform="translate(-168.364 -215.691)"/><rect class="b" width="6.027" height="68.918" transform="translate(201.662 110.507)"/><rect class="e" width="6.027" height="4.979" transform="translate(100.892 117.537)"/><rect class="e" width="6.027" height="4.979" transform="translate(201.662 117.537)"/><path class="e" d="M495.427,337.92q-.144,1.592-.366,3.227h-.851V337.92Z" transform="translate(-375.852 -254.935)"/><path class="d" d="M520.121,371.45a1.859,1.859,0,0,1-1.743,1.985H499.985v-1.918h15.3a.962.962,0,0,0,.741-1.438l-13.879-28.228a1.229,1.229,0,0,0-1.076-.695H494.21V337.93h8.67a.861.861,0,0,1,.753.486l15.91,30.733A5.224,5.224,0,0,1,520.121,371.45Z" transform="translate(-377.505 -257.066)"/><path class="d" d="M462.719,301.357l-.252.424-2.357-1.573L467.4,244.13h1.878s.077.258.2.75C470.74,249.726,476.915,277.174,462.719,301.357Z" transform="translate(-351.258 -188.329)"/><path class="e" d="M469.48,244.88l-6.761,56.477-.252.424-2.357-1.574L467.4,244.13h1.878S469.354,244.4,469.48,244.88Z" transform="translate(-351.111 -188.329)"/><rect class="b" width="58.174" height="4.456" transform="translate(107.085 113.062) rotate(-83.17)"/><path class="f" d="M399.684,445.892a.529.529,0,0,1-.526.526h-.787a.526.526,0,0,1-.526-.526.256.256,0,0,1,0-.061.526.526,0,0,1,.519-.461h.787a.529.529,0,0,1,.507.4A.486.486,0,0,1,399.684,445.892Z" transform="translate(-304.61 -334.282)"/><path class="f" d="M407.358,445.892a.529.529,0,0,1-.526.526h-.787a.526.526,0,0,1-.526-.526.516.516,0,0,1,.021-.144.5.5,0,0,1,.132-.224.513.513,0,0,1,.369-.154h.787a.529.529,0,0,1,.482.307A.541.541,0,0,1,407.358,445.892Z" transform="translate(-310.288 -334.282)"/><path class="f" d="M414.178,445.886a.529.529,0,0,1-.526.526h-.787a.526.526,0,0,1-.526-.526.5.5,0,0,1,.046-.218.535.535,0,0,1,.476-.307h.787a.522.522,0,0,1,.526.526Z" transform="translate(-315.333 -334.274)"/><path class="f" d="M421.859,445.892a.529.529,0,0,1-.526.526h-.787a.526.526,0,0,1-.43-.827l.061-.068a.513.513,0,0,1,.369-.154h.787a.529.529,0,0,1,.381.169A.507.507,0,0,1,421.859,445.892Z" transform="translate(-321.015 -334.282)"/><path class="e" d="M399.668,446.66a.486.486,0,0,1,.015.126.529.529,0,0,1-.526.526h-.787a.526.526,0,0,1-.526-.526.256.256,0,0,1,0-.061Z" transform="translate(-304.61 -335.206)"/><path class="e" d="M407.315,446.39a.541.541,0,0,1,.043.206.529.529,0,0,1-.526.526h-.787a.526.526,0,0,1-.526-.526.516.516,0,0,1,.021-.144Z" transform="translate(-310.288 -335.012)"/><path class="e" d="M414.108,446.16a.524.524,0,0,1-.446.8h-.787a.525.525,0,0,1-.526-.526.5.5,0,0,1,.046-.218Z" transform="translate(-315.34 -334.847)"/><path class="e" d="M421.859,446.267a.529.529,0,0,1-.526.526h-.787a.526.526,0,0,1-.43-.827l1.6-.055A.507.507,0,0,1,421.859,446.267Z" transform="translate(-321.015 -334.668)"/><path class="b" d="M407.087,448.713h-15.2v-.691a1.183,1.183,0,0,1,1.143-1.183l12.189-.421a1.807,1.807,0,0,1,1.869,1.8Z" transform="translate(-300.878 -335.151)"/><path class="d" d="M685.309,371.45a1.859,1.859,0,0,0,1.742,1.985h18.4v-1.918H690.131a.962.962,0,0,1-.741-1.438l13.879-28.228a1.229,1.229,0,0,1,1.076-.695h6.869V337.93H702.55a.861.861,0,0,0-.741.483L685.9,369.145A5.224,5.224,0,0,0,685.309,371.45Z" transform="translate(-519.536 -257.066)"/><path class="d" d="M774.537,301.357l.252.424,2.357-1.573-7.293-56.078h-1.878s-.077.258-.2.75C766.512,249.726,760.326,277.174,774.537,301.357Z" transform="translate(-577.469 -188.329)"/><path class="e" d="M773.23,244.88l6.761,56.477.252.424,2.357-1.574-7.29-56.078h-1.878S773.356,244.4,773.23,244.88Z" transform="translate(-583.051 -188.329)"/><rect class="b" width="4.456" height="58.174" transform="translate(190.113 55.827) rotate(-6.83)"/><path class="f" d="M860,445.892a.528.528,0,0,0,.526.526h.787a.526.526,0,0,0,.526-.526.253.253,0,0,0,0-.061.526.526,0,0,0-.519-.461h-.787a.529.529,0,0,0-.507.4.486.486,0,0,0-.025.123Z" transform="translate(-646.458 -334.282)"/><path class="f" d="M852.328,445.892a.529.529,0,0,0,.526.526h.787a.526.526,0,0,0,.526-.526.517.517,0,0,0-.022-.144.5.5,0,0,0-.132-.224.513.513,0,0,0-.369-.154h-.8a.528.528,0,0,0-.482.307.541.541,0,0,0-.031.215Z" transform="translate(-640.782 -334.282)"/><path class="f" d="M845.51,445.886a.529.529,0,0,0,.526.526h.787a.526.526,0,0,0,.526-.526.5.5,0,0,0-.046-.218.535.535,0,0,0-.476-.307h-.787a.522.522,0,0,0-.526.526Z" transform="translate(-635.74 -334.274)"/><path class="f" d="M837.83,445.892a.528.528,0,0,0,.526.526h.787a.526.526,0,0,0,.43-.827l-.061-.068a.513.513,0,0,0-.369-.154h-.787a.529.529,0,0,0-.381.169A.507.507,0,0,0,837.83,445.892Z" transform="translate(-630.059 -334.282)"/><path class="e" d="M860.015,446.66a.488.488,0,0,0-.015.126.529.529,0,0,0,.526.526h.787a.526.526,0,0,0,.526-.526.256.256,0,0,0,0-.061Z" transform="translate(-646.458 -335.206)"/><path class="e" d="M852.373,446.39a.541.541,0,0,0-.043.206.529.529,0,0,0,.526.526h.787a.526.526,0,0,0,.526-.526.517.517,0,0,0-.022-.144Z" transform="translate(-640.784 -335.012)"/><path class="e" d="M845.58,446.16a.524.524,0,0,0,.446.8h.787a.526.526,0,0,0,.526-.526.5.5,0,0,0-.046-.218Z" transform="translate(-635.732 -334.847)"/><path class="e" d="M837.83,446.267a.529.529,0,0,0,.526.526h.787a.526.526,0,0,0,.43-.827l-1.6-.055a.507.507,0,0,0-.144.357Z" transform="translate(-630.059 -334.668)"/><path class="b" d="M822.483,448.713h15.2v-.691a1.183,1.183,0,0,0-1.143-1.183l-12.189-.421a1.807,1.807,0,0,0-1.869,1.8Z" transform="translate(-620.199 -335.151)"/><path class="g" d="M859.493,288.483c7.09-12.026,4.521-36.283,4.807-36.747.255-.409-.722-11.832-7.237-14.623-1.177-2.333-2.336-4.96-2.336-4.96a2.067,2.067,0,0,1-.375.28q-.077-.209-.151-.424c-.083-.243-.16-.492-.237-.741a4.778,4.778,0,0,0,.556.141,2.318,2.318,0,0,0,1.488-.132,1.659,1.659,0,0,0,.427-.329,3.239,3.239,0,0,0,1.036-1.537l1.9-4.542a35.354,35.354,0,0,0,2.17-6.285,17.7,17.7,0,0,0-.756-9.791,6.246,6.246,0,0,0-2.124-3.1c-2.111-1.432-5.049-.443-7.462-1.282-.793-.277-1.509-.744-2.3-1.026a7.078,7.078,0,0,0-5.292.479,25.18,25.18,0,0,0-4.422,3.073c-.71.544-1.844,1.106-2.68,1.844a2.7,2.7,0,0,0-1.315,2.406c.135,1.152,1.349,1.844,2.48,2.114.188.043.381.077.572.111a11.064,11.064,0,0,0,4.724,18.378,25.92,25.92,0,0,1,1.494,3.359q.083.237.163.476A19.181,19.181,0,0,0,841,236.84c-.882.731.965,7.136.965,7.136-.47.6-.95,1.275-1.435,2a43.194,43.194,0,0,0-6.81,18.615c-.307,2.431-.707,4.917-1.214,7.281l-22.026-4.416-.046.544-.526-.129h0l-1.653-.409-.065.372-.252-.12c-4.1-1.921-11-4.373-15.674-1.844-4.933,2.655,5.713,6.183,12.545,8.061a11.1,11.1,0,0,0-6.146,1.927c-4.954,3.712,9.057,5.646,15.674,6.331l.267.028v.141l2.293.212.538.049.052.817s3.282.538,7.668,1.189a133.757,133.757,0,0,1-15.489,2.625,11.333,11.333,0,0,0-9.656,8.129,7.228,7.228,0,0,0-.111,3.909c1.278,4.465-.283,37.316-.636,44.39l-8.1,4.662s-12.6,1.537-4.207,4.49a17.264,17.264,0,0,0,2.314.615c-1.106.713-1.011,1.644,2.25,2.787,8.4,2.944,27.924-.129,27.924-.129s-.427-3.461-1.122-6.337l.215.018s-2.016-7.5,1.042-11.285-.513-32.577-.513-32.577,5.354-2.216,21.356-2.36c12.908,3.313,19.2-8.547,19.11-14.678A3.258,3.258,0,0,1,859.493,288.483Z" transform="translate(-607.703 -167.068)"/><path class="h" d="M829.625,409.961l-1.368,5.532s-1.229-.277-3.073-.75c-6.245-1.617-19.417-5.5-14.137-8.347,4.551-2.459,11.254-.068,15.234,1.8,1.457.685,2.551,1.3,3.039,1.589C829.527,409.9,829.625,409.961,829.625,409.961Z" transform="translate(-611.349 -305.328)"/><path class="e" d="M863.857,417.994l-.983,4s-1.229-.277-3.073-.75l1.109-6.549c1.457.685,2.551,1.3,3.039,1.589Z" transform="translate(-646.572 -312.041)"/><path class="i" d="M824.707,403.038l-3.817-.943,1.186-6.995,3.052.753Z" transform="translate(-607.466 -292.719)"/><path class="e" d="M829.6,403.932l-1.647-.406.621-7.136,1.448.356Z" transform="translate(-612.442 -293.645)"/><path class="j" d="M907.125,343.789s-7.33-4.235-10.587,7.914-3.565,17.745-3.565,17.745l-23.148-4.628-.735,8.455s24.749,7.99,27.862,7.41,13.215-17.518,13.215-17.518S919.35,350.04,907.125,343.789Z" transform="translate(-666.589 -261.072)"/><g class="k" transform="translate(184.288 82.256)"><path d="M829.625,409.961l-1.368,5.532s-1.229-.277-3.073-.75c-6.245-1.617-19.417-5.5-14.137-8.347,4.551-2.459,11.254-.068,15.234,1.8,1.457.685,2.551,1.3,3.039,1.589C829.527,409.9,829.625,409.961,829.625,409.961Z" transform="translate(-809.826 -386.517)"/><path class="e" d="M863.857,417.994l-.983,4s-1.229-.277-3.073-.75l1.109-6.549c1.457.685,2.551,1.3,3.039,1.589Z" transform="translate(-844.442 -392.988)"/><path d="M824.707,403.038l-3.817-.943,1.186-6.995,3.052.753Z" transform="translate(-805.289 -373.659)"/><path class="e" d="M829.6,403.932l-1.647-.406.621-7.136,1.448.356Z" transform="translate(-810.179 -374.553)"/><path d="M907.125,344.789s-7.33-4.235-10.587,7.914-3.565,17.745-3.565,17.745l-23.148-4.628-.735,8.455s24.749,7.99,27.862,7.41,13.215-17.518,13.215-17.518S919.35,351.04,907.125,344.789Z" transform="translate(-850.877 -344.075)"/></g><path class="l" d="M804.322,650.452l-9.45,5.443s-12.244,1.5-4.087,4.358,27.118-.126,27.118-.126-1.054-8.519-2.523-9.708S804.322,650.452,804.322,650.452Z" transform="translate(-596.328 -486.786)"/><path class="m" d="M874.256,452.683a65.774,65.774,0,0,1-13.055,4.582,130.838,130.838,0,0,1-15.259,2.6,11.005,11.005,0,0,0-9.38,7.877,7.019,7.019,0,0,0-.108,3.811c1.392,4.865-.685,44.412-.685,44.412l14.352,1.328s-1.958-7.287,1.014-10.959-.5-31.627-.5-31.627,5.2-2.151,20.738-2.293c14.4,3.688,20.327-12.069,18.1-16.485S874.256,452.683,874.256,452.683Z" transform="translate(-643.509 -346.062)"/><g class="k" transform="translate(177.574 105.438)"><path d="M804.322,650.452l-9.45,5.443s-12.244,1.5-4.087,4.358,27.118-.126,27.118-.126-1.054-8.519-2.523-9.708S804.322,650.452,804.322,650.452Z" transform="translate(-787.982 -589.246)"/><path d="M874.256,452.683a65.774,65.774,0,0,1-13.055,4.582,130.838,130.838,0,0,1-15.259,2.6,11.005,11.005,0,0,0-9.38,7.877,7.019,7.019,0,0,0-.108,3.811c1.392,4.865-.685,44.412-.685,44.412l14.352,1.328s-1.958-7.287,1.014-10.959-.5-31.627-.5-31.627,5.2-2.151,20.738-2.293c14.4,3.688,20.327-12.069,18.1-16.485S874.256,452.683,874.256,452.683Z" transform="translate(-821.083 -452.543)"/></g><path class="l" d="M818.747,661.2l-9.45,5.443s-12.238,1.487-4.087,4.358,27.118-.126,27.118-.126-1.054-8.519-2.523-9.708S818.747,661.2,818.747,661.2Z" transform="translate(-607.061 -494.759)"/><path class="m" d="M885.747,483.152c-15.538.141-20.738,2.293-20.738,2.293s3.47,27.967.5,31.627-1.014,10.959-1.014,10.959L850.14,526.7s.025-.467.065-1.3c.344-6.872,1.859-38.772.615-43.109a7.02,7.02,0,0,1,.108-3.8,11.008,11.008,0,0,1,9.377-7.9,127.127,127.127,0,0,0,15.256-2.6l.24-.061a65.219,65.219,0,0,0,12.815-4.521s13-1.168,15.225,3.248a5.225,5.225,0,0,1,.455,2.228C904.4,474.851,898.289,486.369,885.747,483.152Z" transform="translate(-653.463 -354.161)"/><path class="h" d="M850.752,436.84l-.526,5.686s-1.263-.089-3.141-.286c-6.414-.667-20.019-2.542-15.21-6.147,4.137-3.1,11.119-1.746,15.333-.492,1.537.461,2.717.907,3.242,1.119C850.645,436.794,850.752,436.84,850.752,436.84Z" transform="translate(-626.978 -326.573)"/><path class="h" d="M982.764,289.693s-1.924,1.506-4.275,3.159c-2.578.584-5.572,1.066-7.729,1.38a12.27,12.27,0,0,0-.562-7.649,28.8,28.8,0,0,0-3.857-7.093l13.006-4.06c-1.02,2.585-.559,5.532.307,8.095A26.691,26.691,0,0,0,982.764,289.693Z" transform="translate(-733.952 -209.46)"/><path class="e" d="M887.159,441.593l-.378,4.084s-1.263-.089-3.141-.286l.123-6.641c1.537.461,2.717.907,3.242,1.119Z" transform="translate(-664.14 -329.834)"/><path class="i" d="M848.7,426.526l-3.915-.363.129-7.093,3.132.289Z" transform="translate(-625.107 -310.439)"/><path class="e" d="M991.457,307.9s-1.924,1.506-4.275,3.159c-2.578.584-5.572,1.066-7.729,1.38a12.27,12.27,0,0,0-.562-7.649c3.178-.922,7.723-2.114,9.459-3.073A26.689,26.689,0,0,0,991.457,307.9Z" transform="translate(-742.645 -228.541)"/><path class="i" d="M980.783,302.22s2.176,4.939,3.547,7.17-15.926,4.3-15.926,4.3-1.795-6.217-.937-6.93S979.336,303.664,980.783,302.22Z" transform="translate(-734.572 -228.953)"/><path class="e" d="M962.178,468.895a15.561,15.561,0,0,1-2.692,3.485c-7.64,7.259-20.164-.307-25.815-4.444a65.218,65.218,0,0,0,12.815-4.521s13-1.168,15.225,3.248A5.226,5.226,0,0,1,962.178,468.895Z" transform="translate(-711.322 -348.439)"/><path class="j" d="M953.093,369.817c-8.685,8.249-23.664-2.674-27.7-5.891-.655-.522-1.02-.845-1.02-.845,1.595-1.494,3-4.659,4.106-8.531a74.866,74.866,0,0,0,2.234-11.3,41.95,41.95,0,0,1,6.614-18.08c.47-.707.922-1.368,1.392-1.945a28.548,28.548,0,0,1,8.79-6.82c11.629-3.4,13.193,13.851,12.883,14.349S963.188,360.226,953.093,369.817Z" transform="translate(-704.88 -242.308)"/><path class="e" d="M954.217,371.557s-7.477,18.255-10.468,19.3c-1.712.593-10.855-.532-18.36-1.6-.655-.522-1.02-.845-1.02-.845,1.595-1.494,3-4.659,4.106-8.531l9.665.461s-.538-5.575.882-18.077,9.29-9.4,9.29-9.4C961.335,357.214,954.217,371.557,954.217,371.557Z" transform="translate(-704.88 -268.194)"/><path class="e" d="M852.7,426.872l-1.69-.157-.449-7.145,1.484.135Z" transform="translate(-629.176 -310.798)"/><path class="j" d="M925.594,350.235s-7.871-3.095-9.29,9.4-.882,18.077-.882,18.077l-23.581-1.128.532,8.47s25.665,4.213,28.655,3.175,10.468-19.3,10.468-19.3S938.6,354.593,925.594,350.235Z" transform="translate(-682.348 -266.237)"/><path class="e" d="M979.278,282.662c-.344-1.869,1.607-1.844,2.308-3.6l-13.006,4.06a28.716,28.716,0,0,1,2.409,3.832,10.789,10.789,0,0,0,2.068.4C976.159,287.647,977.127,284.595,979.278,282.662Z" transform="translate(-735.503 -211.622)"/><circle class="h" cx="10.744" cy="10.744" r="10.744" transform="translate(226.154 75.367) rotate(-84.72)"/><path class="e" d="M949.567,218.732c.132,1.119,1.312,1.8,2.409,2.053a10.557,10.557,0,0,1,3.248.851c1.537.947,1.952,3.049,1.758,4.856-.108,1.02-.261,2.271.575,2.864a2.227,2.227,0,0,0,.86.307,8.071,8.071,0,0,0,2.649.092,3.767,3.767,0,0,1,1.537-.04,2.338,2.338,0,0,1,1.438,1.9c.157.821.071,1.675.2,2.5a5.194,5.194,0,0,0,4.094,4.223,2.253,2.253,0,0,0,1.444-.129,2.887,2.887,0,0,0,1.134-1.573l1.844-4.413a34.389,34.389,0,0,0,2.108-6.1,17.186,17.186,0,0,0-.735-9.509,6.093,6.093,0,0,0-2.062-3.009c-2.05-1.392-4.917-.43-7.247-1.229-.771-.267-1.466-.722-2.234-1a6.881,6.881,0,0,0-5.142.467,24.316,24.316,0,0,0-4.3,3C951.922,215.794,949.337,216.8,949.567,218.732Z" transform="translate(-722.324 -161.989)"/><path class="n" d="M950.488,217.962c.132,1.119,1.312,1.8,2.409,2.053a10.557,10.557,0,0,1,3.248.851c1.537.947,1.951,3.049,1.758,4.856-.108,1.02-.261,2.271.575,2.864a2.229,2.229,0,0,0,.861.307,8.071,8.071,0,0,0,2.649.092,3.766,3.766,0,0,1,1.537-.04,2.338,2.338,0,0,1,1.438,1.9c.157.821.071,1.675.2,2.5a5.194,5.194,0,0,0,4.094,4.223,2.252,2.252,0,0,0,1.444-.129,2.886,2.886,0,0,0,1.134-1.573l1.844-4.413a34.39,34.39,0,0,0,2.108-6.1,17.186,17.186,0,0,0-.735-9.509,6.093,6.093,0,0,0-2.062-3.009c-2.05-1.392-4.917-.43-7.247-1.229-.771-.267-1.466-.722-2.234-1a6.881,6.881,0,0,0-5.142.467,24.315,24.315,0,0,0-4.3,3C952.845,215.024,950.261,216.029,950.488,217.962Z" transform="translate(-722.962 -161.415)"/><path class="e" d="M954.993,373.34s-4.1,15.938-8.187,17.413-2.28,1.893-2.28,1.893" transform="translate(-714.382 -282.244)"/><rect class="b" width="4.459" height="29.31" transform="translate(232.161 138.737)"/><rect class="e" width="4.459" height="2.173" transform="translate(232.161 141.691)"/><path class="b" d="M936.57,559.571v.615a1.441,1.441,0,0,0,1.441,1.441h19.417a1.441,1.441,0,0,0,1.441-1.441v-.615a1.441,1.441,0,0,0-1.441-1.441H938.011A1.441,1.441,0,0,0,936.57,559.571Z" transform="translate(-713.331 -417.918)"/><path class="e" d="M937.65,558.656h21.639a1.435,1.435,0,0,0-1.112-.526H938.759A1.435,1.435,0,0,0,937.65,558.656Z" transform="translate(-714.079 -417.631)"/><rect class="b" width="36.636" height="3.504" rx="1.752" transform="translate(216.075 165.003)"/><circle class="d" cx="2.231" cy="2.231" r="2.231" transform="translate(248.409 167.853)"/><circle class="d" cx="2.231" cy="2.231" r="2.231" transform="translate(226.952 167.853)"/><circle class="d" cx="2.231" cy="2.231" r="2.231" transform="translate(232.161 167.853)"/><rect class="b" width="35.044" height="5.415" rx="2.708" transform="translate(229.653 110.962)"/><path class="e" d="M970.059,653.5s-1.752,1.73-4.459,0" transform="translate(-733.439 -488.186)"/><path class="e" d="M992.484,455.17v.427a2.228,2.228,0,0,1-2.228,2.228H959.668a2.228,2.228,0,0,1-2.228-2.228v-.427Z" transform="translate(-727.787 -341.655)"/><rect class="b" width="6.027" height="76.788" transform="translate(213.621 109.312)"/><rect class="e" width="6.027" height="4.979" transform="translate(213.621 117.537)"/><rect class="b" width="4.459" height="29.31" transform="translate(60.556 140.474)"/><rect class="e" width="4.459" height="2.173" transform="translate(60.556 143.466)"/><path class="b" d="M265.91,566.429v.615a1.441,1.441,0,0,1-1.441,1.441H245.051a1.441,1.441,0,0,1-1.441-1.441v-.615A1.441,1.441,0,0,1,245.051,565h19.417a1.441,1.441,0,0,1,1.441,1.441Z" transform="translate(-191.135 -423)"/><path class="e" d="M266.322,565.51H244.68a1.435,1.435,0,0,1,1.113-.51h19.417A1.435,1.435,0,0,1,266.322,565.51Z" transform="translate(-191.909 -422.709)"/><rect class="b" width="36.636" height="3.504" rx="1.752" transform="translate(46.053 166.775)"/><circle class="d" cx="2.231" cy="2.231" r="2.231" transform="translate(55.342 169.625)"/><circle class="d" cx="2.231" cy="2.231" r="2.231" transform="translate(74.297 169.625)"/><circle class="d" cx="2.231" cy="2.231" r="2.231" transform="translate(60.554 169.625)"/><path class="e" d="M272.64,660.32s1.752,1.73,4.459,0" transform="translate(-212.084 -493.23)"/><path class="o" d="M628.4,303.059s-5-9.094-3.175-17a15.726,15.726,0,0,0-.876-9.908A26.45,26.45,0,0,0,622,271.93" transform="translate(-470.783 -207.531)"/><path class="j" d="M615.663,251.4c.261,1.192-1.137,5.123-1.137,5.123s-2.917-2.981-3.181-4.173a2.21,2.21,0,1,1,4.3-.95Z" transform="translate(-462.668 -189.666)"/><path class="j" d="M632.338,267.717c-.427,1.143-3.737,3.688-3.737,3.688s-.83-4.087-.4-5.225a2.21,2.21,0,1,1,4.14,1.537Z" transform="translate(-475.121 -200.877)"/><path class="j" d="M638.036,302.6c-.947.771-5.086,1.291-5.086,1.291s1.349-3.946,2.3-4.717a2.21,2.21,0,1,1,2.791,3.427Z" transform="translate(-478.848 -225.994)"/><path class="j" d="M638.144,332.212c-.8.922-4.794,2.133-4.794,2.133s.661-4.118,1.463-5.037a2.21,2.21,0,1,1,3.328,2.9Z" transform="translate(-479.101 -248.112)"/><path class="j" d="M612.727,281.279c1.039.642,5.209.615,5.209.615s-1.844-3.74-2.883-4.382a2.21,2.21,0,1,0-2.326,3.756Z" transform="translate(-463.099 -210.034)"/><path class="j" d="M611.449,314.938c1.183.307,5.157-.959,5.157-.959s-2.88-3.018-4.063-3.319a2.21,2.21,0,0,0-1.094,4.278Z" transform="translate(-461.832 -234.787)"/><path class="j" d="M616.381,348.327c1.113.5,5.246-.074,5.246-.074s-2.329-3.461-3.442-3.958a2.21,2.21,0,1,0-1.8,4.035Z" transform="translate(-465.667 -259.581)"/><path class="j" d="M615.663,251.4c.261,1.192-1.137,5.123-1.137,5.123s-2.917-2.981-3.181-4.173a2.21,2.21,0,1,1,4.3-.95Z" transform="translate(-462.668 -189.666)"/><path class="j" d="M632.338,267.717c-.427,1.143-3.737,3.688-3.737,3.688s-.83-4.087-.4-5.225a2.21,2.21,0,1,1,4.14,1.537Z" transform="translate(-475.121 -200.877)"/><path class="j" d="M638.036,302.6c-.947.771-5.086,1.291-5.086,1.291s1.349-3.946,2.3-4.717a2.21,2.21,0,1,1,2.791,3.427Z" transform="translate(-478.848 -225.994)"/><path class="j" d="M638.144,332.212c-.8.922-4.794,2.133-4.794,2.133s.661-4.118,1.463-5.037a2.21,2.21,0,1,1,3.328,2.9Z" transform="translate(-479.101 -248.112)"/><path class="j" d="M612.727,281.279c1.039.642,5.209.615,5.209.615s-1.844-3.74-2.883-4.382a2.21,2.21,0,1,0-2.326,3.756Z" transform="translate(-463.099 -210.034)"/><path class="j" d="M611.449,314.938c1.183.307,5.157-.959,5.157-.959s-2.88-3.018-4.063-3.319a2.21,2.21,0,0,0-1.094,4.278Z" transform="translate(-461.832 -234.787)"/><path class="j" d="M616.381,348.327c1.113.5,5.246-.074,5.246-.074s-2.329-3.461-3.442-3.958a2.21,2.21,0,1,0-1.8,4.035Z" transform="translate(-465.667 -259.581)"/><path class="j" d="M624.315,390.1h0a5.268,5.268,0,0,1-5.258-5.6l1.472-23.326H628.1l1.472,23.326a5.268,5.268,0,0,1-5.258,5.6Z" transform="translate(-468.938 -273.904)"/><rect class="a" width="4.303" height="17.825" transform="translate(25.694 19.491)"/><rect class="a" width="4.303" height="17.825" transform="translate(31.226 19.491)"/><rect class="a" width="4.303" height="17.825" transform="translate(36.758 19.491)"/><rect class="a" width="4.303" height="17.825" transform="translate(42.29 19.491)"/><rect class="a" width="4.303" height="17.825" transform="translate(53.354 19.491)"/><rect class="a" width="4.303" height="17.825" transform="translate(54.546 19.491)"/><rect class="a" width="4.303" height="0.922" transform="translate(25.694 22.871)"/><rect class="a" width="4.303" height="0.922" transform="translate(25.694 33.935)"/><rect class="a" width="4.303" height="0.922" transform="translate(31.226 22.871)"/><rect class="a" width="4.303" height="0.922" transform="translate(31.226 33.935)"/><rect class="a" width="4.303" height="0.922" transform="translate(36.758 22.871)"/><rect class="a" width="4.303" height="0.922" transform="translate(36.758 33.935)"/><rect class="a" width="4.303" height="0.922" transform="translate(42.29 22.871)"/><rect class="a" width="4.303" height="0.922" transform="translate(42.29 33.935)"/><rect class="a" width="4.303" height="0.922" transform="translate(47.822 22.871)"/><rect class="a" width="4.303" height="0.922" transform="translate(47.822 33.935)"/><rect class="a" width="4.303" height="0.922" transform="translate(53.354 22.871)"/><rect class="a" width="4.303" height="0.922" transform="translate(53.354 33.935)"/><rect class="a" width="4.303" height="0.922" transform="translate(54.546 22.871)"/><rect class="a" width="4.303" height="0.922" transform="translate(54.546 33.935)"/><rect class="a" width="4.303" height="17.825" transform="translate(47.822 19.491)"/><rect class="a" width="4.303" height="17.825" transform="translate(53.368 21.221) rotate(-24.84)"/><rect class="a" width="4.303" height="0.922" transform="translate(54.778 24.292) rotate(-24.84)"/><rect class="a" width="4.303" height="0.922" transform="translate(58.708 34.331) rotate(-24.84)"/><path class="p" d="M275.627,345.223l-7.809-4.982c-.04-7.016-.151-39.59,1.309-43.948a7.158,7.158,0,0,0,.061-3.875,11.219,11.219,0,0,0-9.2-8.464,132.182,132.182,0,0,1-15.213-3.273c4.367-.452,7.64-.842,7.64-.842l.086-.808,2.812-.135v-.12l.267-.015c6.568-.39,20.514-1.69,15.775-5.581A10.929,10.929,0,0,0,265.375,271c6.841-1.561,17.533-4.585,12.766-7.428-4.53-2.7-11.466-.578-15.606,1.146l-.255.108-.046-.372-1.653.332h0l-.526.1-.025-.541-23.2,3.583a79.181,79.181,0,0,0-.947-7.932c.519-3.46,2.935-8.507,2.084-11.214-.99-3.144-5.052-4.173-6.761-7.013-.449-.741-.894-1.435-1.331-2.044A21.514,21.514,0,0,0,226.6,236.2a14.936,14.936,0,0,1,1.2-5.3,25.683,25.683,0,0,1,1.623-3.258,10.941,10.941,0,0,0,8.126-12.6c1.469.63,3.255.695,4.173-.535l-.436-.169a1.383,1.383,0,0,0,.123-.144,8.249,8.249,0,0,1-2.545-1.349,2.981,2.981,0,0,1-.446-.661c-.424-.861-.375-1.893-.781-2.766a3.2,3.2,0,0,0-.8-1.039,5.48,5.48,0,0,0-2.6-1.487,32.87,32.87,0,0,1-3.341-.922,11.294,11.294,0,0,0-12.02-3.381l-.384.132a5.012,5.012,0,1,0-9.777-2.213,5,5,0,0,1,1.341-2.993c-.08.068-.163.132-.24.2a5.016,5.016,0,0,0-.218,7.09l.089.086a5.037,5.037,0,0,0,1.257,1.1,5.016,5.016,0,0,1-3.307-4.109v.307a5.016,5.016,0,0,0,5.332,4.714l.138-.015-.074.1a11.282,11.282,0,0,0,1.014,13.968,5.225,5.225,0,0,0,.805,1.291,4.184,4.184,0,0,0,.372.375,4.767,4.767,0,0,0,3.215,1.481,9.611,9.611,0,0,0,.655.7,18.294,18.294,0,0,1-.793,2.532,26.841,26.841,0,0,1-2.434,4.693c-6.638,1.887-7.222,13.16-6.982,13.587.286.51-.99,18.212,3.928,39.6-.2,6.113,3.362,16.221,16.018,13.556,15.827.845,21.018,3.27,21.018,3.27s-1.5,27.527.642,31.535c1.343,2.511.39,6.2-.615,8.8a9.673,9.673,0,0,0-.885,2.041c-.307.648-.532,1.042-.532,1.042h.215c-.811,2.818-1.386,6.22-1.386,6.22s19.186,3.894,27.626,1.346c3.276-.99,3.411-1.905,2.348-2.661a17.1,17.1,0,0,0,2.317-.507C288.037,347.31,275.627,345.223,275.627,345.223Z" transform="translate(-160.956 -162.388)"/><path class="q" d="M243.127,230.064A11.064,11.064,0,1,1,232.064,219a11.064,11.064,0,0,1,11.064,11.064Z" transform="translate(-174.339 -167.671)"/><path class="h" d="M374.09,415.13l1.122,5.6s1.248-.224,3.095-.615c6.309-1.337,19.641-4.638,14.478-7.717-4.441-2.646-11.242-.565-15.3,1.125-1.487.615-2.606,1.186-3.107,1.454C374.191,415.071,374.09,415.13,374.09,415.13Z" transform="translate(-287.913 -309.578)"/><path class="e" d="M375.058,422.087l.805,4.02s1.248-.224,3.095-.615l-.821-6.592c-1.487.615-2.606,1.186-3.107,1.454Z" transform="translate(-287.832 -315.153)"/><path class="i" d="M334.555,407.132l3.854-.771-.873-7.041-3.086.618Z" transform="translate(-247.482 -295.836)"/><path class="e" d="M334.555,407.866l1.663-.335-.3-7.151-1.463.292Z" transform="translate(-247.381 -296.596)"/><path class="j" d="M243.621,342.667s7.5-3.909,10.228,8.375,2.766,17.883,2.766,17.883l23.332-3.6.363,8.479s-25.078,6.893-28.16,6.174-12.441-18.086-12.441-18.086S231.135,348.38,243.621,342.667Z" transform="translate(-186.799 -260.35)"/><g class="k" transform="translate(49.87 82.231)"><path d="M374.09,415.13l1.122,5.6s1.248-.224,3.095-.615c6.309-1.337,19.641-4.638,14.478-7.717-4.441-2.646-11.242-.565-15.3,1.125-1.487.615-2.606,1.186-3.107,1.454C374.191,415.071,374.09,415.13,374.09,415.13Z" transform="translate(-332.523 -390.527)"/><path class="e" d="M375.058,422.087l.805,4.02s1.248-.224,3.095-.615l-.821-6.592c-1.487.615-2.606,1.186-3.107,1.454Z" transform="translate(-333.175 -395.905)"/><path d="M334.555,407.132l3.854-.771-.873-7.041-3.086.618Z" transform="translate(-292.865 -376.583)"/><path class="e" d="M334.555,407.866l1.663-.335-.3-7.151-1.463.292Z" transform="translate(-292.865 -377.317)"/><path d="M245.621,344.667s7.5-3.909,10.228,8.375,2.766,17.883,2.766,17.883l23.332-3.6.363,8.479s-25.078,6.893-28.16,6.174-12.441-18.086-12.441-18.086S233.135,350.38,245.621,344.667Z" transform="translate(-238.838 -344.076)"/></g><path class="r" d="M365.463,654.632l9.2,5.839s12.167,2.038,3.891,4.536-27.085-1.322-27.085-1.322,1.429-8.464,2.95-9.586S365.463,654.632,365.463,654.632Z" transform="translate(-271.62 -489.681)"/><path class="s" d="M250.111,452.119a65.692,65.692,0,0,0,12.84,5.154,128.082,128.082,0,0,0,15.127,3.273,11.005,11.005,0,0,1,9.02,8.3,7.019,7.019,0,0,1-.058,3.8c-1.6,4.8-1.278,44.4-1.278,44.4l-14.4.691s2.277-7.194-.529-10.993,1.893-31.572,1.893-31.572-5.1-2.379-20.618-3.205c-14.546,3.073-19.773-12.954-17.358-17.269S250.111,452.119,250.111,452.119Z" transform="translate(-185.167 -345.644)"/><g class="k" transform="translate(48.523 104.964)"><path d="M365.463,654.632l9.2,5.839s12.167,2.038,3.891,4.536-27.085-1.322-27.085-1.322,1.429-8.464,2.95-9.586S365.463,654.632,365.463,654.632Z" transform="translate(-315.426 -591.65)"/><path d="M250.111,452.119a65.692,65.692,0,0,0,12.84,5.154,128.082,128.082,0,0,0,15.127,3.273,11.005,11.005,0,0,1,9.02,8.3,7.019,7.019,0,0,1-.058,3.8c-1.6,4.8-1.278,44.4-1.278,44.4l-14.4.691s2.277-7.194-.529-10.993,1.893-31.572,1.893-31.572-5.1-2.379-20.618-3.205c-14.546,3.073-19.773-12.954-17.358-17.269S250.111,452.119,250.111,452.119Z" transform="translate(-234.188 -451.772)"/></g><path class="r" d="M350.543,664.742l9.2,5.839s12.167,2.038,3.891,4.536S336.55,673.8,336.55,673.8s1.429-8.464,2.95-9.586S350.543,664.742,350.543,664.742Z" transform="translate(-260.521 -497.179)"/><path class="s" d="M242.243,482.768c15.52.827,20.618,3.205,20.618,3.205s-1.472,26.989.615,30.917c2.228,4.167-1.991,11.648-1.991,11.648l14.4-.692v-1.3c-.043-6.878-.148-38.815,1.282-43.1a7.02,7.02,0,0,0,.058-3.8,11.008,11.008,0,0,0-9.02-8.3,127.3,127.3,0,0,1-15.127-3.27l-.237-.074a64.453,64.453,0,0,1-12.6-5.08s-9.585-.664-11.986,3.651c-.307.559-1.632,1.66-1.687,2.548C226.2,475.07,229.587,485.433,242.243,482.768Z" transform="translate(-179.367 -353.994)"/><path class="h" d="M351.81,440.8l.274,5.7s1.266-.034,3.153-.148c6.438-.384,20.114-1.656,15.468-5.47-4-3.279-11.033-2.234-15.3-1.168-1.564.393-2.766.787-3.288.974C351.918,440.764,351.81,440.8,351.81,440.8Z" transform="translate(-271.374 -329.851)"/><path class="h" d="M233,287.51s1.844,1.589,4.13,3.347c2.551.695,5.532,1.312,7.662,1.721a12.293,12.293,0,0,1,.9-7.619,28.794,28.794,0,0,1,4.167-6.918l-12.815-4.631c.907,2.628.307,5.563-.667,8.073A26.691,26.691,0,0,1,233,287.51Z" transform="translate(-183.095 -207.979)"/><path class="e" d="M352.06,444.762l.2,4.1s1.266-.034,3.153-.147l.172-6.641c-1.564.393-2.766.787-3.288.974Z" transform="translate(-270.817 -332.282)"/><path class="i" d="M309.62,429.641l3.925-.187.184-7.093-3.141.151Z" transform="translate(-229.115 -312.863)"/><path class="j" d="M218.065,367.5c8.3,8.627,23.772-1.626,27.933-4.662.676-.495,1.054-.8,1.054-.8-1.537-1.564-4-3.012-4.939-6.93a85.128,85.128,0,0,1-1.826-12.146c-.255-3.242,3.095-9.416,2.127-12.5s-4.954-4.09-6.629-6.878c-.439-.725-.876-1.408-1.306-2a28.7,28.7,0,0,0-8.479-7.2c-11.479-3.918-12.379,12.474-12.093,12.985S212.88,345.953,218.065,367.5Z" transform="translate(-169.35 -240.69)"/><path class="e" d="M223.669,369.653s6.666,18.569,9.607,19.74c1.684.67,10.87-.052,18.412-.793.676-.495,1.054-.8,1.054-.8-1.537-1.564-2.787-4.788-3.728-8.7l-9.678.034s.784-5.532-.083-18.1-8.866-9.8-8.866-9.8C217.193,355.012,223.669,369.653,223.669,369.653Z" transform="translate(-175.389 -267.056)"/><path class="e" d="M309.62,429.821l1.693-.08.765-7.121-1.491.071Z" transform="translate(-229.044 -313.049)"/><path class="j" d="M231.128,348.637s7.99-2.744,8.866,9.8.092,18.1.092,18.1l23.609-.086-.907,8.439s-25.815,3.073-28.766,1.909-9.61-19.736-9.61-19.736S217.931,352.42,231.128,348.637Z" transform="translate(-176.257 -265.121)"/><path class="e" d="M245.951,280.688c.427-1.844-1.537-1.9-2.151-3.688l12.822,4.61a28.706,28.706,0,0,0-2.575,3.722,10.793,10.793,0,0,1-2.084.307C248.846,285.793,248.013,282.71,245.951,280.688Z" transform="translate(-190.985 -210.112)"/><circle class="h" cx="10.744" cy="10.744" r="10.744" transform="translate(50.114 55.182) rotate(-2.75)"/><path class="e" d="M253,375.14s3.4,16.1,7.413,17.745,2.194,1.995,2.194,1.995" transform="translate(-197.717 -283.613)"/><path class="e" d="M284.727,397.166s-2.84.888-6.147-3.356" transform="translate(-216.536 -296.308)"/><circle class="q" cx="4.917" cy="4.917" r="4.917" transform="translate(49.265 47.422)"/><path class="q" d="M213.741,211.287a4.917,4.917,0,0,1,0-6.727c-.08.065-.16.129-.234.2a4.918,4.918,0,1,0,6.737,7.167c.077-.071.144-.148.212-.221a4.917,4.917,0,0,1-6.715-.418Z" transform="translate(-159.017 -156.436)"/><path class="q" d="M215.235,221.407a4.917,4.917,0,0,1-5.175-4.3v.307a4.918,4.918,0,1,0,9.816-.615,2.611,2.611,0,0,0-.034-.307A4.917,4.917,0,0,1,215.235,221.407Z" transform="translate(-157.702 -165.159)"/><path class="e" d="M245.249,225.789a22.026,22.026,0,0,0,3.688,1.079,4.571,4.571,0,0,1,3.024,2.17c.4.854.35,1.865.765,2.711.6,1.229,1.973,1.795,3.239,2.277-1.088,1.46-3.424,1.063-4.948.071s-2.837-2.459-4.61-2.843a4.327,4.327,0,0,0-4.551,2.025,10.93,10.93,0,0,0-.9,2.791,10.461,10.461,0,0,1-4,6.4c-2.151,1.417-5.357,1.408-7.044-.532a8.71,8.71,0,0,1-1.6-4.14,8.41,8.41,0,0,1-.237-2.093c.1-1.764,1.272-3.267,2.459-4.576,1.4-1.537,2.886-3.012,4.373-4.478,1.285-1.266,2.766-3.411,4.7-3.562C241.844,222.906,243.42,224.895,245.249,225.789Z" transform="translate(-179.767 -170.626)"/><path class="q" d="M244.249,224.789a22.022,22.022,0,0,0,3.688,1.079,4.571,4.571,0,0,1,3.024,2.17c.4.854.35,1.865.765,2.711.6,1.229,1.973,1.795,3.239,2.277-1.088,1.46-3.424,1.063-4.948.071s-2.837-2.459-4.61-2.843a4.327,4.327,0,0,0-4.551,2.025,10.931,10.931,0,0,0-.9,2.791,10.461,10.461,0,0,1-4,6.4c-2.151,1.417-5.357,1.408-7.044-.532a8.71,8.71,0,0,1-1.6-4.14,8.411,8.411,0,0,1-.237-2.093c.1-1.764,1.272-3.267,2.459-4.576,1.4-1.537,2.886-3.012,4.373-4.478,1.285-1.266,2.766-3.411,4.7-3.562C240.844,221.906,242.42,223.895,244.249,224.789Z" transform="translate(-179.023 -169.883)"/><rect class="b" width="35.044" height="5.415" rx="2.708" transform="translate(43.513 112.732)"/><path class="e" d="M181.28,462v.427a2.228,2.228,0,0,0,2.228,2.228H214.1a2.228,2.228,0,0,0,2.228-2.228V462Z" transform="translate(-137.767 -346.709)"/><rect class="b" width="6.027" height="76.779" transform="translate(88.934 109.313)"/><rect class="e" width="6.027" height="4.979" transform="translate(88.934 117.537)"/><rect class="b" width="159.324" height="9.957" transform="translate(73.37 112.482)"/></svg>