<svg xmlns="http://www.w3.org/2000/svg" width="276" height="150.131" viewBox="0 0 276 150.131"><defs><style>.a{fill:#f2f2f2;}.b{fill:#fff;}.c{fill:#ccc;}.d{fill:#2f2e41;}.e{fill:#a0616a;}.f{fill:#6c63ff;}.g{fill:#3f3d56;}.h{fill:#ffb8b8;}.i{opacity:0.2;}.j{fill:#e6e6e6;}.k{fill:#ff6584;}</style></defs><path class="a" d="M262.821,551.734a126.651,126.651,0,0,1-1.194,16.274c-.026.189-.055.379-.081.568l-50.99-.285c-.15-.188-.3-.378-.44-.571-.476-.638-.922-1.293-1.332-1.971-1.969-3.268-2.87-7.093-1.967-9.733l.016-.041a4.632,4.632,0,0,1,.9-1.571c2.059-2.318,6.223-1.932,10-.061-3.389-3.709-6.087-8.39-6.292-12.568-.2-4.075,1.93-6.987,4.241-9.461.076-.082.152-.161.227-.241.037-.041.076-.079.113-.12,1.8-1.885,3.906-3.744,6.949-3.519,3.337.247,7.037,3.042,9.632,6.3a54.473,54.473,0,0,1,6.066,10.562,42.63,42.63,0,0,0,6.451,10.388c-3.8-4.81-6.869-10.283-8-15.606s-.136-10.435,3.253-12.942a7.927,7.927,0,0,1,3.472-1.4c.146-.024.295-.044.446-.061A13.916,13.916,0,0,1,254.366,529a23.184,23.184,0,0,1,7.155,11.109A37.88,37.88,0,0,1,262.821,551.734Z" transform="translate(-206.467 -419.267)"/><path class="b" d="M230.818,634.074l-.975-.005q-.464-.29-.933-.574c-.193-.122-.389-.24-.585-.36q-4.851-2.963-9.763-5.684t-9.864-5.2a.409.409,0,0,1-.235-.467.118.118,0,0,1,.016-.034c.046-.087.149-.122.3-.049.405.2.813.406,1.218.614q4.97,2.515,9.9,5.281t9.792,5.773l.2.127Z" transform="translate(-207.824 -484.944)"/><path class="b" d="M261.947,582.442l-.6,0c-.136-.19-.27-.381-.406-.571l-9.583-13.441q-7.845-11-15.685-22a.387.387,0,0,1-.068-.133c-.045-.162.075-.258.227-.241a.458.458,0,0,1,.319.2l8.794,12.336,15.606,21.892.992,1.392Q261.745,582.157,261.947,582.442Z" transform="translate(-226.381 -433.242)"/><path class="b" d="M336.273,564.882c-.031,1.016-.1,2.016-.186,3.007l-.051.568-.633,0c.019-.189.039-.379.056-.568.134-1.431.229-2.878.241-4.365a60.9,60.9,0,0,0-1.2-12.275,76.431,76.431,0,0,0-3.713-12.753,87.582,87.582,0,0,0-6.075-12.617.337.337,0,0,1-.056-.224c.026-.18.266-.234.446-.061a.523.523,0,0,1,.091.115q.438.753.859,1.51a87.519,87.519,0,0,1,5.814,12.662,76.068,76.068,0,0,1,3.462,12.772,60.076,60.076,0,0,1,.943,12.235Z" transform="translate(-287.275 -419.183)"/><path class="c" d="M830.981,557.975c0-2.445-9.2-4.428-20.558-4.428s-20.558,1.982-20.558,4.428c0,1.567,3.784,2.943,9.488,3.73v24.26a2.056,2.056,0,0,0,4.112,0V562.142c2.174.168,4.516.261,6.958.261s4.785-.092,6.958-.261v23.823a2.056,2.056,0,1,0,4.112,0V561.705C827.2,560.918,830.981,559.542,830.981,557.975Z" transform="translate(-578.281 -438.37)"/><circle class="d" cx="8.856" cy="8.856" r="8.856" transform="translate(225.559 52.476)"/><path class="e" d="M573.535,382.7h-3.878l-1.845-14.956h5.723Z" transform="translate(-368.239 -236.712)"/><path class="d" d="M554.709,411.531h7.478v4.708H550A4.708,4.708,0,0,1,554.709,411.531Z" transform="translate(-356.159 -266.649)"/><path class="e" d="M558.77,373.639l-3.7-1.161,2.717-14.822,5.46,1.713Z" transform="translate(-359.776 -229.814)"/><path class="d" d="M4.708,0h7.478V4.708H0A4.708,4.708,0,0,1,4.708,0Z" transform="translate(187.954 139.372) rotate(17.423)"/><path class="d" d="M767.987,557.661a1.41,1.41,0,0,1-.5-.09l-2.853-1.07a1.428,1.428,0,0,1-.89-1.64c.718-3.229,3.166-14.223,4.506-20.12,1.59-6.995,24.778-8.294,25.765-8.346l.081,0,2.609,3.278c.943,3.03.644,5.393-.888,7.024-4.47,4.759-17.815,1.806-19.407,1.432l-7.093,18.62A1.427,1.427,0,0,1,767.987,557.661Z" transform="translate(-565.321 -419.803)"/><path class="d" d="M780.987,564.661a1.412,1.412,0,0,1-.5-.091l-2.853-1.07a1.428,1.428,0,0,1-.89-1.639c.718-3.229,3.166-14.223,4.506-20.12,1.59-6.995,24.778-8.294,25.765-8.346l.081,0,2.609,3.278c.943,3.03.644,5.393-.888,7.024-4.47,4.759-17.815,1.806-19.407,1.432l-7.093,18.62A1.427,1.427,0,0,1,780.987,564.661Z" transform="translate(-569.29 -424.589)"/><path class="e" d="M751.234,485.4a3.326,3.326,0,0,1,.28.443l15.6,1.643,2.245-3.079,5.089,2.781-4.41,7.471-19.131-4.878a3.32,3.32,0,1,1,.328-4.383Z" transform="translate(-553.867 -396.345)"/><path class="f" d="M842.556,480.992a1.424,1.424,0,0,1-.648-.158c-3.119-1.586-9.193-4.333-14.825-4.908a1.389,1.389,0,0,1-.979-.553,1.429,1.429,0,0,1-.264-1.11,87.2,87.2,0,0,0,1.524-15.719,7.779,7.779,0,0,1,5.877-7.739h0a25.253,25.253,0,0,1,3.135-.618,7.842,7.842,0,0,1,8.716,9.1c-1,5.95-2.017,14.261-1.137,20.062a1.426,1.426,0,0,1-.575,1.375,1.4,1.4,0,0,1-.824.271Z" transform="translate(-602.862 -372.84)"/><path class="f" d="M819.759,471.34a1.423,1.423,0,0,1-.565-.118l-4.063-1.759a1.425,1.425,0,0,1-.741-1.871l3.141-7.256a3.637,3.637,0,0,1,6.676,2.889l-3.141,7.256a1.427,1.427,0,0,1-1.307.859Z" transform="translate(-600.238 -379.396)"/><circle class="e" cx="7.768" cy="7.768" r="7.768" transform="translate(226.323 55.917)"/><path class="d" d="M836.026,394.291a28.019,28.019,0,0,0,12.122,3.994l-1.278-1.531a9.392,9.392,0,0,0,2.9.576,3.177,3.177,0,0,0,2.589-1.212,2.955,2.955,0,0,0,.2-2.729,5.6,5.6,0,0,0-1.76-2.2,10.482,10.482,0,0,0-9.755-1.743,6.265,6.265,0,0,0-2.914,1.869c-.736.908-2.154,1.718-1.777,2.825Z" transform="translate(-609.842 -334.887)"/><path class="d" d="M804.195,371.795a23.875,23.875,0,0,0-8.686-5.617,12.221,12.221,0,0,0-6.58-.817,6.272,6.272,0,0,0-4.883,4.114,7.765,7.765,0,0,0,.793,5.315c.777,1.658,1.815,3.2,2.443,4.915a11.218,11.218,0,0,1-11.288,15.043c2.157.289,4.145,1.3,6.253,1.842s4.6.5,6.163-1.007c1.658-1.6,1.691-4.2,1.611-6.5l-.357-10.262a13.037,13.037,0,0,1,.516-5.173,4.442,4.442,0,0,1,3.87-3.039,6.349,6.349,0,0,1,3.555,1.6,7.263,7.263,0,0,0,3.5,1.751c1.318.118,2.822-.858,2.724-2.177" transform="translate(-573.776 -318.507)"/><path class="e" d="M812.221,505.014a3.48,3.48,0,1,1,1.342-6.694h0a3.338,3.338,0,0,1,.415.21l14.151-6.353.4-3.838,6.1-.163-.04,6.389a3.441,3.441,0,0,1-2.486,3.271l-16.548,4.71a3.23,3.23,0,0,1-.114.322,3.493,3.493,0,0,1-3.216,2.144Z" transform="translate(-591.189 -398.492)"/><path class="f" d="M873.857,470.7a1.422,1.422,0,0,1-.557.151l-4.42.272a1.425,1.425,0,0,1-1.508-1.333l-.485-7.892a3.637,3.637,0,0,1,7.261-.447l.485,7.892a1.427,1.427,0,0,1-.776,1.357Z" transform="translate(-630.938 -379.339)"/><path class="g" d="M1.107,0H26.093A1.107,1.107,0,0,1,27.2,1.107h0a1.107,1.107,0,0,1-1.107,1.107H1.107A1.107,1.107,0,0,1,0,1.107H0A1.107,1.107,0,0,1,1.107,0Z" transform="translate(229.345 107.937) rotate(180)"/><path class="g" d="M745.07,499.49v-15.5a2.058,2.058,0,0,1,2.056-2.056h28.149a2.058,2.058,0,0,1,2.056,2.056v15.5a2.058,2.058,0,0,1-2.056,2.056H747.126a2.058,2.058,0,0,1-2.056-2.056Z" transform="translate(-553.441 -394.239)"/><circle class="b" cx="1.898" cy="1.898" r="1.898" transform="translate(204.962 95.3)"/><path class="h" d="M451.061,442.874a3.18,3.18,0,0,0-4.846-.552l-10.043-5.184.624,5.84,9.442,4.027a3.2,3.2,0,0,0,4.823-4.132Z" transform="translate(-355.1 -365.989)"/><path class="c" d="M402.93,399.392a1.425,1.425,0,0,1-1.16.012l-9.54-4.138a14.667,14.667,0,0,1-7.421-7.179L379.794,377.5a4.585,4.585,0,0,1,7.243-5.624l8.816,16.356,8.14,6.149a1.428,1.428,0,0,1,.5,1.556l-.8,2.581a1.425,1.425,0,0,1-.482.7,1.409,1.409,0,0,1-.284.173Z" transform="translate(-317.704 -321.775)"/><circle class="h" cx="7.768" cy="7.768" r="7.768" transform="translate(52.997 24.528)"/><path class="h" d="M184.659,383.5h3.877l1.845-14.956h-5.723Z" transform="translate(-119.755 -237.255)"/><path class="d" d="M0,0H12.186V4.708H4.708A4.708,4.708,0,0,1,0,0H0Z" transform="translate(76.342 149.841) rotate(179.997)"/><path class="h" d="M144.659,383.5h3.877l1.845-14.956h-5.723Z" transform="translate(-93.814 -237.255)"/><path class="d" d="M0,0H12.186V4.708H4.708A4.708,4.708,0,0,1,0,0H0Z" transform="translate(62.244 149.841) rotate(179.997)"/><path class="d" d="M346.085,525.726a1.423,1.423,0,0,1-.34-1.126l6.789-50.916,16.867,2.864,1.8-1.08-4.655,48.31a1.427,1.427,0,0,1-1.3,1.254l-5.107.426a1.423,1.423,0,0,1-1.539-1.5l1.322-23.007a.158.158,0,0,0-.311-.051l-6.542,24.259a1.426,1.426,0,0,1-1.374,1.053h-4.544a1.423,1.423,0,0,1-1.071-.486Z" transform="translate(-296.35 -383.766)"/><path class="c" d="M358.563,401.309a1.117,1.117,0,0,0-1.428-.06l-3.372,2.623a1.422,1.422,0,0,1-2.242-.73c-1.654-5.793-5.4-20.374-4.478-30.637a10.749,10.749,0,0,1,11.2-9.867c3.864.258,6.405,2.486,7.555,6.624,2.822,10.16,5.923,28.8,6.516,32.428a1.417,1.417,0,0,1-.676,1.451,10.418,10.418,0,0,1-5.279,1.486A11.581,11.581,0,0,1,358.563,401.309Z" transform="translate(-297.104 -316.234)"/><path class="h" d="M363.4,466.76a3.18,3.18,0,0,0-3.472-3.424l-4.7-10.277-3.113,4.981,4.944,9a3.2,3.2,0,0,0,6.345-.275Z" transform="translate(-300.799 -375.873)"/><path class="c" d="M344.484,406.847a1.425,1.425,0,0,1-.921-.706L338.61,397a14.667,14.667,0,0,1-1.409-10.228l2.587-11.425a4.585,4.585,0,0,1,9.17.045L345.8,393.7l2.61,9.862a1.428,1.428,0,0,1-.566,1.534l-2.221,1.538a1.425,1.425,0,0,1-.811.253,1.408,1.408,0,0,1-.33-.039Z" transform="translate(-290.892 -321.81)"/><path class="i" d="M160.544,173.828,157.7,185.847l4.112,10.121-2.847-9.8Z" transform="translate(-102.306 -111.704)"/><path class="d" d="M351.87,313.527a5.231,5.231,0,0,1-2.02-.366c-.283-.109-.576-.2-.859-.308a6.965,6.965,0,0,1-4.194-6.29,9.057,9.057,0,0,1,3.379-6.974,13.077,13.077,0,0,1,7.38-2.789c2.87-.219,6.1.509,7.706,2.9a2.518,2.518,0,0,1,.473,2.177,1.393,1.393,0,0,1-.392.6c-.716.637-1.43.158-2.161.116a2.389,2.389,0,0,0-2.229,1.706,5.14,5.14,0,0,0,.08,2.97,7.42,7.42,0,0,1,.374,1.806,1.816,1.816,0,0,1-.752,1.6,2.072,2.072,0,0,1-2.078-.219,14.433,14.433,0,0,0-1.848-1.183,1.634,1.634,0,0,0-1.983.4,2.194,2.194,0,0,0-.251.724c-.354,1.611-.272,1.516-.626,3.128Z" transform="translate(-295.894 -277.526)"/><path class="j" d="M579.478,394.443a1.366,1.366,0,0,1-.255-1.172,32.364,32.364,0,0,0,0-15.031,1.367,1.367,0,0,1,.255-1.172,1.343,1.343,0,0,1,1.061-.514H593.15a1.361,1.361,0,0,1,1.34,1.14,52.971,52.971,0,0,1,0,16.122,1.361,1.361,0,0,1-1.34,1.14H580.539A1.343,1.343,0,0,1,579.478,394.443Z" transform="translate(-447.608 -326.483)"/><path class="j" d="M517.8,253.825a1.366,1.366,0,0,1-.255-1.172,32.366,32.366,0,0,0,0-15.031,1.366,1.366,0,0,1,.255-1.172,1.343,1.343,0,0,1,1.061-.514H531.47a1.361,1.361,0,0,1,1.34,1.14,52.973,52.973,0,0,1,0,16.122,1.361,1.361,0,0,1-1.34,1.14H518.859A1.343,1.343,0,0,1,517.8,253.825Z" transform="translate(-407.701 -235.937)"/><path class="f" d="M615.211,302.217a52.969,52.969,0,0,1,0-16.122,1.361,1.361,0,0,1,1.34-1.14h12.611a1.343,1.343,0,0,1,1.061.514,1.366,1.366,0,0,1,.255,1.172,32.364,32.364,0,0,0,0,15.031,1.365,1.365,0,0,1-.255,1.172,1.343,1.343,0,0,1-1.061.514H616.551A1.36,1.36,0,0,1,615.211,302.217Z" transform="translate(-470.517 -269.451)"/><path class="k" d="M448.288,300.437a52.979,52.979,0,0,1,0-16.122,1.361,1.361,0,0,1,1.34-1.14h12.611a1.343,1.343,0,0,1,1.061.514,1.366,1.366,0,0,1,.255,1.172,32.364,32.364,0,0,0,0,15.031,1.366,1.366,0,0,1-.255,1.172,1.343,1.343,0,0,1-1.061.514H449.629A1.361,1.361,0,0,1,448.288,300.437Z" transform="translate(-362.522 -268.234)"/><path class="f" d="M458.837,416.119a1.389,1.389,0,0,1-.26-1.191,32.893,32.893,0,0,0,0-15.278,1.389,1.389,0,0,1,.26-1.191,1.366,1.366,0,0,1,1.079-.523h12.818a1.383,1.383,0,0,1,1.362,1.159,53.843,53.843,0,0,1,0,16.387,1.383,1.383,0,0,1-1.362,1.159H459.916a1.366,1.366,0,0,1-1.079-.523Z" transform="translate(-369.541 -340.235)"/><path class="g" d="M218.276,662.436H489.837a.379.379,0,1,0,0-.753H218.276a.379.379,0,1,0,0,.753Z" transform="translate(-214.255 -512.305)"/><path class="b" d="M478.953,414.785H472.2a.95.95,0,0,1-.949-.949v-.4a.95.95,0,0,1,.949-.949h6.752a.95.95,0,0,1,.949.949v.4A.95.95,0,0,1,478.953,414.785Z" transform="translate(-378.072 -350.469)"/><path class="b" d="M478.953,427.332H472.2a.95.95,0,0,1-.949-.949v-.4a.95.95,0,0,1,.949-.949h6.752a.95.95,0,0,1,.949.949v.4A.95.95,0,0,1,478.953,427.332Z" transform="translate(-378.072 -358.609)"/><path class="b" d="M465.1,302.946h-6.618a.95.95,0,0,1-.949-.949v-.371a.95.95,0,0,1,.949-.949H465.1a.95.95,0,0,1,.949.949V302A.95.95,0,0,1,465.1,302.946Z" transform="translate(-369.189 -280.202)"/><path class="b" d="M598.784,391.076h-6.617a.95.95,0,0,1-.949-.949v-.371a.95.95,0,0,1,.949-.949h6.618a.95.95,0,0,1,.949.949v.371a.95.95,0,0,1-.949.949Z" transform="translate(-455.829 -335.111)"/><path class="b" d="M598.784,405.889h-6.617a.95.95,0,0,1-.949-.949v-.371a.95.95,0,0,1,.949-.949h6.618a.95.95,0,0,1,.949.949v.371A.95.95,0,0,1,598.784,405.889Z" transform="translate(-455.829 -344.721)"/><path class="b" d="M598.784,420.7h-6.617a.95.95,0,0,1-.949-.949v-.371a.95.95,0,0,1,.949-.949h6.618a.95.95,0,0,1,.949.949v.371a.95.95,0,0,1-.949.949Z" transform="translate(-455.829 -354.331)"/><path class="b" d="M465.1,315.291h-6.618a.95.95,0,0,1-.949-.949v-.371a.95.95,0,0,1,.949-.949H465.1a.95.95,0,0,1,.949.949v.371A.95.95,0,0,1,465.1,315.291Z" transform="translate(-369.189 -288.642)"/><path class="b" d="M537.282,252.927h-6.617a.95.95,0,0,1-.949-.949v-.371a.95.95,0,0,1,.949-.949h6.617a.95.95,0,0,1,.949.949v.371a.95.95,0,0,1-.949.949Z" transform="translate(-415.969 -246.002)"/><path class="b" d="M632.756,305.961h-6.618a.95.95,0,0,1-.949-.949v-.371a.95.95,0,0,1,.949-.949h6.618a.95.95,0,0,1,.949.949v.371a.95.95,0,0,1-.949.949Z" transform="translate(-477.846 -282.263)"/></svg>