<svg xmlns="http://www.w3.org/2000/svg" xmlns:xlink="http://www.w3.org/1999/xlink" width="284" height="150.69" viewBox="0 0 284 150.69"><defs><style>.a,.g{fill:#6c63ff;}.a,.f{opacity:0.1;}.b{fill:url(#a);}.c{fill:#fff;}.d{fill:#f7d6c8;}.e{fill:#efb7b9;}.h{opacity:0.05;}.i{fill:#c3705a;}.j{fill:#ecb4b6;}.k{fill:#463a3e;}.l{fill:#c17174;}</style><linearGradient id="a" x1="0.5" y1="1" x2="0.5" gradientUnits="objectBoundingBox"><stop offset="0" stop-color="gray" stop-opacity="0.251"/><stop offset="0.54" stop-color="gray" stop-opacity="0.122"/><stop offset="1" stop-color="gray" stop-opacity="0.102"/></linearGradient></defs><path class="a" d="M56.533,175.882c.46,2.919,1.636,5.739,1.646,8.691.038,9.647-11.667,15.573-13.459,25.051-1.063,5.624,1.692,11.37,5.578,15.565s8.84,7.219,13.4,10.67a85.821,85.821,0,0,1,28.116,37.194,35.691,35.691,0,0,1,2.472,9.187,52.533,52.533,0,0,0,.665,6.9c2.134,8.919,12.958,12.38,22.109,12.958a96.959,96.959,0,0,0,43.134-7.2c3.068-1.278,6.235-2.73,9.527-2.37,2.633.289,4.982,1.713,7.293,3.009a96.739,96.739,0,0,0,21.57,8.88c4.167,1.15,8.54,2.025,12.8,1.278,12.781-2.255,19.573-17.756,32.114-21.145,8.676-2.344,17.7,1.751,25.486,6.248s15.813,9.675,24.8,9.688c11.984.015,21.836-9.054,29.965-17.858A18.215,18.215,0,0,0,328,276.466c1.649-4.831-1.023-10.258-4.972-13.5s-8.929-4.857-13.686-6.713a118.676,118.676,0,0,1-22.948-11.984c-4.652-3.119-9.159-6.646-12.342-11.248-2.738-3.967-4.381-8.566-6.217-13.024-4.024-9.762-9.714-19.683-19.215-24.264-7.758-3.742-16.769-3.323-25.381-3.423-12.689-.141-25.7-1.667-36.951-7.536-9.5-4.957-17.306-12.781-26.948-17.467-15.338-7.446-32.871-5.987-49.4-5.706-7.942.135-17.383.928-25.01-1.674-5.642-1.925-8.546-5.859-15.026-4.274A18.189,18.189,0,0,0,56.533,175.882Z" transform="translate(-44.491 -155.281)"/><path class="b" d="M327.71,295.966a6.3,6.3,0,0,1,.12-4.018c.764-1.966,2.627-3.385,3.282-5.394,1.218-3.732-2.064-7.226-4.077-10.609a17.735,17.735,0,0,1-2.4-10.388c.313-3.892,1.916-7.614,2.039-11.516.11-3.636-1.075-7.173-2.245-10.619a36.657,36.657,0,0,0-3.583-8.257,19.028,19.028,0,0,0-14.217-8.283c-2.663-.236-5.267.626-7.884.289-3.634-.466-7.069-1.4-10.774-1.52-3.519-.1-7.41.34-9.808,2.9-1.832,1.964-2.418,4.8-4.1,6.9-2.38,2.977-6.541,4-9.174,6.755a9.53,9.53,0,0,0-2.174,9.23c.364,1.176.961,2.268,1.348,3.436,1.628,4.88-.51,10.1-1.8,15.076a2.268,2.268,0,0,0-.076,1.267c.2.608.846.927,1.379,1.287a7.158,7.158,0,0,1,2.8,5.409,20.235,20.235,0,0,1-.8,6.215c-1.221,5.192-2.747,10.753-6.771,14.206a36.472,36.472,0,0,0-2.584-5.007,27.087,27.087,0,0,1-4.314-13.558.177.177,0,0,1,0-.043c0-.253.013-.507.028-.76.319-5.534,2.724-10.872,2.671-16.38q0-.669-.038-1.34c-.313-4.715-2.592-9.076-5.2-13.023a31.772,31.772,0,0,0-6.959-7.938c-4.35-3.291-9.877-4.72-15.307-5.475s-10.371-1.464-15.845-1.829c-5.886-.393-12.364-.613-17.017,2.99-6.067,4.7-6.4,13.771-11.029,19.877-2.752,3.633-7.135,6.441-8.585,10.568a25.413,25.413,0,0,1-.979-3.1l-.046-.21a30.048,30.048,0,0,0,1.18-15.514,18.983,18.983,0,0,0,.176-2.534,9.924,9.924,0,0,0-.3-2.739c-.655-2.468-2.462-4.442-4.207-6.314a18.585,18.585,0,0,0-2.064-1.989,30.372,30.372,0,0,0-38.567-6.84,30,30,0,0,0-13.02,36.737,7.855,7.855,0,0,1-2.133,4.627c-.563.555-1.292,1.249-1.17,1.959a.95.95,0,0,0,.082.6,1.67,1.67,0,0,0,.51.555,9.211,9.211,0,0,0,6.241,1.85,25.967,25.967,0,0,0,10.509,13.413q0,.253-.018.492c0,.281-.023.56-.036.844v.117c0-.025-8.873,11.5-17.073,11.929-4.378.228-8.2,3.165-11.092,6.522-3.476,4.029-5.621,8.66-5.8,9.942-.339,2.351-2.7,13.778-2.7,13.778h68.125c-.805,4.115-1.891,9.357-1.891,9.357H270.629c-.255-3.524-.538-6.783-.8-9.542h13.865l-.015.084H347.64l4.057-6.053C350.69,306.737,340.227,297.041,327.71,295.966Zm-159.24-19.7a16.584,16.584,0,0,0,4.587,1.642,2.772,2.772,0,0,0,2.067-.157,2.362,2.362,0,0,0,.833-1.173l.031.076c1.72,4.307,3.313,8.751,3.621,13.378.028.436.046.872.048,1.31a18.855,18.855,0,0,1-1.608,7.667,148.8,148.8,0,0,1-16.632-10.135l-.359-.152c0,.028.125.345.273.879.036.129.074.271.112.423-.364-1.171-.7-2.366-.986-3.585l-.1-.433A26.012,26.012,0,0,0,168.47,276.264Z" transform="translate(-81.024 -205.197)"/><path class="c" d="M238,480.231v0Z" transform="translate(-186.967 -397.041)"/><path class="c" d="M237.93,479.559v0Z" transform="translate(-186.915 -396.535)"/><path class="c" d="M237.88,479.07Z" transform="translate(-186.878 -396.301)"/><path class="c" d="M237.89,479.38Z" transform="translate(-186.886 -396.532)"/><path class="c" d="M237.88,479.22Z" transform="translate(-186.878 -396.413)"/><path class="d" d="M752.389,236.74c-3.584-.108-7.55.348-9.99,2.975-1.867,2.01-2.463,4.916-4.172,7.065-2.424,3.051-6.662,4.1-9.346,6.92a9.805,9.805,0,0,0-2.215,9.457c.372,1.2.978,2.323,1.374,3.518,1.659,5.011-.506,10.346-1.846,15.444a2.324,2.324,0,0,0-.076,1.3c.206.622.862.949,1.4,1.319a7.294,7.294,0,0,1,2.843,5.538,21.255,21.255,0,0,1-.81,6.366c-1.295,5.538-2.93,11.5-7.427,14.99-1.9,1.49-4.436,2.7-4.932,5.071-.58,2.78,2.073,5.143,4.618,6.4,7.471,3.692,16.145,3.745,24.318,5.391,7.2,1.45,14.376,4.2,21.66,3.26a43.686,43.686,0,0,0,9.423-2.69l19.13-7.049a4.976,4.976,0,0,0,1.5-.757,3.552,3.552,0,0,0,.564-4.148,15.108,15.108,0,0,0-2.769-3.526c-2.184-2.445-3.845-5.9-2.653-8.951.791-2.015,2.677-3.468,3.344-5.538,1.24-3.824-2.11-7.405-4.141-10.871a18.253,18.253,0,0,1-2.442-10.631c.319-3.988,1.952-7.8,2.07-11.8.111-3.724-1.094-7.347-2.286-10.879a37.708,37.708,0,0,0-3.65-8.46,19.375,19.375,0,0,0-14.484-8.487c-2.714-.24-5.364.641-8.03.3C759.665,237.813,756.163,236.853,752.389,236.74Z" transform="translate(-548.723 -215.247)"/><path class="e" d="M824.539,460.6S802.85,447,811.284,431.325a24.187,24.187,0,0,0,2.991-10.182,21.993,21.993,0,0,0,0-2.476v-.119q-.042-.638-.113-1.255a25.558,25.558,0,0,0-6.322-13.669s35.975-10.5,29.951-1.034c-2.8,4.394-1.959,8.7-.087,13.163.2.469.409.944.628,1.416,2.163,4.7,5.164,9.573,6,14.856C846.054,442.868,824.539,460.6,824.539,460.6Z" transform="translate(-613.59 -337.734)"/><path class="f" d="M837.791,402.587c-2.8,4.394-1.959,8.7-.087,13.162a24.307,24.307,0,0,1-23.551,1.551,25.522,25.522,0,0,0-6.314-13.679S843.817,393.119,837.791,402.587Z" transform="translate(-613.429 -336.732)"/><circle class="e" cx="24.271" cy="24.271" r="24.271" transform="translate(186.61 34.504)"/><path class="f" d="M832.24,474.166v-.119l.029-.047A.787.787,0,0,0,832.24,474.166Z" transform="translate(-630.871 -392.53)"/><path class="f" d="M828.717,512.311s-21.689-13.6-13.255-29.273a24.187,24.187,0,0,0,2.991-10.182c.493,3.871,3.165,8.684,8.028,15.346,2.11,2.9,3.017,6.957,3.3,11.01l.483.351,2.374-1.435c.264-4.483,1.171-9.014,3.318-12.226,5.641-8.439,6.981-12.659,6.564-17.031,2.163,4.7,5.164,9.573,6,14.856C850.232,494.581,828.717,512.311,828.717,512.311Z" transform="translate(-617.78 -389.693)"/><path class="g" d="M753.557,479.111c-12.922-.939-21.1-10.971-21.1-10.971.688,4.7-.43,8.906-6.456,17.933-2.134,3.2-3.038,7.724-3.3,12.218l-2.374,1.435-.483-.351c-.287-4.051-1.192-8.112-3.3-11.01-6.023-8.263-8.7-13.685-8-17.989,0,0-6.627,10.757-19.537,11.62s-23.754,9.985-24.79,26.681l4.13,5.681h40.737l-.016.087H774.2l4.146-6.205C777.311,490.011,766.48,480.05,753.557,479.111Z" transform="translate(-509.772 -389.24)"/><path class="h" d="M753.557,479.111c-12.922-.939-21.1-10.971-21.1-10.971.688,4.7-.43,8.906-6.456,17.933-2.134,3.2-3.038,7.724-3.3,12.218l-2.374,1.435-.483-.351c-.287-4.051-1.192-8.112-3.3-11.01-6.023-8.263-8.7-13.685-8-17.989,0,0-6.627,10.757-19.537,11.62s-23.754,9.985-24.79,26.681l4.13,5.681h40.737l-.016.087H774.2l4.146-6.205C777.311,490.011,766.48,480.05,753.557,479.111Z" transform="translate(-509.772 -389.24)"/><path class="f" d="M814.515,291.849a19.777,19.777,0,0,1-4.974,6.751c-2.827,2.677-6.382,5.035-10.269,4.853a15.752,15.752,0,0,0,4.433-7.284c-2.453,1.429-4.307,3.692-6.648,5.3s-5.652,2.442-7.941.76a23.8,23.8,0,0,0,9.935-9.386c-5.559,1.443-8.413,7.7-13.421,10.515a15.225,15.225,0,0,1-7.783,1.756c-1.912-.04-4.043-.485-5.108-2.073a5.887,5.887,0,0,1-.791-3.2,21.862,21.862,0,0,1,5.116-13.959,36.563,36.563,0,0,1,11.889-9.254,16.435,16.435,0,0,1,5.061-1.846,18.3,18.3,0,0,1,6.662.651,37.987,37.987,0,0,1,8.289,2.637C814.531,280.831,816.962,285.825,814.515,291.849Z" transform="translate(-587.014 -244.395)"/><path class="d" d="M814.515,290.539a19.777,19.777,0,0,1-4.974,6.751c-2.827,2.677-6.382,5.034-10.269,4.853a15.752,15.752,0,0,0,4.433-7.284c-2.453,1.429-4.307,3.692-6.648,5.3s-5.652,2.442-7.941.76a23.8,23.8,0,0,0,9.935-9.386c-5.559,1.443-8.413,7.7-13.421,10.515a15.225,15.225,0,0,1-7.783,1.756c-1.912-.04-4.043-.485-5.108-2.073a5.887,5.887,0,0,1-.791-3.2,21.862,21.862,0,0,1,5.116-13.959,36.564,36.564,0,0,1,11.889-9.254,16.436,16.436,0,0,1,5.061-1.846,18.3,18.3,0,0,1,6.662.651,37.988,37.988,0,0,1,8.289,2.637C814.531,279.515,816.962,284.515,814.515,290.539Z" transform="translate(-587.014 -243.417)"/><circle class="i" cx="30.811" cy="30.811" r="30.811" transform="translate(36.259 18.837)"/><path class="j" d="M271.843,427.45s-28.219,7.229-28.917,7.912-23.754,1.894-17.042-12.221c2.466-5.182,3.492-12.221,3.8-19.054.013-.29.026-.578.037-.865a140.746,140.746,0,0,0-1.084-22.082s32.7-12.922,30.294,6.714a41.028,41.028,0,0,0,.989,14.407c.364,1.54.791,3.046,1.266,4.507A76.85,76.85,0,0,0,271.843,427.45Z" transform="translate(-178.884 -321.39)"/><path class="f" d="M271.023,402.282a26.515,26.515,0,0,1-30.2.96,140.746,140.746,0,0,0-1.084-22.082s32.7-12.922,30.294,6.714A41.145,41.145,0,0,0,271.023,402.282Z" transform="translate(-190.018 -320.752)"/><circle class="j" cx="26.507" cy="26.507" r="26.507" transform="translate(40.476 33.795)"/><path class="f" d="M271.843,503.163s-28.219,7.229-28.917,7.912-23.754,1.894-17.042-12.221c2.466-5.182,3.492-12.221,3.8-19.054.264,3.571,2.3,12.218,2.566,15.1a2.506,2.506,0,0,0,.1.5c.382,1.279,1.746,2.753,3.389,4.151l.1.082a12.572,12.572,0,0,0,14.805.989,66.764,66.764,0,0,0,6.741-4.858,11.793,11.793,0,0,0,4.146-8.967,19.2,19.2,0,0,0-.343-4.32A76.805,76.805,0,0,0,271.843,503.163Z" transform="translate(-178.884 -397.516)"/><path class="g" d="M217.163,523.486H102s2.41-11.7,2.753-14.115c.187-1.319,2.374-6.066,5.915-10.188,2.948-3.428,6.838-6.448,11.3-6.683,8.347-.438,17.385-12.221,17.385-12.221h0c.2,3.428,2.316,12.382,2.582,15.32a2.507,2.507,0,0,0,.1.5c.382,1.279,1.746,2.753,3.389,4.151l.1.082a12.569,12.569,0,0,0,14.805.992,67.052,67.052,0,0,0,6.741-4.858,11.792,11.792,0,0,0,4.146-8.967,19.86,19.86,0,0,0-.72-5.931,9.379,9.379,0,0,0-.28-.9l.367.156s15.594,11.34,29.88,15.976a17.084,17.084,0,0,1,4.684,2.374,20.244,20.244,0,0,1,3.18,2.856,29.606,29.606,0,0,1,4.747,7.3A50.123,50.123,0,0,1,217.163,523.486Z" transform="translate(-86.833 -398.215)"/><path class="h" d="M217.163,523.486H102s2.41-11.7,2.753-14.115c.187-1.319,2.374-6.066,5.915-10.188,2.948-3.428,6.838-6.448,11.3-6.683,8.347-.438,17.385-12.221,17.385-12.221h0c.2,3.428,2.316,12.382,2.582,15.32a2.507,2.507,0,0,0,.1.5c.382,1.279,1.746,2.753,3.389,4.151l.1.082a12.569,12.569,0,0,0,14.805.992,67.052,67.052,0,0,0,6.741-4.858,11.792,11.792,0,0,0,4.146-8.967,19.86,19.86,0,0,0-.72-5.931,9.379,9.379,0,0,0-.28-.9l.367.156s15.594,11.34,29.88,15.976a17.084,17.084,0,0,1,4.684,2.374,20.244,20.244,0,0,1,3.18,2.856,29.606,29.606,0,0,1,4.747,7.3A50.123,50.123,0,0,1,217.163,523.486Z" transform="translate(-86.833 -398.215)"/><path class="f" d="M221.655,276.068c.686,2.637,1.582,5.567,3.937,6.941a3.457,3.457,0,0,1,.862.588c.58.63.4,1.614.316,2.468a10.2,10.2,0,0,0,3.028,8.007,15.047,15.047,0,0,0,7.753,3.977,2.82,2.82,0,0,0,2.11-.161,2.46,2.46,0,0,0,.865-1.242,10.507,10.507,0,0,0-.208-6.725c-.673-2.184-1.664-4.267-2.173-6.5-1.211-5.288.393-10.752,1.116-16.129a13.849,13.849,0,0,0-.082-5.375c-.667-2.526-2.508-4.552-4.286-6.469a13.22,13.22,0,0,0-3.165-2.756c-3.624-1.981-8.289-.222-12.158-1.664a45.606,45.606,0,0,1-4.338-2.374,15.723,15.723,0,0,0-10.272-.949,46.822,46.822,0,0,0-9.829,3.666l-2.434,1.1c-3.428,1.582-7.1,3.37-8.948,6.68-1.965,3.523-1.419,8.033-3.384,11.556A9.588,9.588,0,0,0,178.784,274a6.542,6.542,0,0,0,.414,2.6,20.8,20.8,0,0,1,1.1,6.329,8.5,8.5,0,0,1-2.257,5.87c-.643.638-1.5,1.456-1.108,2.271a1.709,1.709,0,0,0,.527.57,9.338,9.338,0,0,0,8.9,1.319,5.777,5.777,0,0,0,2.9-2.189,8.569,8.569,0,0,0,.934-2.447,34.184,34.184,0,0,0,1.606-9.476,33.528,33.528,0,0,1-.105-5.538c.269-1.83,1.337-3.716,3.117-4.22,1.319-.377,2.73.079,4.106.066,1.983-.016,4.415-2.215,6.253-1.569,1.582.559,2.835,3.587,4.143,4.747A15.02,15.02,0,0,0,221.655,276.068Z" transform="translate(-141.929 -224.123)"/><path class="i" d="M221.714,274.721c.686,2.637,1.582,5.567,3.937,6.941a3.457,3.457,0,0,1,.852.575c.58.63.4,1.614.316,2.468a10.2,10.2,0,0,0,3.028,8.007,15.047,15.047,0,0,0,7.753,3.977,2.82,2.82,0,0,0,2.11-.161,2.461,2.461,0,0,0,.865-1.242,10.508,10.508,0,0,0-.208-6.725c-.673-2.184-1.664-4.267-2.173-6.5-1.21-5.288.393-10.752,1.116-16.129a13.849,13.849,0,0,0-.082-5.375c-.667-2.526-2.508-4.552-4.286-6.469a13.219,13.219,0,0,0-3.165-2.756c-3.624-1.981-8.289-.222-12.158-1.664a45.6,45.6,0,0,1-4.338-2.374,15.723,15.723,0,0,0-10.272-.949,46.822,46.822,0,0,0-9.829,3.666l-2.4,1.108c-3.428,1.582-7.1,3.37-8.948,6.68-1.965,3.523-1.419,8.033-3.384,11.556a9.588,9.588,0,0,0-1.582,3.281,6.542,6.542,0,0,0,.414,2.6,20.8,20.8,0,0,1,1.1,6.329,8.5,8.5,0,0,1-2.257,5.871c-.643.638-1.5,1.456-1.108,2.271a1.709,1.709,0,0,0,.527.57,9.338,9.338,0,0,0,8.9,1.319,5.777,5.777,0,0,0,2.9-2.189,8.568,8.568,0,0,0,.934-2.447,34.183,34.183,0,0,0,1.606-9.476,33.53,33.53,0,0,1-.105-5.538c.269-1.83,1.337-3.716,3.117-4.22,1.319-.377,2.73.079,4.106.066,1.983-.016,4.415-2.215,6.253-1.569,1.582.559,2.835,3.587,4.143,4.747A14.916,14.916,0,0,0,221.714,274.721Z" transform="translate(-141.988 -223.105)"/><rect class="k" width="60.419" height="51.811" transform="translate(103.445 61.02)"/><rect class="h" width="60.419" height="51.811" transform="translate(103.445 61.02)"/><path class="l" d="M504.46,472.442H452.77c.667-3.763,2.619-7.888,6.422-12.334a45.626,45.626,0,0,0,7.284-11.657q.736-1.7,1.319-3.4a49.775,49.775,0,0,0,2.318-10.4,2.92,2.92,0,0,1,.034-.3,56.8,56.8,0,0,0,.322-7.363c0-.177,0-.348,0-.527a67.1,67.1,0,0,0-2.967-17.78l-.066-.206c-.562-1.77-.973-2.764-.973-2.764s1.026-.556,2.719-1.377l.142-.069c6.227-2.991,20.966-9.23,27.464-4.784l.105.071c2.273,1.619,3.5,4.591,2.922,9.542v.058a2.613,2.613,0,0,1-.029.264,95.805,95.805,0,0,0-.493,10.269v.527q0,1.205.026,2.442v.332c.053,2.664.171,5.414.338,8.2.229,3.869.556,7.809.934,11.675.161,1.654.335,3.3.527,4.913.021.19.042.385.063.572.222,1.97.451,3.9.686,5.773l.016.121C502.78,461.688,503.772,468.18,504.46,472.442Z" transform="translate(-349.111 -338.716)"/><path class="f" d="M537.985,409.141v.058a94.871,94.871,0,0,0-.527,10.549c0,.171,0,.343,0,.527a25.162,25.162,0,0,1-28.812,6.772v-.527a66.965,66.965,0,0,0-3.033-17.986c-.562-1.77-.973-2.764-.973-2.764s1.026-.556,2.719-1.377c6.166-2.98,21.211-9.415,27.7-4.794C537.334,401.219,538.558,404.191,537.985,409.141Z" transform="translate(-387.494 -336.43)"/><circle class="l" cx="25.138" cy="25.138" r="25.138" transform="translate(105.904 42.219)"/><path class="f" d="M412.168,596.087H358.54s2.41-11.7,2.753-14.115c.187-1.319,2.374-6.066,5.915-10.188a26.019,26.019,0,0,1,16-5.678c10.256-.153,13.242,3.378,14.051,5.989a5.847,5.847,0,0,1,.211,2.714l1.941,2.811Z" transform="translate(-278.83 -462.532)"/><path class="g" d="M411.518,596.737H357.89s2.41-11.7,2.753-14.115c.187-1.319,2.374-6.066,5.915-10.188a26.019,26.019,0,0,1,16-5.678c10.256-.153,13.242,3.378,14.051,5.989a5.847,5.847,0,0,1,.211,2.714l1.941,2.811Z" transform="translate(-278.345 -463.01)"/><path class="f" d="M626.349,593.614H570.16c2.679-5.7,9.7-20.9,10.093-24.418.15-1.361,1.6-2.637,3.521-3.721a20.005,20.005,0,0,1,1.87-.944l.116-.053q.527-.232,1.068-.43a21.4,21.4,0,0,1,15.032.119c4.613,1.754,10.549,4.117,15.169,6.329l.037.018c1.187.57,2.292,1.126,3.265,1.661A12.816,12.816,0,0,1,624.245,575a17.991,17.991,0,0,1,.831,4.483C625.479,582.875,625.919,587.907,626.349,593.614Z" transform="translate(-436.795 -460.06)"/><path class="g" d="M627,594.264H570.81c2.679-5.7,9.7-20.9,10.093-24.418.15-1.361,1.6-2.637,3.521-3.721a20.014,20.014,0,0,1,1.87-.944l.116-.053q.527-.232,1.068-.43a21.4,21.4,0,0,1,15.032.119c4.613,1.754,10.549,4.117,15.169,6.329l.037.018c1.187.57,2.292,1.126,3.265,1.661a12.817,12.817,0,0,1,3.914,2.825,17.991,17.991,0,0,1,.831,4.483C626.131,583.525,626.569,588.56,627,594.264Z" transform="translate(-437.28 -460.538)"/><path class="f" d="M461.409,347.448q0,1.216-.066,2.434-.037.593-.09,1.187c-.024.285-.053.567-.082.849l-.037.327c-.43,3.835-1.224,7.648-1.319,11.5v.546a48,48,0,0,0,1.361,10.728H428.818c-.053-.657-.079-1.319-.071-1.97a17.3,17.3,0,0,1,.1-1.767c.5-4.855,2.98-9.4,3.355-14.223l.016-.222c.024-.361.037-.725.032-1.089v-.1a18.645,18.645,0,0,0-.731-4.71l-.063-.229a47.438,47.438,0,0,0-1.582-4.483l-.116-.293c-.878-2.194-1.8-4.37-2.426-6.551a17.43,17.43,0,0,1-.762-5.011c0-.3.018-.607.042-.91.021-.248.05-.5.087-.746a11.685,11.685,0,0,1,.232-1.163,25.556,25.556,0,0,1,2.732-5.958h0a17.141,17.141,0,0,0,2.55-6.535,7.556,7.556,0,0,0,.029-.86h0a7.573,7.573,0,0,0-.105-1.1,18.917,18.917,0,0,0-1.78-4.526c-.069-.15-.137-.3-.2-.454,0-.024-.021-.047-.029-.071a60.569,60.569,0,0,1-2.888-9.528c-.034-.14-.069-.28-.105-.417-.2-.791-.4-1.582-.617-2.374-1.182-4.315-2.864-8.674-6.066-11.788s-8.307-4.692-12.316-2.708c-3.468,1.727-5.346,5.594-6.192,9.37s-.915,7.719-2.015,11.432q-.119.406-.264.81c-.047.137-.095.264-.142.414a41.444,41.444,0,0,1-1.683,4l-.066.14c-2,4.264-4.333,8.455-4.407,12.741v.4a11.052,11.052,0,0,0,.459,3.006,14.981,14.981,0,0,0,2.6,4.747q.33.43.675.852c1.108,1.361,2.31,2.679,3.362,4.082l.034.045a16.681,16.681,0,0,1,2.012,3.357,12.255,12.255,0,0,1,.053,9.468,17.8,17.8,0,0,1-1.026,2.02c-.678,1.171-1.424,2.31-2.012,3.529a13.185,13.185,0,0,0-.527,1.247c-1.319,3.4-1.6,7.155-2.679,10.66a24.2,24.2,0,0,1-3.832,7.461H358.19c.4-1.949,2.374-11.6,2.685-13.772.187-1.319,2.374-6.066,5.915-10.188q-.447.352-.862.709a29.338,29.338,0,0,0-5.741,6.609c.076-.237.156-.477.235-.715.483-1.44,1-2.867,1.535-4.275,1.535-4.056,3.244-8.194,6.3-11.269,1.727-1.735,3.829-3.072,5.475-4.884A17.433,17.433,0,0,0,377.8,325.3c0-.448-.018-.894-.047-1.34-.314-4.747-1.936-9.291-3.692-13.714-.944-2.374-1.946-4.868-1.9-7.384a8.226,8.226,0,0,1,.076-1.055c.725-5.214,6-8.336,9.167-12.543,4.71-6.258,5.053-15.56,11.232-20.365,4.747-3.692,11.34-3.465,17.335-3.064,5.575.374,10.607,1.1,16.14,1.875s11.148,2.231,15.586,5.641a32.482,32.482,0,0,1,7.089,8.133c2.658,4.046,4.982,8.513,5.3,13.342.024.345.037.688.037,1.029.055,5.644-2.395,11.113-2.719,16.781-.013.264-.024.527-.026.791a.181.181,0,0,0,0,.042c-.058,4.913,1.828,10.072,4.394,14.241A38.2,38.2,0,0,1,461.409,347.448Z" transform="translate(-279.382 -241.294)"/><path class="k" d="M461.188,346.513c0,.7-.026,1.4-.066,2.089q-.037.593-.09,1.187t-.119,1.176c-.43,3.835-1.224,7.648-1.319,11.5v.889a49.544,49.544,0,0,0,1.437,10.728H428.626c-.061-.657-.1-1.319-.1-1.97a18.866,18.866,0,0,1,.1-2.11c.5-4.855,2.98-9.4,3.355-14.223.026-.353.045-.707.047-1.055v-.248a18.866,18.866,0,0,0-.789-5.037,47.436,47.436,0,0,0-1.582-4.483c-.913-2.292-1.891-4.568-2.545-6.857a17.832,17.832,0,0,1-.762-4.676,12.257,12.257,0,0,1,.042-1.255c.021-.248.05-.5.087-.746a11.686,11.686,0,0,1,.232-1.163,25.556,25.556,0,0,1,2.732-5.958c1.2-2.152,2.352-4.283,2.555-6.546.016-.171.024-.345.029-.527h0a7.383,7.383,0,0,0-.105-1.448,18.918,18.918,0,0,0-1.78-4.526c-.069-.15-.137-.3-.2-.454a59.283,59.283,0,0,1-2.917-9.6c-.232-.934-.469-1.867-.72-2.793-1.181-4.315-2.864-8.674-6.066-11.788s-8.3-4.66-12.305-2.666c-3.468,1.727-5.346,5.594-6.192,9.37s-.915,7.719-2.015,11.432c-.121.409-.264.818-.4,1.224-.491,1.39-1.1,2.769-1.746,4.14-2.06,4.375-4.457,8.679-4.407,13.086v.055a11.055,11.055,0,0,0,.459,3.006,14.98,14.98,0,0,0,2.6,4.747q.33.43.675.852c1.121,1.377,2.337,2.708,3.4,4.127a16.686,16.686,0,0,1,2.012,3.357,12.255,12.255,0,0,1,.053,9.468,17.792,17.792,0,0,1-1.026,2.02c-.678,1.171-1.424,2.31-2.012,3.529a13.174,13.174,0,0,0-.527,1.247c-1.319,3.4-1.6,7.155-2.679,10.66a24.262,24.262,0,0,1-4.1,7.8H357.89s2.41-11.7,2.753-14.115c.171-1.205,2.02-5.274,5.053-9.133.264-.353.564-.707.862-1.055a29.55,29.55,0,0,0-6.366,6.947l-.235.369c.549-1.685,1.152-3.349,1.772-4.99,1.535-4.056,3.244-8.194,6.3-11.269,1.727-1.735,3.829-3.072,5.475-4.884a17.375,17.375,0,0,0,4.067-11.6c0-.564,0-1.126-.047-1.685-.314-4.747-1.936-9.291-3.692-13.714a21.065,21.065,0,0,1-1.9-7.052,8.569,8.569,0,0,1,.076-1.39c.728-5.185,6-8.294,9.17-12.514,4.71-6.258,5.053-15.56,11.232-20.365,4.747-3.692,11.34-3.465,17.335-3.064,5.575.375,10.607,1.1,16.14,1.875s11.156,2.228,15.589,5.628a32.679,32.679,0,0,1,7.089,8.136c2.658,4.046,4.982,8.513,5.3,13.342q.048.688.037,1.374c-.045,5.52-2.4,10.884-2.719,16.438-.021.375-.032.746-.026,1.123a.181.181,0,0,0,0,.042,27.868,27.868,0,0,0,4.394,13.89,38.2,38.2,0,0,1,5.638,20.1Z" transform="translate(-279.159 -240.36)"/></svg>